<svg xmlns="http://www.w3.org/2000/svg" xmlns:xlink="http://www.w3.org/1999/xlink" preserveAspectRatio="xMidYMid meet" width="500" height="500" viewBox="0 0 500 500" style="width:100%;height:100%"><defs><clipPath id="_R_G_L_0_G_L_5_C_0"><path id="_R_G_L_0_G_L_5_C_0_P_0" fill-rule="nonzero" d="M250 34.62 C181.53,34.62 126.03,90.12 126.03,158.59 C126.03,227.06 181.53,282.56 250,282.56 C318.47,282.56 373.97,227.06 373.97,158.59 C373.97,90.12 318.47,34.62 250,34.62z "/></clipPath><animate attributeType="XML" attributeName="opacity" dur="0s" from="0" to="1" xlink:href="#time_group"/></defs><g id="_R_G"><g id="_R_G_L_0_G" transform=" translate(250, 230.5) scale(1.38, 1.38) translate(-250, -250)"><g id="_R_G_L_0_G_L_5_G" transform=" translate(250, 250) scale(1.46, 1.46) translate(-250, -149)"><g clip-path="url(#_R_G_L_0_G_L_5_C_0)"><g id="_R_G_L_0_G_L_5_G_G_0_L_18_G" transform=" translate(249.827, 155.971) translate(-127.39, -127.39)"><path id="_R_G_L_0_G_L_5_G_G_0_L_18_G_D_0_P_0" fill="#6668ff" fill-opacity="1" fill-rule="nonzero" d=" M0.25 127.39 C0.25,57.17 57.17,0.25 127.39,0.25 C197.61,0.25 254.53,57.17 254.53,127.39 C254.53,197.61 197.61,254.53 127.39,254.53 C57.17,254.53 0.25,197.61 0.25,127.39z "/></g><g id="_R_G_L_0_G_L_5_G_G_0_L_17_G" transform=" translate(249.828, 299.386) translate(-141.493, -70.532)"><path id="_R_G_L_0_G_L_5_G_G_0_L_17_G_D_0_P_0" fill="#2e2e2e" fill-opacity="1" fill-rule="nonzero" d=" M257.27 49.78 C250.25,48.48 236.08,51.73 220.91,58.58 C205.92,65.33 194.23,73.7 190.41,79.81 C190.41,79.81 177.82,50.3 177.82,50.3 C169.54,30.86 178.5,8.69 197.33,2.11 C200.89,0.86 204.53,0.25 208.14,0.25 C221.05,0.25 233.41,7.9 239.77,20.29 C239.77,20.29 257.27,49.78 257.27,49.78z "/><path id="_R_G_L_0_G_L_5_G_G_0_L_17_G_D_1_P_0" fill="#2e2e2e" fill-opacity="1" fill-rule="nonzero" d=" M25.72 49.78 C32.74,48.48 46.9,51.73 62.07,58.58 C77.06,65.33 88.76,73.7 92.57,79.81 C92.57,79.81 105.16,50.3 105.16,50.3 C113.44,30.86 104.49,8.69 85.66,2.11 C82.09,0.86 78.46,0.25 74.84,0.25 C61.94,0.25 49.57,7.9 43.22,20.29 C43.22,20.29 25.72,49.78 25.72,49.78z "/></g><g id="_R_G_L_0_G_L_5_G_G_0_L_16_G" transform=" translate(249.953, 291.279) translate(-81.355, -80.398)"><path id="_R_G_L_0_G_L_5_G_G_0_L_16_G_D_0_P_0" fill="#2e2e2e" fill-opacity="1" fill-rule="nonzero" d=" M161.37 159.46 C161.37,159.46 1.34,159.46 1.34,159.46 C1.34,159.46 2.17,136.01 2.17,136.01 C2.17,136.01 2.75,119.08 2.75,119.08 C2.75,119.08 3.49,98.3 3.49,98.3 C3.49,98.3 5.87,31.2 5.87,31.2 C5.87,31.2 6.23,21.21 6.23,21.21 C6.23,21.21 11.39,19.35 11.39,19.35 C11.39,19.35 41.4,8.51 41.4,8.51 C41.4,8.51 47.19,6.42 47.19,6.42 C47.19,6.42 50.06,5.37 50.06,5.37 C50.06,5.37 57.56,1.34 57.56,1.34 C57.56,1.34 59.82,1.34 59.82,1.34 C59.82,1.34 103.14,1.34 103.14,1.34 C103.14,1.34 104.03,1.34 104.03,1.34 C104.03,1.34 112.45,5.21 112.45,5.21 C112.45,5.21 115.3,6.24 115.3,6.24 C115.3,6.24 121.09,8.33 121.09,8.33 C121.09,8.33 151.97,19.49 151.97,19.49 C151.97,19.49 156.73,21.21 156.73,21.21 C156.73,21.21 157.06,31.22 157.06,31.22 C157.06,31.22 158.34,69.02 158.34,69.02 C158.34,69.02 159.31,97.9 159.31,97.9 C159.31,97.9 160,118.79 160,118.79 C160,118.79 160,118.91 160,118.91 C160,118.91 160.63,137.78 160.63,137.78 C160.63,137.78 161.37,159.46 161.37,159.46z "/><path id="_R_G_L_0_G_L_5_G_G_0_L_16_G_D_1_P_0" stroke="#2e2e2e" stroke-linecap="round" stroke-linejoin="round" fill="none" stroke-width="0.535" stroke-opacity="1" d=" M161.37 159.46 C161.37,159.46 1.34,159.46 1.34,159.46 C1.34,159.46 2.17,136.01 2.17,136.01 C2.17,136.01 2.75,119.08 2.75,119.08 C2.75,119.08 3.49,98.3 3.49,98.3 C3.49,98.3 5.87,31.2 5.87,31.2 C5.87,31.2 6.23,21.21 6.23,21.21 C6.23,21.21 11.39,19.35 11.39,19.35 C11.39,19.35 41.4,8.51 41.4,8.51 C41.4,8.51 47.19,6.42 47.19,6.42 C47.19,6.42 50.06,5.37 50.06,5.37 C50.06,5.37 57.56,1.34 57.56,1.34 C57.56,1.34 59.82,1.34 59.82,1.34 C59.82,1.34 103.14,1.34 103.14,1.34 C103.14,1.34 104.03,1.34 104.03,1.34 C104.03,1.34 112.45,5.21 112.45,5.21 C112.45,5.21 115.3,6.24 115.3,6.24 C115.3,6.24 121.09,8.33 121.09,8.33 C121.09,8.33 151.97,19.49 151.97,19.49 C151.97,19.49 156.73,21.21 156.73,21.21 C156.73,21.21 157.06,31.22 157.06,31.22 C157.06,31.22 158.34,69.02 158.34,69.02 C158.34,69.02 159.31,97.9 159.31,97.9 C159.31,97.9 160,118.79 160,118.79 C160,118.79 160,118.91 160,118.91 C160,118.91 160.63,137.78 160.63,137.78 C160.63,137.78 161.37,159.46 161.37,159.46z "/></g><g id="_R_G_L_0_G_L_5_G_G_0_L_15_G" transform=" translate(250.311, 202.22) translate(-34.111, -44.889)"><path id="_R_G_L_0_G_L_5_G_G_0_L_15_G_D_0_P_0" fill="#f3ba9c" fill-opacity="1" fill-rule="nonzero" d=" M58.86 63.7 C59.33,77.21 48.49,88.38 34.4,88.38 C20.59,88.38 9.48,77.64 9.48,64.51 C9.48,64.24 6.66,63.66 6.69,63.39 C6.69,63.39 11.14,21.47 11.14,21.47 C11.14,21.47 12.97,19.09 12.97,19.09 C12.97,19.09 14.35,1.4 14.35,1.4 C14.35,1.4 54.42,1.4 54.42,1.4 C54.42,1.4 58.12,20.73 58.12,20.73 C58.12,20.73 61.94,63.2 61.94,63.2 C61.94,63.2 58.86,63.7 58.86,63.7z "/><path id="_R_G_L_0_G_L_5_G_G_0_L_15_G_D_1_P_0" stroke="#2e2e2e" stroke-linecap="round" stroke-linejoin="round" fill="none" stroke-width="0.559" stroke-opacity="1" d=" M58.86 63.7 C59.33,77.21 48.49,88.38 34.4,88.38 C20.59,88.38 9.48,77.64 9.48,64.51 C9.48,64.24 6.66,63.66 6.69,63.39 C6.69,63.39 11.14,21.47 11.14,21.47 C11.14,21.47 12.97,19.09 12.97,19.09 C12.97,19.09 14.35,1.4 14.35,1.4 C14.35,1.4 54.42,1.4 54.42,1.4 C54.42,1.4 58.12,20.73 58.12,20.73 C58.12,20.73 61.94,63.2 61.94,63.2 C61.94,63.2 58.86,63.7 58.86,63.7z "/><path id="_R_G_L_0_G_L_5_G_G_0_L_15_G_D_2_P_0" fill="#f3ba9c" fill-opacity="1" fill-rule="nonzero" d=" M60.99 56.39 C60.99,56.39 64.2,58.28 64.2,58.28 C64.2,58.28 66.93,59.26 66.93,59.26 C64.89,75.56 50.98,88.14 34.11,88.14 C17.32,88.14 3.43,75.63 1.29,59.43 C1.29,59.43 4.07,58.42 4.07,58.42 C4.07,58.42 7.78,55.62 7.78,55.62 "/><path id="_R_G_L_0_G_L_5_G_G_0_L_15_G_D_3_P_0" stroke="#2e2e2e" stroke-linecap="round" stroke-linejoin="round" fill="none" stroke-width="0.516" stroke-opacity="1" d=" M60.99 56.39 C60.99,56.39 64.2,58.28 64.2,58.28 C64.2,58.28 66.93,59.26 66.93,59.26 C64.89,75.56 50.98,88.14 34.11,88.14 C17.32,88.14 3.43,75.63 1.29,59.43 C1.29,59.43 4.07,58.42 4.07,58.42 C4.07,58.42 7.78,55.62 7.78,55.62 "/></g><g id="_R_G_L_0_G_L_5_G_G_0_L_14_G" transform=" translate(289.925, 136.102) translate(-14.642, -18.967)"><path id="_R_G_L_0_G_L_5_G_G_0_L_14_G_D_0_P_0" fill="#f3ba9c" fill-opacity="1" fill-rule="nonzero" d=" M5.68 12.45 C1.25,20.25 1.68,29.49 6.63,33.09 C11.58,36.68 19.18,33.28 23.61,25.48 C28.03,17.68 27.61,8.45 22.65,4.85 C17.7,1.25 10.1,4.66 5.68,12.45z "/><path id="_R_G_L_0_G_L_5_G_G_0_L_14_G_D_1_P_0" stroke="#2e2e2e" stroke-linecap="round" stroke-linejoin="round" fill="none" stroke-width="0.501" stroke-opacity="1" d=" M5.68 12.45 C1.25,20.25 1.68,29.49 6.63,33.09 C11.58,36.68 19.18,33.28 23.61,25.48 C28.03,17.68 27.61,8.45 22.65,4.85 C17.7,1.25 10.1,4.66 5.68,12.45z "/></g><g id="_R_G_L_0_G_L_5_G_G_0_L_13_G" transform=" translate(296.307, 131.924) translate(-3.349, -7.45)"><path id="_R_G_L_0_G_L_5_G_G_0_L_13_G_D_0_P_0" stroke="#2e2e2e" stroke-linecap="round" stroke-linejoin="round" fill="none" stroke-width="0.501" stroke-opacity="1" d=" M1.25 1.25 C3.4,2.17 5.03,4.41 5.37,6.9 C5.72,9.4 4.77,12.07 2.98,13.65 "/></g><g id="_R_G_L_0_G_L_5_G_G_0_L_12_G" transform=" translate(207.827, 136.102) translate(-13.78, -18.967)"><path id="_R_G_L_0_G_L_5_G_G_0_L_12_G_D_0_P_0" fill="#f3ba9c" fill-opacity="1" fill-rule="nonzero" d=" M22.17 12.45 C26.31,20.25 25.91,29.49 21.27,33.09 C16.64,36.68 9.53,33.28 5.39,25.48 C1.25,17.68 1.65,8.45 6.29,4.85 C10.92,1.25 18.03,4.66 22.17,12.45z "/><path id="_R_G_L_0_G_L_5_G_G_0_L_12_G_D_1_P_0" stroke="#2e2e2e" stroke-linecap="round" stroke-linejoin="round" fill="none" stroke-width="0.501" stroke-opacity="1" d=" M22.17 12.45 C26.31,20.25 25.91,29.49 21.27,33.09 C16.64,36.68 9.53,33.28 5.39,25.48 C1.25,17.68 1.65,8.45 6.29,4.85 C10.92,1.25 18.03,4.66 22.17,12.45z "/></g><g id="_R_G_L_0_G_L_5_G_G_0_L_11_G" transform=" translate(201.857, 131.924) translate(-3.472, -7.45)" class="1"><path id="_R_G_L_0_G_L_5_G_G_0_L_11_G_D_0_P_0" stroke="#2e2e2e" stroke-linecap="round" stroke-linejoin="round" fill="none" stroke-width="0.501" stroke-opacity="1" d=" M5.43 1.25 C3.43,2.17 1.9,4.41 1.58,6.9 C1.25,9.4 2.14,12.07 3.82,13.65 "/></g><g id="_R_G_L_0_G_L_5_G_G_0_L_10_G" transform=" translate(249.656, 125.642) translate(-45.196, -63.267)"><path id="_R_G_L_0_G_L_5_G_G_0_L_10_G_D_0_P_0" fill="#f3ba9c" fill-opacity="1" fill-rule="nonzero" d=" M89.14 79.82 C89.14,90.61 84.73,100.94 76.92,108.4 C76.92,108.4 65.01,119.09 65.01,119.09 C61.4,123.03 56.3,125.28 50.94,125.28 C50.94,125.28 39.85,125.28 39.85,125.28 C34.54,125.28 29.5,123.08 25.87,119.21 C25.87,119.21 13.71,108.42 13.71,108.42 C5.75,100.94 1.25,90.53 1.25,79.63 C1.25,79.63 1.44,76.33 1.44,76.33 C1.44,76.33 2.53,57.43 2.53,57.43 C2.53,57.43 3.35,43.42 3.35,43.42 C3.35,20.13 22.08,1.25 45.18,1.25 C56.76,1.25 67.22,5.98 74.78,13.6 C82.36,21.22 87.04,31.77 87.04,43.42 C87.04,43.42 87.96,59.36 87.96,59.36 C87.96,59.36 88.87,75.09 88.87,75.09 C88.87,75.09 89.14,79.82 89.14,79.82z "/><path id="_R_G_L_0_G_L_5_G_G_0_L_10_G_D_1_P_0" stroke="#2e2e2e" stroke-linecap="round" stroke-linejoin="round" fill="none" stroke-width="0.501" stroke-opacity="1" d=" M89.14 79.82 C89.14,90.61 84.73,100.94 76.92,108.4 C76.92,108.4 65.01,119.09 65.01,119.09 C61.4,123.03 56.3,125.28 50.94,125.28 C50.94,125.28 39.85,125.28 39.85,125.28 C34.54,125.28 29.5,123.08 25.87,119.21 C25.87,119.21 13.71,108.42 13.71,108.42 C5.75,100.94 1.25,90.53 1.25,79.63 C1.25,79.63 1.44,76.33 1.44,76.33 C1.44,76.33 2.53,57.43 2.53,57.43 C2.53,57.43 3.35,43.42 3.35,43.42 C3.35,20.13 22.08,1.25 45.18,1.25 C56.76,1.25 67.22,5.98 74.78,13.6 C82.36,21.22 87.04,31.77 87.04,43.42 C87.04,43.42 87.96,59.36 87.96,59.36 C87.96,59.36 88.87,75.09 88.87,75.09 C88.87,75.09 89.14,79.82 89.14,79.82z "/></g><g id="_R_G_L_0_G_L_5_G_G_0_L_9_G" transform=" translate(250.414, 139.267) translate(-7.602, -12.248)"><path id="_R_G_L_0_G_L_5_G_G_0_L_9_G_D_0_P_0" stroke="#2e2e2e" stroke-linecap="round" stroke-linejoin="round" fill="none" stroke-width="0.462" stroke-opacity="1" d=" M7.68 19.01 C7.68,19.01 7.68,0.23 7.68,0.23 "/><path id="_R_G_L_0_G_L_5_G_G_0_L_9_G_D_1_P_0" stroke="#2e2e2e" stroke-linecap="round" stroke-linejoin="round" fill="none" stroke-width="0.462" stroke-opacity="1" d=" M1.16 22.26 C1.16,22.26 4.38,23.61 4.38,23.61 C4.38,23.61 4.38,23.61 4.38,23.61 C6.44,24.48 8.76,24.48 10.83,23.61 C10.83,23.61 10.83,23.61 10.83,23.61 C10.83,23.61 14.05,22.26 14.05,22.26 "/></g><g id="_R_G_L_0_G_L_5_G_G_0_L_8_G" transform=" translate(271.198, 128.558) translate(-4.255, -4.255)"><path id="_R_G_L_0_G_L_5_G_G_0_L_8_G_D_0_P_0" fill="#2e2e2e" fill-opacity="1" fill-rule="nonzero" d=" M0.4 3.98 C0.56,1.85 2.41,0.25 4.53,0.4 C6.66,0.56 8.26,2.41 8.11,4.53 C7.95,6.66 6.1,8.26 3.98,8.11 C1.85,7.95 0.25,6.1 0.4,3.98z "/></g><g id="_R_G_L_0_G_L_5_G_G_0_L_7_G" transform=" translate(271.427, 128.156) translate(-11.962, -6.055)"><path id="_R_G_L_0_G_L_5_G_G_0_L_7_G_D_0_P_0" fill="#2e2e2e" fill-opacity="1" fill-rule="nonzero" d=" M0.42 9.7 C0.42,9.7 2.43,7.06 2.43,7.06 C7.79,0.25 17.87,0.61 23.52,6.88 C23.89,8.07 20.71,5.77 20.39,5.56 C15.09,1.87 7.3,2.65 3,7.53 C3,7.53 0.76,9.98 0.76,9.98 C0.58,10.18 0.25,9.91 0.42,9.7z "/></g><g id="_R_G_L_0_G_L_5_G_G_0_L_6_G" transform=" translate(230.09, 128.558) translate(-4.255, -4.255)"><path id="_R_G_L_0_G_L_5_G_G_0_L_6_G_D_0_P_0" fill="#2e2e2e" fill-opacity="1" fill-rule="nonzero" d=" M8.11 3.98 C7.95,1.85 6.11,0.25 3.98,0.4 C1.85,0.56 0.25,2.41 0.4,4.53 C0.56,6.66 2.41,8.26 4.53,8.11 C6.66,7.95 8.26,6.1 8.11,3.98z "/></g><g id="_R_G_L_0_G_L_5_G_G_0_L_5_G" transform=" translate(229.86, 128.156) translate(-12.18, -6.053)"><path id="_R_G_L_0_G_L_5_G_G_0_L_5_G_D_0_P_0" fill="#2e2e2e" fill-opacity="1" fill-rule="nonzero" d=" M23.39 9.97 C23.39,9.97 21.14,7.53 21.14,7.53 C16.84,2.64 9.05,1.87 3.75,5.56 C3.37,5.8 0.25,8.06 0.62,6.88 C6.27,0.6 16.36,0.25 21.71,7.05 C21.71,7.05 23.72,9.69 23.72,9.69 C23.89,9.9 23.57,10.18 23.39,9.97z "/></g><g id="_R_G_L_0_G_L_5_G_G_0_L_4_G" transform=" translate(271.006, 116.931) translate(-13.978, -2.502)"><path id="_R_G_L_0_G_L_5_G_G_0_L_4_G_D_0_P_0" fill="#2e2e2e" fill-opacity="1" fill-rule="nonzero" d=" M1.8 2 C3.76,1.41 5.89,1.01 8.14,0.71 C10.4,0.42 12.79,0.25 15.26,0.29 C17.71,0.33 20.27,0.62 22.51,1.21 C24.75,1.79 26.6,2.69 27.58,3.78 C25.31,3.41 23.28,3.21 21.33,3.18 C19.38,3.15 17.52,3.27 15.63,3.44 C11.84,3.78 7.99,4.44 3.67,4.71 C2.06,4.81 0.6,4.24 0.4,3.43 C0.25,2.84 0.84,2.29 1.8,2z "/></g><g id="_R_G_L_0_G_L_5_G_G_0_L_3_G" transform=" translate(228.254, 116.93) translate(-13.853, -2.502)"><path id="_R_G_L_0_G_L_5_G_G_0_L_3_G_D_0_P_0" fill="#2e2e2e" fill-opacity="1" fill-rule="nonzero" d=" M24.16 4.71 C19.84,4.44 15.99,3.78 12.2,3.44 C10.31,3.27 8.45,3.15 6.5,3.18 C4.55,3.21 2.52,3.41 0.25,3.78 C1.23,2.69 3.08,1.79 5.32,1.21 C7.56,0.62 10.12,0.33 12.57,0.29 C15.04,0.25 17.44,0.42 19.69,0.71 C21.94,1.01 24.07,1.41 26.03,2 C27.42,2.41 27.87,3.31 27.04,4 C26.43,4.52 25.28,4.77 24.16,4.71z "/></g><g id="_R_G_L_0_G_L_5_G_G_0_L_2_G" transform=" translate(249.656, 165.928) translate(-44.193, -28.763)"><path id="_R_G_L_0_G_L_5_G_G_0_L_2_G_D_0_P_0" fill="#2e2e2e" fill-opacity="1" fill-rule="nonzero" d=" M25.48 23.4 C25.48,23.4 35.97,20.12 44.45,20.12 C52.32,20.12 61.26,22.13 63.93,22.31 C65.94,22.46 66.76,21.64 66.76,20.55 C66.76,19.14 66.76,18.29 63.93,17.72 C61.43,17.22 50.03,15.8 44.07,15.94 C38.1,16.08 29.52,17.31 26.12,18.11 C24.28,18.54 22.99,18.5 22.43,20.83 C22.15,21.95 23.4,23.97 25.48,23.4z "/><path id="_R_G_L_0_G_L_5_G_G_0_L_2_G_D_1_P_0" fill="#2e2e2e" fill-opacity="1" fill-rule="nonzero" d=" M45.53 32.19 C47.85,33.15 49.06,34.12 49.93,35.09 C50.75,36.06 51.14,37.03 51.14,37.99 C51.15,38.96 50.77,39.93 49.94,40.9 C49.08,41.87 47.87,42.83 45.53,43.8 C43.19,42.83 41.99,41.87 41.12,40.9 C40.3,39.93 39.91,38.96 39.92,37.99 C39.92,37.03 40.31,36.06 41.14,35.09 C42,34.12 43.21,33.15 45.53,32.19z "/><path id="_R_G_L_0_G_L_5_G_G_0_L_2_G_D_2_P_0" fill="#2e2e2e" fill-opacity="1" fill-rule="nonzero" d=" M87.86 0.25 C87.86,0.25 88.14,4.98 88.14,4.98 C88.14,6.4 88.05,7.82 87.9,9.23 C87.9,9.23 87.17,15.56 87.17,15.56 C84.63,26.99 81.24,31.58 73.97,40.69 C73.97,40.69 64.01,52.65 64.01,52.65 C60.86,56.3 56.59,56.74 50.39,57.28 C50.39,57.28 38.5,56.99 38.5,56.99 C33.19,56.99 30.41,55.72 26.04,52.12 C26.04,52.12 14.39,40.62 14.39,40.62 C11.18,36.33 8.53,32.29 6.49,27.59 C4.44,22.9 1.9,18.76 0.25,13.19 C0.25,13.19 0.44,9.89 0.44,9.89 C0.52,10.03 0.6,10.17 0.68,10.3 C0.43,8.48 0.25,6.65 0.25,4.79 C0.25,4.79 0.44,1.49 0.44,1.49 C0.44,1.49 4.45,20.25 14.04,30.95 C23.63,41.64 28.37,46.8 36.79,47.57 C45.21,48.33 58.49,48.1 63.73,43.23 C68.98,38.36 76.93,29.39 80.53,21.92 C84.13,14.44 87.86,0.25 87.86,0.25z "/></g><g id="_R_G_L_0_G_L_5_G_G_0_L_1_G" transform=" translate(250.729, 163.432) translate(-16.205, -3.065)"><path id="_R_G_L_0_G_L_5_G_G_0_L_1_G_D_0_P_0" stroke="#2e2e2e" stroke-linecap="round" stroke-linejoin="round" fill="none" stroke-width="0.418" stroke-opacity="1" d=" M19.95 3.79 C23.88,3.83 27.99,3.07 31.37,1.05 "/><path id="_R_G_L_0_G_L_5_G_G_0_L_1_G_D_1_P_0" stroke="#2e2e2e" stroke-linecap="round" stroke-linejoin="round" fill="none" stroke-width="0.418" stroke-opacity="1" d=" M12.47 3.96 C8.53,4 4.42,3.24 1.05,1.21 "/><path id="_R_G_L_0_G_L_5_G_G_0_L_1_G_D_2_P_0" stroke="#2e2e2e" stroke-linecap="round" stroke-linejoin="round" fill="none" stroke-width="0.418" stroke-opacity="1" d=" M12.46 3.96 C14.24,5.32 17.57,5.66 19.94,3.79 "/></g><g id="_R_G_L_0_G_L_5_G_G_0_L_0_G" transform=" translate(249.709, 88.053) translate(-42.964, -34.716)"><path id="_R_G_L_0_G_L_5_G_G_0_L_0_G_D_0_P_0" fill="#2e2e2e" fill-opacity="1" fill-rule="nonzero" d=" M10.75 32.24 C10.75,32.24 26.7,33.08 43.44,43.04 C60.19,52.99 77.86,48.75 77.86,48.75 C77.86,48.75 79.24,27.79 71.52,23.98 C63.79,20.17 21.55,20.89 13.89,26.52 C6.24,32.14 10.75,32.24 10.75,32.24z "/><path id="_R_G_L_0_G_L_5_G_G_0_L_0_G_D_1_P_0" fill="#2e2e2e" fill-opacity="1" fill-rule="nonzero" d=" M3.65 45.36 C3.65,45.36 2.06,18.58 13.89,12.97 C26.1,7.18 22.99,2.02 37.22,1.11 C50.5,0.25 74.8,6.94 80.94,21.6 C87.09,36.26 77.56,48.75 79.89,45.36 C82.22,41.98 49.06,21.42 43.08,23.33 C37.11,25.25 10.33,28.48 7.91,33.08 C5.88,36.95 3.65,45.36 3.65,45.36z "/><path id="_R_G_L_0_G_L_5_G_G_0_L_0_G_D_2_P_0" fill="#2e2e2e" fill-opacity="1" fill-rule="nonzero" d=" M27.66 29.67 C20.91,28.94 11.3,31.21 10.48,37.95 C9.26,48.05 5.73,57.88 0.25,66.47 C0.25,66.47 1.07,52.46 1.07,52.46 C1.07,29.17 19.8,10.29 42.9,10.29 C54.47,10.29 64.93,15.02 72.49,22.64 C80.07,30.26 84.76,40.8 84.76,52.46 C84.76,52.46 85.68,68.4 85.68,68.4 C85.68,68.4 84.38,68.4 84.38,68.4 C78.24,59.41 74.3,48.93 72.99,38.14 C72.17,31.4 62.6,29.13 55.84,29.86 "/></g></g></g><g id="_R_G_L_0_G_L_4_G" transform=" translate(264.5, 422.5) translate(-250, -250)" class="ai"><g id="_R_G_L_0_G_L_4_G_L_0_G" transform=" translate(295.172, 243.641) scale(0.05623, 0.05623) translate(-144.235, -144.23)" class="ai"><path id="_R_G_L_0_G_L_4_G_L_0_G_D_0_P_0" fill="#fcee21" fill-opacity="1" fill-rule="nonzero" d=" M265.18 70.29 C251.54,70.51 240.81,69.06 232.3,66.75 C220.22,63.47 212.64,58.48 207.62,54.17 C205.23,52.11 208.47,45.46 202.74,31.34 C200.35,25.43 196.57,15.1 188.55,9.57 C220.72,20.14 247.8,41.92 265.18,70.29z "/><path id="_R_G_L_0_G_L_4_G_L_0_G_D_1_P_0" stroke="#000000" stroke-linecap="round" stroke-linejoin="round" fill="none" stroke-width="1" stroke-opacity="1" d=" M265.18 70.29 C251.54,70.51 240.81,69.06 232.3,66.75 C220.22,63.47 212.64,58.48 207.62,54.17 C205.23,52.11 208.47,45.46 202.74,31.34 C200.35,25.43 196.57,15.1 188.55,9.57 C220.72,20.14 247.8,41.92 265.18,70.29z "/><path id="_R_G_L_0_G_L_4_G_L_0_G_D_2_P_0" fill="#ffffff" fill-opacity="1" fill-rule="nonzero" d=" M194.13 105.16 C194.13,105.28 194.13,105.39 194.12,105.51 C193.92,113.18 187.63,119.32 179.93,119.31 C172.1,119.29 165.76,112.93 165.78,105.11 C165.78,104.27 165.86,103.44 166,102.64 C167.18,95.99 172.99,90.94 179.98,90.96 C187.81,90.97 194.14,97.33 194.13,105.16z "/><path id="_R_G_L_0_G_L_4_G_L_0_G_D_3_P_0" fill="#fcee21" fill-opacity="1" fill-rule="nonzero" d=" M156.72 102.22 C156.61,103.14 156.55,104.07 156.55,105.02 C156.52,117.95 166.98,128.44 179.91,128.47 C192.17,128.49 202.25,119.08 203.27,107.07 C237.94,113.67 266.99,127.16 285.85,150.08 C282.78,225.65 220.55,285.96 144.24,285.96 C67.92,285.96 5.69,225.65 2.62,150.08 C21.46,127.2 50.43,113.72 85.02,107.11 C86.05,119.06 96.06,128.44 108.29,128.47 C121.21,128.49 131.71,118.04 131.74,105.11 C131.74,104.14 131.68,103.17 131.56,102.23 C135.74,102.1 139.97,102.03 144.24,102.03 C148.44,102.03 152.6,102.09 156.72,102.22z "/><path id="_R_G_L_0_G_L_4_G_L_0_G_D_4_P_0" fill="#ffffff" fill-opacity="1" fill-rule="nonzero" d=" M122.51 105.06 C122.51,112.89 116.16,119.24 108.33,119.24 C100.66,119.24 94.42,113.15 94.17,105.54 C94.16,105.38 94.16,105.22 94.16,105.06 C94.16,97.24 100.5,90.89 108.33,90.89 C115.34,90.89 121.16,95.98 122.3,102.65 C122.44,103.43 122.51,104.24 122.51,105.06z "/><path id="_R_G_L_0_G_L_4_G_L_0_G_D_5_P_0" fill="#fcee21" fill-opacity="1" fill-rule="nonzero" d=" M100.01 9.54 C91.94,15.06 88.15,25.44 85.75,31.37 C80.03,45.49 83.27,52.14 80.88,54.2 C75.87,58.51 68.3,63.51 56.22,66.79 C47.7,69.11 36.94,70.58 23.26,70.35 C40.65,41.93 67.78,20.11 100.01,9.54z "/><path id="_R_G_L_0_G_L_4_G_L_0_G_D_6_P_0" stroke="#000000" stroke-linecap="round" stroke-linejoin="round" fill="none" stroke-width="1" stroke-opacity="1" d=" M100.01 9.54 C91.94,15.06 88.15,25.44 85.75,31.37 C80.03,45.49 83.27,52.14 80.88,54.2 C75.87,58.51 68.3,63.51 56.22,66.79 C47.7,69.11 36.94,70.58 23.26,70.35 C40.65,41.93 67.78,20.11 100.01,9.54z "/><path id="_R_G_L_0_G_L_4_G_L_0_G_D_7_P_0" fill="#fcee21" fill-opacity="1" fill-rule="nonzero" d=" M111.99 37.44 C104.5,65.36 84.62,76.51 80.5,78.59 C69.93,83.92 50.8,89.22 17.96,79.8 C19.61,76.57 21.38,73.42 23.26,70.35 C36.94,70.58 47.7,69.11 56.22,66.79 C68.3,63.51 75.87,58.51 80.88,54.2 C93.21,51.28 111.99,37.44 111.99,37.44z "/><path id="_R_G_L_0_G_L_4_G_L_0_G_D_8_P_0" stroke="#000000" stroke-linecap="round" stroke-linejoin="round" fill="none" stroke-width="1" stroke-opacity="1" d=" M111.99 37.44 C104.5,65.36 84.62,76.51 80.5,78.59 C69.93,83.92 50.8,89.22 17.96,79.8 C19.61,76.57 21.38,73.42 23.26,70.35 C36.94,70.58 47.7,69.11 56.22,66.79 C68.3,63.51 75.87,58.51 80.88,54.2 C93.21,51.28 111.99,37.44 111.99,37.44z "/><path id="_R_G_L_0_G_L_4_G_L_0_G_D_9_P_0" fill="#fcee21" fill-opacity="1" fill-rule="nonzero" d=" M270.49 79.76 C237.69,89.16 218.58,83.88 208.02,78.55 C203.9,76.48 184.01,65.34 176.51,37.42 C176.51,37.42 195.3,51.25 207.62,54.17 C212.64,58.48 220.22,63.47 232.3,66.75 C240.81,69.06 251.54,70.51 265.18,70.29 C267.07,73.37 268.84,76.53 270.49,79.76z "/><path id="_R_G_L_0_G_L_4_G_L_0_G_D_10_P_0" stroke="#000000" stroke-linecap="round" stroke-linejoin="round" fill="none" stroke-width="1" stroke-opacity="1" d=" M270.49 79.76 C237.69,89.16 218.58,83.88 208.02,78.55 C203.9,76.48 184.01,65.34 176.51,37.42 C176.51,37.42 195.3,51.25 207.62,54.17 C212.64,58.48 220.22,63.47 232.3,66.75 C240.81,69.06 251.54,70.51 265.18,70.29 C267.07,73.37 268.84,76.53 270.49,79.76z "/></g></g><g id="_R_G_L_0_G_L_3_G" transform=" translate(250, 230.221) scale(0.37817999999999996, 0.37817999999999996) translate(-1004.529, -444.583)"><g id="_R_G_L_0_G_L_3_G_L_4_G" transform=" translate(1165.022, 418.071) translate(-10.454, -5.9)"><path id="_R_G_L_0_G_L_3_G_L_4_G_D_0_P_0" stroke="#2e2e2e" stroke-linecap="round" stroke-linejoin="round" fill="none" stroke-width="9" stroke-opacity="1" d=" M16.41 4.5 C16.41,4.5 4.5,7.3 4.5,7.3 "/></g><g id="_R_G_L_0_G_L_3_G_L_3_G" transform=" translate(843.692, 419.241) translate(-10.609, -6.723)"><path id="_R_G_L_0_G_L_3_G_L_3_G_D_0_P_0" stroke="#2e2e2e" stroke-linecap="round" stroke-linejoin="round" fill="none" stroke-width="10" stroke-opacity="1" d=" M5 5 C5,5 16.22,8.45 16.22,8.45 "/></g><g id="_R_G_L_0_G_L_3_G_L_2_G" transform=" translate(1004.449, 414.977) translate(-28.98, -22.547)"><path id="_R_G_L_0_G_L_3_G_L_2_G_D_0_P_0" stroke="#2e2e2e" stroke-linecap="round" stroke-linejoin="round" fill="none" stroke-width="5" stroke-opacity="1" d=" M55.46 42.59 C55.46,42.59 55.46,11.96 55.46,11.96 C55.46,11.96 50.52,3.07 30.47,2.78 C10.43,2.5 2.5,11.54 2.5,11.54 C2.5,11.54 2.5,42.59 2.5,42.59 "/></g><g id="_R_G_L_0_G_L_3_G_L_1_G" transform=" translate(910.718, 449.212) translate(-70.9, -68.783)"><path id="_R_G_L_0_G_L_3_G_L_1_G_D_0_P_0" stroke="#2e2e2e" stroke-linecap="round" stroke-linejoin="round" fill="none" stroke-width="7" stroke-opacity="1" d=" M7.58 48.67 C7.58,48.67 2.5,104.57 39.77,119.82 C77.04,135.07 109.96,118.12 120.18,103.3 C130.41,88.48 139.3,75.35 138.03,52.05 C136.76,28.76 123.21,18.17 115.16,12.67 C107.11,7.16 91.86,2.5 66.03,2.5 C40.19,2.5 24.1,13.09 17.32,22.41 C10.55,31.73 7.58,48.67 7.58,48.67z "/></g><g id="_R_G_L_0_G_L_3_G_L_0_G" transform=" translate(1098.077, 449.212) translate(-70.9, -68.783)"><path id="_R_G_L_0_G_L_3_G_L_0_G_D_0_P_0" stroke="#2e2e2e" stroke-linecap="round" stroke-linejoin="round" fill="none" stroke-width="7" stroke-opacity="1" d=" M134.22 48.67 C134.22,48.67 139.3,104.57 102.03,119.82 C64.76,135.07 31.84,118.12 21.62,103.3 C11.4,88.48 2.5,75.35 3.77,52.05 C5.04,28.76 18.59,18.17 26.64,12.67 C34.69,7.16 49.94,2.5 75.77,2.5 C101.61,2.5 117.7,13.09 124.48,22.41 C131.25,31.73 134.22,48.67 134.22,48.67z "/></g></g><g id="_R_G_L_0_G_L_2_G" transform=" translate(186.438, 214.75) scale(1, 0.83) translate(62.875, 36.5)"><path id="_R_G_L_0_G_L_2_G_D_0_P_0" stroke="#2e2e2e" stroke-linecap="round" stroke-linejoin="round" fill="none" stroke-width="3" stroke-opacity="1" d=" M-62.12 -29.25 C-62.12,-29.25 -63.62,-43.75 -63.62,-43.75 "/></g><g id="_R_G_L_0_G_L_1_G" transform=" translate(313.312, 213.938) translate(-62.812, 36.062)"><path id="_R_G_L_0_G_L_1_G_D_0_P_0" stroke="#2e2e2e" stroke-linecap="round" stroke-linejoin="round" fill="none" stroke-width="3" stroke-opacity="1" d=" M62.5 -29.62 C62.5,-29.62 63.13,-42.5 63.13,-42.5 "/></g><g id="_R_G_L_0_G_L_0_G" transform=" translate(251.25, 280.375) scale(1, 0.7575799999999999) translate(-1.25, -31.375)"><path id="_R_G_L_0_G_L_0_G_D_0_P_0" fill="#f3ba9c" fill-opacity="1" fill-rule="nonzero" d=" M1.25 27.25 C7.53,27.25 12.63,29.1 12.63,31.38 C12.63,33.65 7.53,35.5 1.25,35.5 C-5.03,35.5 -10.12,33.65 -10.12,31.38 C-10.12,29.1 -5.03,27.25 1.25,27.25z "/></g></g></g><g id="time_group"/></svg>