<svg xmlns="http://www.w3.org/2000/svg" viewBox="0 0 1090 711.88"><defs><style>.cls-1{fill:#3e3e3e;}.cls-2{fill:#ccc;}.cls-3{fill:#b3b3b3;}.cls-4{fill:#999;}.cls-5{fill:#ec6968;}.cls-6{fill:#ffd11d;}.cls-7{fill:#76777c;}.cls-8{fill:#383c3f;}.cls-9{fill:#e9d38a;}.cls-10{fill:#e1c67a;}.cls-11{fill:#cec6c3;}.cls-12{fill:#e74648;}.cls-13{fill:#f8db61;}.cls-14{fill:#f8d540;}.cls-15{fill:#00c2d1;}.cls-16{fill:#3aa6ae;}.cls-17{fill:#fff;}.cls-18{fill:#9268c8;}.cls-19{fill:#67377d;}.cls-20{fill:#252a3d;}.cls-21{fill:#3c435e;}.cls-22{fill:#96a;}.cls-23{fill:#edeced;}.cls-24{fill:#ec6967;}.cls-25{fill:#d33f34;}.cls-26{fill:#efefef;}.cls-27,.cls-29{fill:#fcee21;}.cls-27,.cls-28,.cls-30,.cls-53{stroke:#000;}.cls-27,.cls-28,.cls-30,.cls-53,.cls-55{stroke-miterlimit:10;}.cls-27,.cls-28,.cls-30{stroke-width:0.25px;}.cls-30,.cls-53,.cls-55{fill:none;}.cls-31{fill:#e5e5e4;}.cls-32{fill:#323233;}.cls-33{fill:#e94b38;}.cls-34{fill:#1a1a1a;}.cls-35{fill:#232323;}.cls-36{fill:#c6c5c4;}.cls-37{fill:#444648;}.cls-38{fill:#f5f0ea;}.cls-39{fill:#6768f5;}.cls-40{fill:#30323f;}.cls-41{fill:#4dc4d3;}.cls-42{fill:#eb6968;}.cls-43{fill:#c4612d;}.cls-44{fill:#8e68cc;}.cls-45{fill:#c46892;}.cls-46{fill:#cd6989;}.cls-47{fill:#b168a6;}.cls-48{fill:#a668b1;}.cls-49{fill:#8a68d0;}.cls-50{fill:#924732;}.cls-51{fill:#803e2f;}.cls-52{fill:#71382c;}.cls-53{stroke-linecap:round;stroke-width:10px;}.cls-54{fill:#333;}.cls-55{stroke:#38373e;stroke-width:0.6px;}.cls-56{fill:#b4b2b5;}.cls-57{fill:#38373e;}.cls-58{fill:#eb6969;}.cls-59{fill:#ad0ead;}.cls-60{fill:#6767f5;}.cls-61{fill:#8068da;}.cls-62{fill:#6868f4;}.cls-63{fill:#a369b6;}.cls-64{fill:#a068b7;}.cls-65{fill:#a469b5;}.cls-66{fill:#c66991;}.cls-67{fill:#c66990;}.cls-68{fill:#da697b;}.cls-69{fill:#c7688e;}.cls-70{fill:#d66980;}.cls-71{fill:#e77838;}.cls-72{fill:aqua;}.cls-73{fill:#e9696b;}.cls-74{fill:#a568b2;}</style></defs><g id="Layer_3" data-name="Layer 3"><path class="cls-1" d="M104.59,340.91C247.88,223.05,176.85,11.08,352.72,12.42c264.41,2,392.17,101.37,533,68.54,135.95-31.68,168.46,41.11,162.91,192.08-5.09,138-46.71,596.93-256.55,361.68-63.47-71.15-299.4,179.15-671.9-70.49C34.11,506.54,17.42,412.62,104.59,340.91Z"/></g><g id="Layer_1" data-name="Layer 1"><path class="cls-2" d="M942,470.24H192.73c-8.77,0-15.88,6.83-15.88,15.26h0c0,8.43,7.11,15.26,15.88,15.26H942c8.78,0,15.89-6.83,15.89-15.26h0C957.93,477.07,950.82,470.24,942,470.24Z"/><rect class="cls-3" x="201.49" y="500.76" width="731.8" height="10.54"/><polygon class="cls-2" points="198.57 706.88 178.17 706.88 222.7 511.3 243.1 511.3 198.57 706.88"/><polygon class="cls-2" points="262.22 706.88 241.82 706.88 286.35 511.3 306.75 511.3 262.22 706.88"/><polygon class="cls-2" points="936.12 706.88 956.52 706.88 912.08 511.3 891.68 511.3 936.12 706.88"/><polygon class="cls-2" points="872.47 706.88 892.87 706.88 848.43 511.3 828.03 511.3 872.47 706.88"/><polygon class="cls-4" points="222.7 511.3 220.2 522.22 240.59 522.22 243.1 511.3 222.7 511.3"/><polygon class="cls-4" points="286.35 511.3 283.85 522.22 304.24 522.22 306.75 511.3 286.35 511.3"/><polygon class="cls-4" points="912.08 511.3 914.58 522.22 894.19 522.22 891.68 511.3 912.08 511.3"/><polygon class="cls-4" points="848.43 511.3 850.93 522.22 830.54 522.22 828.03 511.3 848.43 511.3"/><rect class="cls-2" x="207.21" y="578.83" width="76.64" height="14.16"/><rect class="cls-2" x="849.28" y="578.83" width="76.64" height="14.16"/></g><g id="Layer_13" data-name="Layer 13"><path class="cls-5" d="M303,390.59h7.42a0,0,0,0,1,0,0v59.33a1.82,1.82,0,0,1-1.82,1.82h-3.78a1.82,1.82,0,0,1-1.82-1.82V390.59A0,0,0,0,1,303,390.59Z" transform="translate(483.05 911.43) rotate(-163.72)"/><rect class="cls-6" x="305.36" y="411.43" width="7.42" height="3.37" transform="translate(489.91 896.31) rotate(-163.72)"/><path class="cls-7" d="M294.58,449.47l7.13,2.08L297.29,459a1.59,1.59,0,0,1-1.82.71h0a1.59,1.59,0,0,1-1.15-1.58Z"/><path class="cls-8" d="M294.79,459.63h.81a.39.39,0,0,1,.39.39v1.58a0,0,0,0,1,0,0H294.4a0,0,0,0,1,0,0V460A.39.39,0,0,1,294.79,459.63Z" transform="translate(449.39 985.53) rotate(-163.72)"/><polygon class="cls-9" points="285.31 378.38 286.81 370.7 288.55 370.42 292.34 377.27 292.64 379.17 285.61 380.27 285.31 378.38"/><polygon class="cls-10" points="288.55 370.42 288.13 370.49 287.5 379.98 292.64 379.17 292.34 377.27 288.55 370.42"/><polygon points="286.81 370.7 288.55 370.42 287.31 368.18 286.81 370.7"/><rect class="cls-11" x="297.73" y="456.24" width="7.12" height="1.58" transform="translate(-67.38 52.39) rotate(-8.94)"/><path class="cls-12" d="M298.28,457.78h7.12a0,0,0,0,1,0,0v3.82a1.75,1.75,0,0,1-1.75,1.75H300a1.75,1.75,0,0,1-1.75-1.75v-3.82A0,0,0,0,1,298.28,457.78Z" transform="translate(-67.92 52.52) rotate(-8.94)"/><path class="cls-13" d="M287.64,377.89,300,456.43l-2.35.37-12.36-78.54a1.19,1.19,0,1,0,2.35-.37Z"/><path class="cls-14" d="M290,377.52l12.36,78.55-2.35.37-12.36-78.55a1.19,1.19,0,0,0,2.35-.37Z"/><path class="cls-6" d="M292.33,377.15l12.35,78.55-2.34.37L290,377.52a1.19,1.19,0,1,0,2.35-.37Z"/><path class="cls-15" d="M311.08,469.06H290a7.16,7.16,0,0,1-7.15-6.79l-2.17-42.06H320.4l-2.17,42.06A7.16,7.16,0,0,1,311.08,469.06Z"/><path class="cls-16" d="M320.4,420.21l-2.17,42.06a7.17,7.17,0,0,1-7.15,6.8h-4.5l.87-48.86Z"/><rect class="cls-16" x="289.81" y="469.06" width="21.25" height="1.18"/></g><g id="Layer_16" data-name="Layer 16"><polygon class="cls-17" points="233.76 449.18 187.82 339.44 280.38 293.19 307.73 293.19 307.73 299.51 281.87 299.51 195.93 342.44 239.59 446.74 233.76 449.18"/><path class="cls-18" d="M263.36,458.84H210a11.39,11.39,0,0,0-11.4,11.39h76.15A11.39,11.39,0,0,0,263.36,458.84Z"/><path class="cls-19" d="M274.75,470.24H198.6a11.55,11.55,0,0,1,.49-3.35h75.17A11.55,11.55,0,0,1,274.75,470.24Z"/><path class="cls-20" d="M236.68,436.46h0a8.23,8.23,0,0,1,8.22,8.23v14.15H228.45V444.69A8.24,8.24,0,0,1,236.68,436.46Z"/><path class="cls-20" d="M180.07,340.94a11.81,11.81,0,1,0,11.81-11.81A11.81,11.81,0,0,0,180.07,340.94Z"/><path class="cls-21" d="M185.36,340.94a6.52,6.52,0,1,0,6.52-6.51A6.51,6.51,0,0,0,185.36,340.94Z"/><path class="cls-20" d="M269.53,294a11.82,11.82,0,1,0,9.28-9.28A11.83,11.83,0,0,0,269.53,294Z"/><path class="cls-21" d="M274.69,295.32a6.52,6.52,0,1,0,5.4-5.4A6.52,6.52,0,0,0,274.69,295.32Z"/><path class="cls-21" d="M231.39,444.21a5.11,5.11,0,1,0,5.11-5.11A5.11,5.11,0,0,0,231.39,444.21Z"/><path class="cls-18" d="M386,318.33a44,44,0,1,0-87.91,0Z"/><path class="cls-22" d="M298.07,318.34h10.44a43.94,43.94,0,0,1,38.72-43.65,42.5,42.5,0,0,0-5.21-.32A44,44,0,0,0,298.07,318.34Z"/><rect class="cls-19" x="298.07" y="318.33" width="87.91" height="3.4"/></g><g id="Layer_15" data-name="Layer 15"><path class="cls-23" d="M919.25,385.14a7.53,7.53,0,1,1-7.53-7.53A7.53,7.53,0,0,1,919.25,385.14Z"/><circle class="cls-23" cx="916.48" cy="359.4" r="13.4"/><circle class="cls-23" cx="904.83" cy="370.31" r="15.03" transform="translate(3.17 748.28) rotate(-45)"/><path class="cls-24" d="M924.25,470.24a4.08,4.08,0,0,1,0-8.16,23,23,0,1,0,0-46.07,4.08,4.08,0,0,1,0-8.16,31.2,31.2,0,1,1,0,62.39Z"/><rect class="cls-24" x="880.52" y="400.05" width="47.29" height="70.19"/><rect class="cls-25" x="921.3" y="400.05" width="6.51" height="70.19"/><rect class="cls-26" x="908.03" y="400.05" width="1.02" height="12.95"/><path d="M900.91,408.68v12.54a7.63,7.63,0,0,0,15.25,0V408.68Z"/><g id="Layer_18" data-name="Layer 18"><g id="Layer_9" data-name="Layer 9"><path class="cls-27" d="M914.05,418.45a5.63,5.63,0,0,1-1.5-.16,2.87,2.87,0,0,1-1.12-.57c-.11-.1,0-.4-.23-1a2.12,2.12,0,0,0-.64-1A6.54,6.54,0,0,1,914.05,418.45Z"/><path class="cls-28" d="M915,421.82a2.44,2.44,0,0,1,0,.27,6.46,6.46,0,0,1-12.9,0,2.44,2.44,0,0,1,0-.27,6.44,6.44,0,0,1,.71-2.94,3.82,3.82,0,0,0,2.85-.05,3,3,0,0,0,1.43-1.88,5.67,5.67,0,0,1-1.42.77c.11-.1,0-.4.22-1a2.18,2.18,0,0,1,.65-1,6.54,6.54,0,0,1,4,0,2.12,2.12,0,0,1,.64,1c.27.64.12.94.23,1A5.67,5.67,0,0,1,910,417a3,3,0,0,0,1.44,1.88,3.79,3.79,0,0,0,2.84.05A6.44,6.44,0,0,1,915,421.82Z"/><path class="cls-17" d="M910.81,420v0a.65.65,0,0,1-1.29,0,.49.49,0,0,1,0-.12.65.65,0,0,1,1.28.12Z"/><path class="cls-29" d="M909.11,419.91a.49.49,0,0,0,0,.12,1.07,1.07,0,0,0,2.13.1,6.18,6.18,0,0,1,3.76,2,6.46,6.46,0,0,1-12.9,0,6.12,6.12,0,0,1,3.75-2A1.07,1.07,0,0,0,908,420a.53.53,0,0,0,0-.13h1.15Z"/><path class="cls-17" d="M907.55,420a.65.65,0,0,1-.65.65.64.64,0,0,1-.64-.62v0a.65.65,0,0,1,1.28-.11A.45.45,0,0,1,907.55,420Z"/><path class="cls-27" d="M906.52,415.68a2.18,2.18,0,0,0-.65,1c-.26.64-.11.94-.22,1a2.87,2.87,0,0,1-1.12.57,5.24,5.24,0,0,1-1.5.16A6.49,6.49,0,0,1,906.52,415.68Z"/><path class="cls-27" d="M907.07,417a3,3,0,0,1-1.43,1.88,3.82,3.82,0,0,1-2.85.05,4.63,4.63,0,0,1,.24-.43,5.24,5.24,0,0,0,1.5-.16,2.87,2.87,0,0,0,1.12-.57A5.67,5.67,0,0,0,907.07,417Z"/><path class="cls-30" d="M910.56,415.68h0"/><path class="cls-30" d="M914.05,418.45h0"/><path class="cls-27" d="M914.29,418.88a3.79,3.79,0,0,1-2.84-.05A3,3,0,0,1,910,417a5.67,5.67,0,0,0,1.42.77,2.87,2.87,0,0,0,1.12.57,5.63,5.63,0,0,0,1.5.16A3.62,3.62,0,0,1,914.29,418.88Z"/><path class="cls-30" d="M914.3,418.88h0"/></g></g></g><g id="Layer_14" data-name="Layer 14"><path class="cls-31" d="M870.23,462.85l-7.71-83.22-13.38,90.61h14.79A6.38,6.38,0,0,0,870.23,462.85Z"/><path class="cls-26" d="M809.38,378.26a15.81,15.81,0,0,0-15.8,15.81v66a10.2,10.2,0,0,0,10.2,10.2h48.54a10.2,10.2,0,0,0,10.2-10.2V378.26Z"/><path class="cls-15" d="M809.38,378.26a15.81,15.81,0,0,0-15.8,15.81v14.61h68.94V378.26Z"/><rect class="cls-32" x="811.47" y="421.82" width="4.9" height="4.86"/><rect class="cls-32" x="820.89" y="421.82" width="4.9" height="4.86"/><rect class="cls-32" x="830.3" y="421.82" width="4.9" height="4.86"/><rect class="cls-32" x="839.72" y="421.82" width="4.9" height="4.86"/><rect class="cls-32" x="849.14" y="421.82" width="4.9" height="4.86"/><rect class="cls-32" x="802.05" y="421.82" width="4.9" height="4.86"/><rect class="cls-32" x="811.47" y="431.78" width="4.9" height="4.86"/><rect class="cls-32" x="820.89" y="431.78" width="4.9" height="4.86"/><rect class="cls-32" x="830.3" y="431.78" width="4.9" height="4.86"/><rect class="cls-32" x="839.72" y="431.78" width="4.9" height="4.86"/><rect class="cls-32" x="849.14" y="431.78" width="4.9" height="4.86"/><rect class="cls-32" x="802.05" y="431.78" width="4.9" height="4.86"/><rect class="cls-32" x="811.47" y="441.74" width="4.9" height="4.86"/><rect class="cls-32" x="820.89" y="441.74" width="4.9" height="4.86"/><rect class="cls-32" x="830.3" y="441.74" width="4.9" height="4.86"/><rect class="cls-33" x="839.72" y="441.74" width="4.9" height="4.86"/><rect class="cls-32" x="849.14" y="441.74" width="4.9" height="4.86"/><rect class="cls-32" x="802.05" y="441.74" width="4.9" height="4.86"/><rect class="cls-32" x="811.47" y="451.7" width="4.9" height="4.86"/><rect class="cls-32" x="820.89" y="451.7" width="4.9" height="4.86"/><rect class="cls-32" x="830.3" y="451.7" width="4.9" height="4.86"/><rect class="cls-32" x="839.72" y="451.7" width="4.9" height="4.86"/><rect class="cls-32" x="849.14" y="451.7" width="4.9" height="4.86"/><rect class="cls-32" x="802.05" y="451.7" width="4.9" height="4.86"/><rect class="cls-32" x="807.73" y="374.36" width="3.55" height="9.95" rx="0.87"/><rect class="cls-32" x="816.05" y="374.36" width="3.55" height="9.95" rx="0.87"/><rect class="cls-32" x="824.37" y="374.36" width="3.55" height="9.95" rx="0.87"/><rect class="cls-32" x="832.69" y="374.36" width="3.55" height="9.95" rx="0.87"/><rect class="cls-32" x="841.01" y="374.36" width="3.55" height="9.95" rx="0.87"/><rect class="cls-32" x="849.33" y="374.36" width="3.55" height="9.95" rx="0.87"/></g><g id="Layer_10" data-name="Layer 10"><path class="cls-34" d="M396.41,399.81H370.7a7.15,7.15,0,0,0-7.14,7.15v63.28h40V407A7.14,7.14,0,0,0,396.41,399.81Z"/><path class="cls-35" d="M370.7,399.81a7.15,7.15,0,0,0-7.14,7.15v54.73l33-61.88Z"/><circle class="cls-36" cx="383.56" cy="446.12" r="13.04" transform="translate(-138.54 717.33) rotate(-76.76)"/><path class="cls-37" d="M392.18,446.12a8.63,8.63,0,1,1-8.62-8.63A8.63,8.63,0,0,1,392.18,446.12Z"/><path class="cls-36" d="M390.07,417.41a6.52,6.52,0,1,1-6.51-6.52A6.51,6.51,0,0,1,390.07,417.41Z"/><circle class="cls-37" cx="383.56" cy="417.41" r="4.31"/></g><g id="Layer_17" data-name="Layer 17"><path class="cls-20" d="M223.37,75.8A37.2,37.2,0,0,0,186.17,113v62.62h74.4V113A37.2,37.2,0,0,0,223.37,75.8Z"/><circle class="cls-6" cx="223.37" cy="114.32" r="30.96" transform="translate(60.42 305.14) rotate(-76.61)"/><path class="cls-8" d="M224.85,114.32a1.48,1.48,0,1,1-1.48-1.48A1.49,1.49,0,0,1,224.85,114.32Z"/><circle class="cls-38" cx="223.37" cy="114.32" r="25.73" transform="translate(104.01 335.04) rotate(-88.7)"/><path class="cls-23" d="M249.1,114.32a25.73,25.73,0,0,1-46.31,15.44,25.74,25.74,0,0,0,34.26-24.29A25.62,25.62,0,0,0,231.9,90,25.78,25.78,0,0,1,249.1,114.32Z"/><path class="cls-20" d="M224.85,91.05a1.49,1.49,0,1,1-1.48-1.48A1.49,1.49,0,0,1,224.85,91.05Z"/><path class="cls-20" d="M224.85,136.72a1.49,1.49,0,1,1-1.48-1.48A1.49,1.49,0,0,1,224.85,136.72Z"/><circle class="cls-20" cx="246.2" cy="113.89" r="1.48"/><circle class="cls-20" cx="200.53" cy="113.89" r="1.48"/><polygon class="cls-20" points="233.63 124.71 223.23 113.98 229.92 94.15 230.61 94.38 224.07 113.79 234.16 124.2 233.63 124.71"/><rect class="cls-20" x="222.11" y="108.93" width="16.32" height="0.37" transform="translate(-20.3 155.42) rotate(-35.82)"/><path class="cls-2" d="M395.52,173.88h-210a8.67,8.67,0,0,0,0,17.34h210a8.67,8.67,0,1,0,0-17.34Z"/><rect class="cls-4" x="189.77" y="191.22" width="12.24" height="12.24"/><rect class="cls-4" x="379.03" y="191.22" width="12.24" height="12.24"/><rect class="cls-39" x="265.16" y="92.05" width="14.81" height="81.97"/><rect class="cls-38" x="265.16" y="108.11" width="14.81" height="51.87"/><rect class="cls-36" x="277.85" y="108.11" width="2.12" height="51.87"/><path class="cls-40" d="M275.21,166.51a2.56,2.56,0,1,1-2.56-2.45A2.51,2.51,0,0,1,275.21,166.51Z"/><rect class="cls-41" x="267.8" y="131.98" width="9.52" height="2.12"/><rect class="cls-42" x="307.81" y="90.36" width="16.57" height="83.67"/><rect class="cls-43" x="322.26" y="90.36" width="2.12" height="83.67"/><rect class="cls-38" x="310.27" y="104.77" width="11.64" height="54.84"/><rect class="cls-6" x="311.33" y="166.23" width="9.52" height="2.46"/><rect class="cls-6" x="311.33" y="95.69" width="9.52" height="2.46"/><rect class="cls-44" x="279.95" y="101.83" width="16.57" height="72.19"/><rect class="cls-38" x="282.42" y="114.27" width="11.64" height="47.31"/><rect class="cls-40" x="283.48" y="167.3" width="9.52" height="2.12"/><rect class="cls-40" x="283.48" y="106.44" width="9.52" height="2.12"/><rect class="cls-45" x="296.52" y="98.83" width="11.28" height="75.2"/><rect class="cls-38" x="296.52" y="125.7" width="11.28" height="21.44"/><rect class="cls-41" x="296.52" y="106.21" width="11.28" height="1.69"/><rect class="cls-41" x="296.52" y="164.95" width="11.28" height="1.69"/><rect class="cls-36" x="305.69" y="125.7" width="2.12" height="21.44"/><rect class="cls-16" x="305.69" y="106.21" width="2.12" height="1.69"/><rect class="cls-16" x="305.69" y="164.95" width="2.12" height="1.69"/><path class="cls-29" d="M358.39,97h10.32a5,5,0,0,1,5,5v47.82a0,0,0,0,1,0,0H353.43a0,0,0,0,1,0,0V101.95A5,5,0,0,1,358.39,97Z"/><path class="cls-29" d="M363.32,128.33H355a12.73,12.73,0,0,1-12.72-12.72v-3.84a2.66,2.66,0,1,1,5.32,0v3.84A7.41,7.41,0,0,0,355,123h8.28a2.66,2.66,0,1,1,0,5.32Z"/><path class="cls-29" d="M372.8,122.77h-8.28a2.66,2.66,0,1,1,0-5.32h8.28a7.4,7.4,0,0,0,7.39-7.39v-3.85a2.66,2.66,0,1,1,5.32,0v3.85A12.72,12.72,0,0,1,372.8,122.77Z"/><path class="cls-5" d="M373.68,118.72s8.23-.22,8.23-8.11c0-1.11-.12-6.24,0-6.5s.18-.52.91-.56c1.66.09,1.34,6,1.34,6.9s-1,10.75-10.51,10.75"/><path class="cls-46" d="M365.83,97a4.32,4.32,0,0,1,4.44,4.42c0,10.73.21,40.23.21,40.23h-2.05s.17-28.27.17-40.23A4.05,4.05,0,0,0,364.25,97Z"/><path class="cls-47" d="M364.19,97c1.63,0,2,4.41,2,4.41l.18,39.79H365.1l-.17-39.79S364.81,97,363.21,97,362.56,97,364.19,97Z"/><path class="cls-48" d="M362.57,97c-1.63,0-2,4.42-2,4.42v39.79h1.28V101.4S362,97,363.56,97Z"/><path class="cls-49" d="M361.22,97a4.32,4.32,0,0,0-4.44,4.42c0,10.73-.21,40.23-.21,40.23h2.05s-.17-28.27-.17-40.23A4.05,4.05,0,0,1,362.8,97Z"/><path class="cls-39" d="M353.72,124.27s-8.23-.22-8.23-8.1c0-1.12.12-6.24,0-6.5s-.18-.53-.91-.56c-1.65.08-1.34,6-1.34,6.9s1,10.74,10.51,10.74"/><path class="cls-50" d="M381.28,134.2H345.83a4.76,4.76,0,1,0,0,9.51h35.45A4.76,4.76,0,0,0,386,139h0A4.76,4.76,0,0,0,381.28,134.2Z"/><path class="cls-51" d="M345,143.71l2.3,23.63a7.23,7.23,0,0,0,7.2,6.53h18.15a7.22,7.22,0,0,0,7.2-6.53l2.3-23.63Z"/><polygon class="cls-52" points="344.98 143.71 345.29 146.84 381.83 146.84 382.13 143.71 344.98 143.71"/></g><g id="Layer_11" data-name="Layer 11"><path class="cls-34" d="M763.47,399.81h-25.7a7.15,7.15,0,0,0-7.15,7.15v63.28h40V407A7.15,7.15,0,0,0,763.47,399.81Z"/><path class="cls-35" d="M737.77,399.81a7.15,7.15,0,0,0-7.15,7.15v54.73l33-61.88Z"/><circle class="cls-36" cx="750.62" cy="446.12" r="13.04" transform="translate(-66.07 755.09) rotate(-51.45)"/><path class="cls-37" d="M759.25,446.12a8.63,8.63,0,1,1-8.63-8.63A8.64,8.64,0,0,1,759.25,446.12Z"/><path class="cls-36" d="M757.14,417.41a6.52,6.52,0,1,1-6.52-6.52A6.52,6.52,0,0,1,757.14,417.41Z"/><path class="cls-37" d="M754.93,417.41a4.31,4.31,0,1,1-4.31-4.31A4.31,4.31,0,0,1,754.93,417.41Z"/></g><g id="Layer_12" data-name="Layer 12"><path class="cls-35" d="M337,354.49h9.92a0,0,0,0,1,0,0v79.3a2.43,2.43,0,0,1-2.43,2.43h-5.06a2.43,2.43,0,0,1-2.43-2.43v-79.3A0,0,0,0,1,337,354.49Z" transform="translate(683.95 790.7) rotate(180)"/><rect class="cls-7" x="337.02" y="381.88" width="9.92" height="4.5" transform="translate(683.95 768.27) rotate(180)"/><rect class="cls-37" x="340.84" y="389.55" width="2.28" height="22.45" rx="0.56" transform="translate(683.95 801.56) rotate(180)"/><path class="cls-7" d="M337,436.22h9.92L344,447.37A2.13,2.13,0,0,1,342,449h0a2.14,2.14,0,0,1-2.07-1.6Z"/><path class="cls-8" d="M341.44,449h1.08a.52.52,0,0,1,.52.52v2.12a0,0,0,0,1,0,0h-2.13a0,0,0,0,1,0,0v-2.12A.52.52,0,0,1,341.44,449Z" transform="translate(683.95 900.58) rotate(180)"/><path class="cls-35" d="M330.56,441.1H353.4A3.64,3.64,0,0,1,357,445l-1.77,25.24H328.7L326.93,445A3.64,3.64,0,0,1,330.56,441.1Z"/><path class="cls-34" d="M326.93,445l1.77,25.25h20.15L333,441.09h-2.47A3.65,3.65,0,0,0,326.93,445Z"/></g><g id="Layer_2" data-name="Layer 2"><line class="cls-53" x1="5" y1="706.88" x2="1085" y2="706.88"/></g><g id="Layer_4" data-name="Layer 4"><rect class="cls-34" x="406.16" y="217.33" width="322.46" height="209.06" rx="6.99"/><path class="cls-54" d="M645,460H489.82a5.1,5.1,0,0,0-5.1,5.1h0a5.1,5.1,0,0,0,5.1,5.1H645a5.1,5.1,0,0,0,5.1-5.1h0A5.1,5.1,0,0,0,645,460Z"/><polygon class="cls-17" points="613.92 426.39 520.85 426.39 509.63 460.04 625.15 460.04 613.92 426.39"/><polygon class="cls-36" points="520.85 426.39 613.92 426.39 616.02 432.69 518.75 432.69 520.85 426.39"/><path d="M587.37,413.13h-40c-.84,0-1.51-.91-1.51-2s.67-2,1.51-2h40c.84,0,1.51.91,1.51,2S588.21,413.13,587.37,413.13Z"/><rect class="cls-17" x="416.41" y="226.23" width="301.96" height="184.2"/><rect class="cls-55" x="642.67" y="252.13" width="59.01" height="41.91" rx="3.68"/><rect class="cls-56" x="642.67" y="237.56" width="59.01" height="7.8" rx="3.68"/><line class="cls-55" x1="642.67" y1="301" x2="701.68" y2="301"/><line class="cls-55" x1="642.67" y1="307.43" x2="701.68" y2="307.43"/><line class="cls-55" x1="642.67" y1="313.87" x2="701.68" y2="313.87"/><rect class="cls-55" x="572.81" y="252.13" width="59.01" height="41.91" rx="3.68"/><rect class="cls-56" x="572.81" y="237.56" width="59.01" height="7.8" rx="3.68"/><line class="cls-55" x1="572.81" y1="301" x2="631.82" y2="301"/><line class="cls-55" x1="572.81" y1="307.43" x2="631.82" y2="307.43"/><line class="cls-55" x1="572.81" y1="313.87" x2="631.82" y2="313.87"/><rect class="cls-55" x="502.95" y="252.13" width="59.01" height="41.91" rx="3.68"/><rect class="cls-56" x="502.95" y="237.56" width="59.01" height="7.8" rx="3.68"/><line class="cls-55" x1="502.95" y1="301" x2="561.96" y2="301"/><line class="cls-55" x1="502.95" y1="307.43" x2="561.96" y2="307.43"/><line class="cls-55" x1="502.95" y1="313.87" x2="561.96" y2="313.87"/><rect class="cls-55" x="433.09" y="252.13" width="59.01" height="41.91" rx="3.68"/><rect class="cls-56" x="433.09" y="237.56" width="59.01" height="7.8" rx="3.68"/><line class="cls-55" x1="433.09" y1="301" x2="492.1" y2="301"/><line class="cls-55" x1="433.09" y1="307.43" x2="492.1" y2="307.43"/><line class="cls-55" x1="433.09" y1="313.87" x2="492.1" y2="313.87"/><rect class="cls-55" x="433.09" y="337.18" width="59.01" height="41.91" rx="3.68"/><rect class="cls-56" x="433.09" y="322.61" width="59.01" height="7.8" rx="3.68"/><line class="cls-55" x1="433.09" y1="386.05" x2="492.1" y2="386.05"/><line class="cls-55" x1="433.09" y1="392.49" x2="492.1" y2="392.49"/><line class="cls-55" x1="433.09" y1="398.92" x2="492.1" y2="398.92"/><rect class="cls-55" x="502.95" y="337.18" width="59.01" height="41.91" rx="3.68"/><rect class="cls-56" x="502.95" y="322.61" width="59.01" height="7.8" rx="3.68"/><line class="cls-55" x1="502.95" y1="386.05" x2="561.96" y2="386.05"/><line class="cls-55" x1="502.95" y1="392.49" x2="561.96" y2="392.49"/><line class="cls-55" x1="502.95" y1="398.92" x2="561.96" y2="398.92"/><rect class="cls-55" x="572.81" y="337.18" width="59.01" height="41.91" rx="3.68"/><rect class="cls-56" x="572.81" y="322.61" width="59.01" height="7.8" rx="3.68"/><line class="cls-55" x1="572.81" y1="386.05" x2="631.82" y2="386.05"/><line class="cls-55" x1="572.81" y1="392.49" x2="631.82" y2="392.49"/><line class="cls-55" x1="572.81" y1="398.92" x2="631.82" y2="398.92"/><rect class="cls-55" x="642.67" y="337.18" width="59.01" height="41.91" rx="3.68"/><rect class="cls-56" x="642.67" y="322.61" width="59.01" height="7.8" rx="3.68"/><line class="cls-55" x1="642.67" y1="386.05" x2="701.68" y2="386.05"/><line class="cls-55" x1="642.67" y1="392.49" x2="701.68" y2="392.49"/><line class="cls-55" x1="642.67" y1="398.92" x2="701.68" y2="398.92"/><path class="cls-57" d="M467.32,341.17c3,.47,7.12,1.54,6.93,5.39-.06,1.65-.86,3.15-.74,4.69s1.32,2.74,1.87,4.34c1.18,3.53-3.27,6.51-6.48,5.49a3.6,3.6,0,0,1-2.11-4.31c.23-1.35,1.41-3.1.2-4.15a2.85,2.85,0,0,0-2.07-.25c-2.43.4-4.3-.64-4.75-3.17-.08-2.47-2.74-1.7-4.4-1.26a4.89,4.89,0,0,1-2.52,0c-1.88-.53-2.21-3.13-.9-4.39.91-1,2.26-1,3.41-1.32,1.11-.45,1.22-1.89,2.06-2.72,1.71-2,4.81-1.75,6.68-.2.63.49,1.08,1.22,1.87,1.47-.8-.22-1.29-.95-1.93-1.4-1.82-1.42-4.86-1.56-6.36.35-.79.84-.94,2.42-2.19,2.9-.42.14-.81.18-1.19.28a3.65,3.65,0,0,0-2,1c-1,1-.77,3.11.7,3.48s3-.45,4.62-.55a2.43,2.43,0,0,1,2.41,1c.4.82.32,1.55.71,2.31.61,1.57,2.2,1.78,3.71,1.56,1.28-.26,3,0,3.3,1.58.24,1.28-.49,2.5-.72,3.64-.77,3.88,3.31,4.69,5.91,2.68a3.42,3.42,0,0,0,1.52-3.84c-.42-1.44-1.68-2.73-1.76-4.47s.73-3.19.83-4.74c.3-3.68-3.71-4.82-6.62-5.37Z"/><path class="cls-57" d="M457.4,365.72c0,2-2.41,2.94-4,3.58-6.83,1.77-9.76,2.32-11.76,9.81a17.66,17.66,0,0,1,.56-2.77c2.25-7.6,8.05-5.86,13.6-8.56a2.66,2.66,0,0,0,1.62-2.06Z"/><path class="cls-57" d="M468.26,362.32c.17,1.94.51,4.16,2.09,5.43,3.36,2.24,8.16,2.13,11.15,5.08,1.45,1.62,1.93,3.69,2.94,5.47-1.23-1.65-1.89-3.72-3.31-5.12-3.12-2.7-7.88-2.51-11.17-5-1.64-1.49-1.87-3.83-1.7-5.89Z"/><path class="cls-57" d="M470.21,370.12c-1.73,6.84-10.47,9.15-14.82,3.28a7.71,7.71,0,0,1-1.17-2.39,9,9,0,0,0,3.4,3.83c4.68,3,10.62.19,12.59-4.72Z"/><path class="cls-57" d="M452.64,349.27c-.16,3.71-.32,7.8,1.48,11.11,2,3.28,6.36,4.23,9.93,3.26-3.57,1.56-8.43.61-10.53-2.9-1.89-3.53-1.58-7.69-.88-11.47Z"/><path class="cls-57" d="M460.65,357c.41,1.77-1.86,3.19-3.39,2.51a4.83,4.83,0,0,0,3.39-2.51Z"/><path class="cls-57" d="M461,344.19a3.48,3.48,0,0,1,5,2.54,2.91,2.91,0,0,0,.19,1.08c.43.64,1.25.32,2,.38a2.49,2.49,0,0,1,2,1.83c.59,1.61,0,3.35.81,4.83a2.08,2.08,0,0,0,1.89,1.23,2.14,2.14,0,0,1-2.18-1.05c-1.35-1.76,0-5.46-2.57-6.15-.79,0-2,.21-2.52-.77s0-1.6-.51-2.39a3.49,3.49,0,0,0-4.1-1.53Z"/><path class="cls-57" d="M662.26,272.53l2.44,5c1.64,3.56,3.06,6.82,7.58,6.26a23.79,23.79,0,0,0,5.4-1.21c-10.91,5.22-12.24-1.18-15.42-10.09Z"/><path class="cls-57" d="M687.64,257.38c6.2,3.42,10,7.2,5.86,14.25a36.91,36.91,0,0,1-3.45,4.75c1.07-1.63,2.19-3.24,3.08-4.94,3.66-6.91-.19-10.06-5.49-14.06Z"/><path class="cls-57" d="M688.34,275.14c1.6,2,3.41,4,3.89,6.61.44,4.26-2.56,8.28-4.45,11.9.59-1.6,1.31-3.14,2-4.69,2.91-6.44,2.31-8-1.41-13.82Z"/><path class="cls-57" d="M666.44,269.94c1.33,2.49,2,5.61,3.75,7.76,1,1.23,2.49.3,3.72,0a34.24,34.24,0,0,0,4-1.71,17.69,17.69,0,0,1-3.82,2.21c-1.08.36-2.23,1.06-3.39.68-1.82-.85-2.46-3.06-3-4.73-.45-1.4-.89-2.79-1.26-4.22Z"/><path class="cls-57" d="M660.38,258.73a3.05,3.05,0,0,0,3.06,1.94c3.5-.79,5.38-.73,6.72,3.1a8.58,8.58,0,0,0,2.74,2.86,7.08,7.08,0,0,1-3.21-2.59c-.41-.59-.6-1.28-1-1.78-1.15-1.9-3.42-1.22-5.28-1.06a3.08,3.08,0,0,1-3.08-2.47Z"/><path class="cls-57" d="M685.9,271.85c.32-4.26-4.72-8.94-8.7-6.14-4.2,3.23-.91,8.72-6.94,10.78a9,9,0,0,0,2.61-2.06c1.32-1.88.89-4.35,1.8-6.45a6.51,6.51,0,0,1,2.13-2.82,5.5,5.5,0,0,1,5.17-.48c2.49,1.32,4.43,4.3,3.93,7.17Z"/><path class="cls-57" d="M662.93,255.71c2.05,3,6.74.57,8.7,3.77.78,1.1.91,2.42,1.83,3.39a10.41,10.41,0,0,0,1.45,1.26,7.53,7.53,0,0,1-1.69-1c-1-.84-1.39-2.25-2.13-3.24-1.91-2.79-6.76-.72-8.16-4.16Z"/><path class="cls-57" d="M685.68,273.18c1.61-2,3.21-4.12,3.63-6.66s-2.45-4.26-4.32-5.63c7.33,2.87,5.79,8,.69,12.29Z"/><path class="cls-57" d="M666.31,253.49c1.86,1.55,4.32.86,6.33,2.2,1.81,1.41,2,4.14,4.24,5.12a4.63,4.63,0,0,1-2.73-2c-.66-.86-1-1.95-1.91-2.56-1.73-1.16-4.58-.86-5.93-2.77Z"/><path class="cls-57" d="M678.31,281.61c2.68,3.75-.09,8.65-2.77,11.56,1.84-3.58,4.43-7.45,2.77-11.56Z"/><path class="cls-57" d="M677.12,269.7c1.09,3.84,2,6.3,6.56,4.65-4.14,2.95-6.75-.41-6.56-4.65Z"/><path class="cls-57" d="M679.62,267.61c1,1,2.33.5,3.57,1.07a4.27,4.27,0,0,1,2.29,3.11,7,7,0,0,0-2.58-2.47c-1-.47-2.8-.4-3.28-1.71Z"/><path class="cls-57" d="M686,256.72c-.26-.26-2.59-2.33-2.4-1.26,0,.28.27.62.19.94s-.58.19-.69.13l-1.65-.79a.39.39,0,0,0-.16,0s.12-.11.11-.15c.36.53,1.12,1,1.58,1.56a.35.35,0,0,1-.26.57c-.79,0-1.37-.42-2-.43,0,0,.09-.09.09-.13h0c.33.5,1.16.81,1.63,1.21.14.13.26.17.29.47a.4.4,0,0,1-.28.35c-.3.13-.83-.11-1,0a.16.16,0,0,0,0,.25,6.51,6.51,0,0,0,2.9.87c-.79,0-4.19,0-3.16-1.47.44-.31.75-.05,1.13-.15,0,0,0,0-.07.13s0,0-.1,0l-.25-.15c-.6-.4-1.27-.58-1.65-1.28-.3-.94.87-.82,1.4-.63a5,5,0,0,0,1.13.27l-.26.57c-.51-.72-1.48-1-1.69-2a.51.51,0,0,1,.19-.4c.45-.29.93.12,1.32.3l1.06.59c.26.13.06,0,0,.18,0-.31-.43-1.25.21-1.43a.85.85,0,0,1,.71.17,7.5,7.5,0,0,1,1.76,1.75Z"/><path class="cls-57" d="M665.89,269.2c-.21-.88-.26-2.06-.92-2.67-.3.05-.32.69-.52,1a.35.35,0,0,1-.39.16.63.63,0,0,1-.35-.36l-.56-1.09c-.07-.09-.28-.62-.38-.66a.2.2,0,0,0,.18,0,2.48,2.48,0,0,0,0,.36c0,.44.8,2.58-.27,2.13-.6-.48-.75-1-1.24-1.49-.18-.16-.08,0,.06-.13,0,.58.51,1.48.59,2.15,0,.14-.11.5-.34.48a.89.89,0,0,1-.66-.38.84.84,0,0,0-.35-.28c-.09,0-.18.05-.17.19a6.53,6.53,0,0,0,1.77,2.46,5.33,5.33,0,0,1-2.16-2.42.59.59,0,0,1,.55-.68c.54,0,.62.42,1,.57,0,0,0,0-.14.07s0,0-.08-.06c-.19-.65-1.38-2.65,0-2.71.8.24,1.08,1.25,1.64,1.67l-.56.3c0-.89-.54-1.73-.12-2.63.29-.41.86-.09,1,.27l.26.57.49,1.12c0,.08.12.17,0,.11s-.12,0-.14,0c.22-.37.42-1.24,1.05-1a.94.94,0,0,1,.47.57,7.71,7.71,0,0,1,.32,2.46Z"/><path class="cls-57" d="M665.82,270a5.33,5.33,0,0,1-3.44,1.76,5.38,5.38,0,0,1,3.44-1.76Z"/><path class="cls-57" d="M687.21,257.15a6.27,6.27,0,0,1-2.33,3.47,6.21,6.21,0,0,1,2.33-3.47Z"/><path class="cls-57" d="M682,271.21a1.14,1.14,0,0,1-1.35,1.56,11.81,11.81,0,0,1,1.35-1.56Z"/><path class="cls-57" d="M679.21,267.7a1.92,1.92,0,0,1-2,1.87,7.74,7.74,0,0,1,2-1.87Z"/><path class="cls-57" d="M528.47,252.32c.52,13.32.6,28,.21,41.33-.53-13.33-.6-28-.21-41.33Z"/><path class="cls-57" d="M531.72,252.48c.4,13.25.54,27.83.12,41.08-.52-13.68-.65-27.39-.12-41.08Z"/><path class="cls-57" d="M527.24,283.31a162.67,162.67,0,0,1-21.52.05,161,161,0,0,1,21.52-.05Z"/><path class="cls-57" d="M526.53,269.31a157,157,0,0,1-21.25,0,158.62,158.62,0,0,1,21.25,0Z"/><path class="cls-57" d="M526.62,266.77a167.86,167.86,0,0,1-21.16.17,146.53,146.53,0,0,1,21.16-.17Z"/><path class="cls-57" d="M505.81,285.71a154.77,154.77,0,0,1,21,0,153.16,153.16,0,0,1-21,0Z"/><path class="cls-57" d="M520.62,281.94c0-.53-.88-9.57-.91-9.7a8,8,0,0,0-.13-1s0,0-.17-.06c-.78,0-1.86-.05-2.59,0-.37.53-.08,2.21-.19,3a19.07,19.07,0,0,1-.34-2.72.75.75,0,0,1,.32-.64,1.51,1.51,0,0,1,.63-.14l1.62-.12c.43,0,1.09-.12,1.31.37a4.69,4.69,0,0,1,.22,1.18,48.45,48.45,0,0,1,.23,9.78Z"/><path class="cls-57" d="M524.28,253.19c-.6.14-1.22.24-1.83.36-.38.07-.34,0-.32.38l.06.93a79.39,79.39,0,0,1-.07,11.12,77.89,77.89,0,0,1-.47-11.12l0-.93a.76.76,0,0,1,.18-.58,8,8,0,0,1,2.42-.16Z"/><path class="cls-57" d="M512.18,265.15c-.3-2.29-.4-5.61-.5-7.95l0-1c-.1-1.85-2.49-1.25-3.79-1.46a18.82,18.82,0,0,0-2-.14,12.06,12.06,0,0,1,2-.17c1.36.07,2.92-.57,4,.64a3.61,3.61,0,0,1,.47,2.09,50.66,50.66,0,0,1-.18,8Z"/><path class="cls-57" d="M513,282.31c-.57-3-.71-6.7-1.12-9.67-1.66-.1-3.45-.14-5.13-.16a30.58,30.58,0,0,1,3.82-.31c.57.06,1.52-.36,1.84.29a37.41,37.41,0,0,1,.59,9.85Z"/><path class="cls-57" d="M524.62,253.73a50.93,50.93,0,0,1,.45,11.83,47.34,47.34,0,0,1-.45-11.83Z"/><path class="cls-57" d="M525.19,282c-.37-2.47-.39-4.95-.63-7.41-.65-.2-2.38-.15-3.44-.28a9.55,9.55,0,0,1,3.65-.3.64.64,0,0,1,.39.32,27,27,0,0,1,0,7.67Z"/><path class="cls-57" d="M518.2,254.81a54.07,54.07,0,0,1-5,10.42,40.09,40.09,0,0,1,5-10.42Z"/><path class="cls-57" d="M516.58,282.4c-.66-2.28-.58-4.78-.93-7.07,0-.15-.53-.13-.9-.17s-.81-.07-1.22-.14c.58-.12,1.23-.21,1.82-.28a.78.78,0,0,1,.76.3,7,7,0,0,1,.46,2.5,32.85,32.85,0,0,1,0,4.86Z"/><path class="cls-57" d="M521.16,256.69a35.25,35.25,0,0,1-4.08,9.17,34.77,34.77,0,0,1,4.08-9.17Z"/><path class="cls-57" d="M519.82,293.73c-.35-1-.11-2.23-.75-3a1.23,1.23,0,0,0-.84-.09,25.52,25.52,0,0,1-4.45-.08,24.5,24.5,0,0,1,4.42-.62c2.31-.32,1.77,2.33,1.62,3.75Z"/><path class="cls-57" d="M525.07,293.56a47.9,47.9,0,0,1-.71-5.79s0-.08-.18-.11a19.41,19.41,0,0,0-2.15-.26,6.52,6.52,0,0,1,2.18-.29.78.78,0,0,1,.8.77,17.74,17.74,0,0,1,.06,5.68Z"/><path class="cls-57" d="M521.91,287.56a14.14,14.14,0,0,1,.16,6.34,14.14,14.14,0,0,1-.16-6.34Z"/><path class="cls-57" d="M507.2,288.19c1.2-.13,2.54-.19,3.75-.22h.62c.3,0,.76,0,.87.34a2.76,2.76,0,0,1,.06.73,20.75,20.75,0,0,1-.42,4.37,21.35,21.35,0,0,1-.27-4.37v-.51a.12.12,0,0,0,.07.07c-1.47-.08-3.18-.18-4.69-.4Z"/><path class="cls-57" d="M518.78,254.94a2.09,2.09,0,0,1,2.17.92,2.12,2.12,0,0,1-2.17-.92Z"/><path class="cls-57" d="M542.79,257.4c-.17,1.84,1.8,2.26,3.21,2.72a3.29,3.29,0,0,1,2.27,4.1c-.31,1.48-1.88,2.71-1.06,4.21a3.14,3.14,0,0,0,4,1.18,3.23,3.23,0,0,1-4.42-.91c-1.12-1.54.49-3.23.85-4.66a2.77,2.77,0,0,0-1.81-3.43c-1.33-.52-3.53-1.3-3-3.21Z"/><path class="cls-57" d="M551.08,270.56a10.61,10.61,0,0,1-1,4.42c-.64,1.43-1.29,2.93-2.74,3.77s-3.26-.33-4.47-1.23a44.22,44.22,0,0,1-3.42-3c1.27.81,2.49,1.71,3.73,2.54,1.12.66,2.58,1.67,3.84,1.05s1.91-2.16,2.57-3.37a14.5,14.5,0,0,0,1.53-4.2Z"/><path class="cls-57" d="M551.88,268.9c1.35-2.71,1.08-5.24-1.32-7.13a2.3,2.3,0,0,1-.49-.57,2.44,2.44,0,0,1-.24-1.42,3.55,3.55,0,0,0-2.15-3.8,4.5,4.5,0,0,0-4.68.13,3.83,3.83,0,0,1,2.32-1.07c2.18-.16,4.75,1.14,5.2,3.44.16.8-.2,1.7.15,2.39,2.64,2.4,3.33,5,1.21,8Z"/><path class="cls-57" d="M540.58,277.57c.58,1.56,1.44,3.38.85,5.12-1.27,3.59-3.41,6.77-5.29,10a31.8,31.8,0,0,1,1.63-3.79c.85-1.76,2.38-4.67,3.07-6.46.61-1.59,0-3.23-.26-4.91Z"/><path class="cls-57" d="M551.92,281.61a28.88,28.88,0,0,1,3.41,11.29c-1.36-3.73-2.34-7.47-3.41-11.29Z"/><path class="cls-57" d="M542,258c-.59,3.7.3,8.37,5.11,6.71a4.17,4.17,0,0,1-2.79.76C541,265,540.8,260.35,542,258Z"/><path class="cls-57" d="M552.08,270.56a19.21,19.21,0,0,1-.33,10.09c-.08-3.41.29-6.68.33-10.09Z"/><path class="cls-57" d="M542.46,256.27c-2.78,1.31-3.49,5.74-1,7.68a3.16,3.16,0,0,1-1.81-1.66c-1.06-2.21.18-5.76,2.82-6Z"/><path class="cls-57" d="M537.92,271.23a6.28,6.28,0,0,0-1.29-1.91,4,4,0,0,0-.21,1.6,4.1,4.1,0,0,0,2.59,3.37,3.42,3.42,0,0,1-2.21-1c-2.54-2.23,0-7.75,1.12-2Z"/><path class="cls-57" d="M542.84,280.94a37.54,37.54,0,0,1,7.86.1,15.29,15.29,0,0,1-7.86-.1Z"/><path class="cls-57" d="M541,272.94a16,16,0,0,1,6,3.11,16.21,16.21,0,0,1-6-3.11Z"/><path class="cls-57" d="M540.63,272.63a5.47,5.47,0,0,0-2-2.49,6.84,6.84,0,0,0-.27,1.6,2.59,2.59,0,0,1-.25-1.93.62.62,0,0,1,.59-.32,3,3,0,0,1,2,3.14Z"/><path class="cls-57" d="M544.92,273a5.74,5.74,0,0,1,3.33,2.25,5.73,5.73,0,0,1-3.33-2.25Z"/><path class="cls-57" d="M543.34,269.19a8.64,8.64,0,0,1-2.09,3.17,3.82,3.82,0,0,1,2.09-3.17Z"/><path class="cls-57" d="M546.71,269.56a5.93,5.93,0,0,1-1.88,3.07,3.88,3.88,0,0,1,1.88-3.07Z"/><path class="cls-57" d="M544.74,265.8a1.52,1.52,0,0,1-.74,2.43c.25-1,.45-1.46.74-2.43Z"/><path class="cls-57" d="M545.09,262.61a.92.92,0,0,1-1.34,1,2,2,0,0,1,1.34-1Z"/><path class="cls-57" d="M591.15,257.56c.85,3,6.67.47,3.62-1.72-.59-.25-1.32,0-2-.09a1.63,1.63,0,0,1-.7-.38,2.46,2.46,0,0,0-2.29-.52,3.7,3.7,0,0,0-2.73,3.76,4.53,4.53,0,0,1-1.31,3.95,3.89,3.89,0,0,0-1.12,3.45c.4,1.77,2.34,2.6,3.66,1.19a3,3,0,0,1,1.92-1,4,4,0,0,0,.64,0,1.74,1.74,0,0,0,1.33-1.81,2.44,2.44,0,0,0-.5-1.17,6.06,6.06,0,0,1-.36-4.05,6.16,6.16,0,0,0,.59,3.91,2.73,2.73,0,0,1,.61,1.28A2.12,2.12,0,0,1,591,266.6c-.54.12-.93,0-1.29.22-.81.39-1.29,1.31-2.24,1.59-2.17.66-3.85-1.76-3.5-3.72s2.2-2.94,2.48-4.76c0-1.33-.14-2.93.84-4.07,1.17-1.55,3.64-2.39,5.19-.9a1.18,1.18,0,0,0,1.07.33,2,2,0,0,1,2.4,1.3,1.56,1.56,0,0,1-.18,1.46c-1.13,1.47-4.12,1.58-4.57-.49Z"/><path class="cls-57" d="M584.26,276.91c.18,2-.08,4.19.61,6.09,1.6,2.67,5.49,2.34,8.19,1.95,3.75-.64,4.77-3.12,4.38-6.64,1.46,5.51-2.45,7.71-7.43,7.59-6.53-.22-6.25-3.65-5.75-9Z"/><path class="cls-57" d="M586.74,268.77c.21,2.67.06,5.37.37,8A3.63,3.63,0,0,0,588,279c1.26,1,3.34.64,4.87.34a12.81,12.81,0,0,0,4.76-2.26,10.62,10.62,0,0,1-4.62,2.77c-1.78.46-3.85.9-5.49-.34a4.2,4.2,0,0,1-1.07-2.65,51,51,0,0,1,.29-8.1Z"/><path class="cls-57" d="M597,284.21c.9,3.64-2.13,4.7-5.12,4.74-2,0-4.35-.06-5.8-1.64a2.45,2.45,0,0,1-.47-2,2.45,2.45,0,0,0,.73,1.73c1.48,1.27,3.65,1.18,5.51,1.17,2.91-.1,5.31-.53,5.15-4Z"/><path class="cls-57" d="M584.55,267.63c-1.47,2.2-3.44,4.89-3.25,7.6.17,1.18,1.45,1.27,2.26.54.44-.35.88-.75,1.34-1.1a7.38,7.38,0,0,1-1.86,1.92,1.66,1.66,0,0,1-2.38-1.21c-.42-2.92,1.85-5.91,3.89-7.75Z"/><path class="cls-57" d="M591.26,268.61c.81,3.79-1.9,8.45,4.39,5.14-1,1-2.35,2.05-3.86,1.62-1.71-.58-1-2.81-.9-4l.37-2.72Z"/><path class="cls-57" d="M592.82,265.69a8.18,8.18,0,0,1,3.43,7.17,25.06,25.06,0,0,0-3.43-7.17Z"/><path class="cls-57" d="M595.48,258.63c1.34,2.21.81,7.19-2.66,6.29,3.07-.24,2.83-4,2.66-6.29Z"/><path class="cls-57" d="M595.64,288.52a7.73,7.73,0,0,1,.25,4.66,7.66,7.66,0,0,1-.25-4.66Z"/><path class="cls-57" d="M586.52,288.77a7.51,7.51,0,0,1,.92,4.5,7.51,7.51,0,0,1-.92-4.5Z"/><path class="cls-57" d="M596.23,273.36a5.48,5.48,0,0,1,1.72,3.52,5.48,5.48,0,0,1-1.72-3.52Z"/><path class="cls-57" d="M596.67,273.05a7.48,7.48,0,0,1,1.48-2.19c.57-.17.57.56.47.87a3.14,3.14,0,0,1-.49,1.15.26.26,0,0,1-.36.07.27.27,0,0,1,0-.39,10.44,10.44,0,0,1,1.32-1.34c.29-.25.84-.33,1,.14s-.24.92-.46,1.33a5.42,5.42,0,0,1-.7,1l-.5-.48,1.06-.94c.35-.24.62-.68,1.2-.55a.56.56,0,0,1,.31.66c-.2,1-1.11,1.64-1.65,2.31l-.24-.39c.46,0,1.69-.35,1.76.46a.85.85,0,0,1-.34.62,5.8,5.8,0,0,1-2.11,1c1.06-.46,3.64-2.25.72-1.57a.25.25,0,0,1-.24-.39c.41-.67.91-1,1.23-1.63a1.3,1.3,0,0,0,.21-.56.24.24,0,0,0,.1.11c.13,0,0,0,0,.06-.34.22-1.18,1-1.51,1.3s-.79-.2-.48-.5a5.15,5.15,0,0,0,.62-.91c.23-.35.47-.7.42-.79a.24.24,0,0,0,.09.08s.1,0,.07,0a2.25,2.25,0,0,0-.58.42l-.86.81-.36-.36a2.67,2.67,0,0,0,.51-1.32,10.14,10.14,0,0,0-1.61,1.85Z"/><path class="cls-57" d="M592.82,262.27a2,2,0,0,1,1.47.61.86.86,0,0,1-1.47-.61Z"/><path class="cls-57" d="M611,256.81c-.3,2.18,2.24,2.41,3.67,3.24a2.74,2.74,0,0,1,1.26,2.46c-.11,1.84-2,3.12-1.86,4.9a1.08,1.08,0,0,0,1.82.9,6.88,6.88,0,0,1,1.05-1c.88-.58,1.55.6,1.95,1,1.06,1.14,2-.14,2-1.29a3.45,3.45,0,0,0-.65-2.31l-.9-1a2.65,2.65,0,0,1-.59-2.77c1.4-5-3.51-6.56-7.5-5.28,4.29-1.72,9.32,0,8.07,5.41a2,2,0,0,0,.47,2.21l.94,1c1.16,1.39,1.35,4.69-.85,5.14-1.28,0-1.8-1.28-2.28-1.6-.15-.14-.43,0-.76.39l-.47.47a1.69,1.69,0,0,1-2.87-1.32c-.14-2,1.81-3.17,2-5a2.37,2.37,0,0,0-1-2.15c-1.32-.86-4-1.33-3.48-3.52Z"/><path class="cls-57" d="M613.68,271.37l-.34,2.67c-.16,4.42-3.25,6.69-6.87,8.56-.51.27-.32.24-.22.74a25.93,25.93,0,0,0,1.72,4.32c.16.41.29.48.68.46a8.21,8.21,0,0,0,4.59-2.16c4.26-3.46,5.63-9,5.59-14.33.64,6.27-1.57,13.29-7.45,16.38-1,.51-2.39,1.15-3.54.62a1.46,1.46,0,0,1-.5-.7,27.82,27.82,0,0,1-1.7-4.42,1.71,1.71,0,0,1-.1-.82c.07-.33.4-.5.64-.62,3.59-1.83,6.54-3.72,7-8.07l.52-2.63Z"/><path class="cls-57" d="M620.48,269.52a11.7,11.7,0,0,1,.9,5.62c-.16,1.92-.67,3.74-.5,5.57a26.19,26.19,0,0,0,1.19,5.46,15.79,15.79,0,0,1,.26,5.69,20.61,20.61,0,0,0-.78-5.55,21,21,0,0,1-1.37-5.55,24.6,24.6,0,0,1,.67-5.68,14.16,14.16,0,0,0-.37-5.56Z"/><path class="cls-57" d="M612.41,266.75c-1,2.17-2.51,4.19-3.58,6.3a9.75,9.75,0,0,0-.31,6.92c-2.88-5.22.73-9.29,3.89-13.22Z"/><path class="cls-57" d="M610.43,258.35a18.25,18.25,0,0,0,0,4.61c.19,1.18,1.3,1.57,2.38,1.61a4.18,4.18,0,0,0,1.17,0,3.13,3.13,0,0,1-1.17.36c-4,.69-3.5-4.19-2.35-6.56Z"/><path class="cls-57" d="M605.33,283.11a17.1,17.1,0,0,0-3.08,2.36.27.27,0,0,0-.09-.28c-.17-.08,0,0,0-.05l.86-.15a4.91,4.91,0,0,1,.71-.09c.6,0,.54.82.76,1.2a3.34,3.34,0,0,0,1.84,1.24,2.5,2.5,0,0,1-2.69-1.8s0,0,0,0l-1.09.21c-.33,0-.51.16-.86,0-1-.92,2.85-2.54,3.58-2.63Z"/><path class="cls-57" d="M609.06,281.66l1.3,2.19a14.4,14.4,0,0,1,1.18,2.28,5.42,5.42,0,0,1-2.48-4.47Z"/><path class="cls-57" d="M608.62,289.14c.21,1.09.35,2.14.5,3.21.09.33,0,.77.16,1-.23,0-.34-.27-.44-.4a4,4,0,0,1-.22-3.86Z"/><path class="cls-57" d="M612.6,262.4a.63.63,0,0,1-.94.78c.25-.6.3-.64.94-.78Z"/><path class="cls-57" d="M545,362.83c-3.36,1.61-5.93,4.42-8.56,7-2.12,2.13-4.43,5-7.71,4.95-4-.76-2.36-5.9-.29-7.9l5.1-5.39c1.4-1.57,3.78-3.74,3-6a2.21,2.21,0,0,0-2.81-1c-4.66,1.34-8.76,4.49-12.58,7.4-1.49,1.08-3.1,2.46-5.07,2.52-2.65.19-3.45-2-2.59-4.24,2-4.66,6.72-7.35,10.35-10.63,1.73-1.66,5.7-4.54,3.78-7.16-1.29-1.3-3.39-1.07-5.08-.77a29.17,29.17,0,0,0-12.91,6.83,29.37,29.37,0,0,1,12.84-7.17c1.78-.35,4-.59,5.46.83,3.27,3.91-7,10.07-9.37,12.65-1.78,1.65-3.63,3.41-4.47,5.63-1.1,3,1,4.06,3.63,3a19.73,19.73,0,0,0,3-2c3.88-3,8-6.14,12.83-7.5,3.57-.91,4.77,2.52,2.8,5.12-1.39,2.14-5.8,6.28-7.54,8.22-4.76,5.25-.85,10,4.72,4.93,3.67-3.24,6.9-7.24,11.43-9.33Z"/><path class="cls-57" d="M469.91,267.2c3.89,1.8,2.07,7.4,5.39,9.67s7.64.31,10-2.29c3.34-3.79,3.2-9.85.62-14-1.8-3.36-6.58-4.53-9.48-1.86-2,1.73-2.24,4.49-3.29,6.78a2.6,2.6,0,0,1-1.3,1.41,2.89,2.89,0,0,1-1.9-.21c3.2,1.36,3.46-2.88,4.2-4.94a8,8,0,0,1,2-3.35c3.13-3,8.25-1.85,10.3,1.83,2.8,4.42,2.93,10.77-.67,14.79-2.6,2.8-7.37,4.65-10.78,2.22s-1.27-8-5.12-10Z"/><path class="cls-57" d="M485.11,267.6a14.61,14.61,0,0,0-9.33.16,8.12,8.12,0,0,1,9.33-.16Z"/><path class="cls-57" d="M484.41,263.18a17.11,17.11,0,0,0-8.26.32,7.63,7.63,0,0,1,8.26-.32Z"/><path class="cls-57" d="M484.24,272.38a11,11,0,0,0-8.1-.25,6.28,6.28,0,0,1,8.1.25Z"/><path class="cls-57" d="M455.85,256a2.8,2.8,0,0,0-4-1.07c-.43.31-.73.83-1.19,1.13-1.21.74-3,1.56-2.7,3.22.24.77,1,1.26,1.29,2.06a1.85,1.85,0,0,1,0,1c-.06.38.21.89.5.9,1.08-.14.86-1.42.86-2.34a2.16,2.16,0,0,1,2.27-2.25,1.81,1.81,0,0,0,1.44-.42,2.8,2.8,0,0,0,.61-1.46,2.48,2.48,0,0,1-.11.81,1.83,1.83,0,0,1-1.92,1.41,1.71,1.71,0,0,0-1.75,1.93,6.39,6.39,0,0,1,0,1.7c-.22,1.1-1.72,1.82-2.36.63-.4-.62-.08-1.09-.23-1.65s-1.11-1.31-1.29-2.1c-.44-2,1.59-3.16,3-3.84.48-.29.76-.76,1.25-1.06a2.93,2.93,0,0,1,4.26,1.44Z"/><path class="cls-57" d="M450.17,264.24c-5.72,1.88-8.65,7.52-12.16,12,2.66-5,6.05-11,12.16-12Z"/><path class="cls-57" d="M458.16,269.51a63.6,63.6,0,0,1,1.31,13.82,71.12,71.12,0,0,1-1.31-13.82Z"/><path class="cls-57" d="M467.62,272.38a18.08,18.08,0,0,1-2.93,5.81,2.37,2.37,0,0,1-1.58.92,2.75,2.75,0,0,1-1.7-.52,6.29,6.29,0,0,1-2.09-2.53c1.14,1.28,3.31,3.56,4.83,1.68a55.19,55.19,0,0,0,3.47-5.36Z"/><path class="cls-57" d="M462.94,272.83c-2.32-3.13-3.88-7.44-8.05-8.4,4.48-.06,6.67,4.85,8.05,8.4Z"/><path class="cls-57" d="M446.3,272.87a25.19,25.19,0,0,1,1.75,9.61,49,49,0,0,1-1.75-9.61Z"/><path class="cls-57" d="M459.49,284.56a18.4,18.4,0,0,1,1.86,8.82,61.44,61.44,0,0,1-1.86-8.82Z"/><path class="cls-57" d="M459.42,284a30,30,0,0,1-9.25.78,30.31,30.31,0,0,1,9.25-.78Z"/><path class="cls-57" d="M442,276.65c1.58,1.87,3.33,3.65,4.82,5.6a.63.63,0,0,1,.17.55,7.57,7.57,0,0,1-2.3,2.17,27.52,27.52,0,0,0,1.73-2.29c0,.08,0,0-.08-.05a23.59,23.59,0,0,1-4.34-6Z"/><path class="cls-57" d="M456.21,257.42c.64,1.55,1.38,3.34.82,5a3,3,0,0,1-2.68,1.52c1.07-.49,2.27-1.3,2.19-2.62s-.29-2.62-.33-3.93Z"/><path class="cls-57" d="M437.89,277.24a81.73,81.73,0,0,1,5.59,6.19,14.55,14.55,0,0,1-5.59-6.19Z"/><path class="cls-57" d="M455.17,265.29a2.49,2.49,0,0,1-4.24,1.85,3.31,3.31,0,0,1-.9-1.63c1.47,2.07,4,2.39,5.14-.22Z"/><path class="cls-57" d="M447.55,270.56a19.62,19.62,0,0,1-4.77,5.86,20.45,20.45,0,0,1,4.77-5.86Z"/><path class="cls-57" d="M447.67,287.47a21.77,21.77,0,0,1,.09,5.87,8.47,8.47,0,0,1-.09-5.87Z"/><path class="cls-57" d="M466.89,266.88c-.11-.8,0-1.62-.1-2.37,0,0,0,0,0,0a.47.47,0,0,0,.1.06c.12,0,.17,0,.15,0a13.22,13.22,0,0,0-1.43,2.3,3.81,3.81,0,0,1,1-2.86.51.51,0,0,1,.71.06c.43.87-.1,2-.44,2.8Z"/><path class="cls-57" d="M455.21,288.29a9.26,9.26,0,0,1-.68,5.09,9.36,9.36,0,0,1,.68-5.09Z"/><path class="cls-57" d="M448.12,286.52a2.86,2.86,0,0,0,.62-2.2,2.37,2.37,0,0,0-1.66-1.53,1.9,1.9,0,0,1,2.33,1.33,2.06,2.06,0,0,1-1.29,2.4Z"/><path class="cls-57" d="M465.08,267.42c-.44,0-.87-.19-1.24-.17,0,0,.11-.08.1-.08.29.71.55,1.64.85,2.45a3.5,3.5,0,0,1-1.51-2.53c.28-1,1.42-.13,1.8.33Z"/><path class="cls-57" d="M467.3,267.19c1.67.35,1.3,2.84.19,3.64.09-1.35.66-2.45-.19-3.64Z"/><path class="cls-57" d="M467.58,271.42a5,5,0,0,1-3.36-1.56,4.91,4.91,0,0,1,3.36,1.56Z"/><path class="cls-57" d="M448,285.11a1.36,1.36,0,0,1-2.19.13,3.9,3.9,0,0,1,2.19-.13Z"/><path class="cls-57" d="M454.3,261.06a2.27,2.27,0,0,1,1.6.77,1,1,0,0,1-1.6-.77Z"/><path class="cls-57" d="M464.1,270.5a9.31,9.31,0,0,1-2.55,4.47,9.43,9.43,0,0,1,2.55-4.47Z"/><path class="cls-57" d="M655.05,280.65a50.3,50.3,0,0,1-8.14-.21l.33-.31c0,1.23-.14,2.46-.31,3.68a34.88,34.88,0,0,1-.3-3.68.28.28,0,0,1,.28-.3,49.47,49.47,0,0,1,8.14.82Z"/><path class="cls-57" d="M646.93,284.41a23.12,23.12,0,0,1,8.12-.51,23.12,23.12,0,0,1-8.12.51Z"/><path class="cls-57" d="M661.26,281.66a45.14,45.14,0,0,1-6.18-4.73l.5-.24a33.05,33.05,0,0,1-.3,3.57,33.07,33.07,0,0,1-.31-3.57.3.3,0,0,1,.29-.31,35.71,35.71,0,0,1,6,5.28Z"/><path class="cls-57" d="M661.26,282.1a43.27,43.27,0,0,1-5.79,5.2.3.3,0,0,1-.49-.23,32.24,32.24,0,0,1,.3-3.24,32.24,32.24,0,0,1,.3,3.24l-.49-.23a43,43,0,0,1,6.17-4.74Z"/><polygon class="cls-57" points="547.43 360.79 550.8 369.45 555.62 365.18 547.43 360.79"/><rect class="cls-57" x="553.55" y="365.27" width="1.48" height="6.54" transform="translate(-104.95 460.48) rotate(-41.56)"/></g><g id="Layer_6" data-name="Layer 6"><rect class="cls-35" x="792.78" y="113.75" width="138.44" height="191.85" transform="translate(652.33 1071.68) rotate(-90)"/><path class="cls-58" d="M875,210.8a31.51,31.51,0,1,1-31.51-31.51A31.51,31.51,0,0,1,875,210.8"/><polygon class="cls-18" points="917.99 265.81 874.96 179.77 831.94 265.81 917.99 265.81"/><path class="cls-59" d="M875,210.8a31.34,31.34,0,0,0-6.16-18.71l-25.11,50.22A31.52,31.52,0,0,0,875,210.8"/><rect class="cls-41" x="809.26" y="173.47" width="5.15" height="5.15" transform="translate(113.11 625.33) rotate(-44.98)"/><rect class="cls-41" x="809.26" y="208.08" width="5.15" height="5.15" transform="translate(88.86 635.82) rotate(-45)"/><rect class="cls-41" x="809.26" y="242.68" width="5.15" height="5.15" transform="translate(64.43 646.03) rotate(-45.01)"/><path class="cls-41" d="M811.94,244.31a1,1,0,0,1-1-1v-65a1,1,0,0,1,2,0v65a1,1,0,0,1-1,1"/><rect class="cls-60" x="925.2" y="203.24" width="20.85" height="62.57"/><rect class="cls-60" x="779.9" y="153.37" width="16.75" height="113.88"/><rect class="cls-60" x="804.87" y="153.37" width="77.79" height="12.08"/><rect class="cls-61" x="890.28" y="168.09" width="12.08" height="12.07"/><rect class="cls-62" x="890.28" y="153.37" width="12.08" height="12.08"/><rect class="cls-63" x="890.28" y="182.82" width="12.08" height="12.08"/><rect class="cls-64" x="904.85" y="168.09" width="12.08" height="12.07"/><rect class="cls-61" x="904.85" y="153.37" width="12.08" height="12.08"/><rect class="cls-65" x="919.16" y="153.37" width="12.07" height="12.08"/><rect class="cls-66" x="919.16" y="168.09" width="12.07" height="12.07"/><rect class="cls-67" x="904.85" y="182.82" width="12.08" height="12.08"/><rect class="cls-68" x="919.16" y="182.82" width="12.07" height="12.08"/><rect class="cls-69" x="933.46" y="153.37" width="12.07" height="12.08"/><rect class="cls-70" x="933.46" y="168.09" width="12.07" height="12.07"/><rect class="cls-42" x="933.46" y="182.82" width="12.07" height="12.08"/></g><g id="Layer_8" data-name="Layer 8"><rect class="cls-4" x="424.47" width="285.83" height="132.97"/><rect class="cls-71" x="511.65" y="-63.89" width="111.48" height="261.42" transform="translate(634.21 -500.57) rotate(90)"/><polygon class="cls-6" points="592.31 122.56 436.68 49.39 436.68 122.56 592.31 122.56"/><polygon class="cls-72" points="698.1 11.08 500.67 79.48 436.68 49.39 436.68 11.08 698.1 11.08"/><rect class="cls-73" x="480.1" y="53.67" width="42.72" height="42.87" transform="translate(6.98 187.32) rotate(-21.3)"/><path class="cls-20" d="M499.27,63.64a2.84,2.84,0,1,1-2.84-2.84A2.84,2.84,0,0,1,499.27,63.64Z"/><rect class="cls-60" x="617.64" y="63.07" width="42.72" height="42.87" transform="translate(23.61 -107.22) rotate(9.77)"/><path class="cls-20" d="M643,73.55a2.84,2.84,0,1,1-1-3.9A2.84,2.84,0,0,1,643,73.55Z"/><rect class="cls-74" x="558.76" y="24.9" width="42.72" height="42.87"/><path class="cls-20" d="M582.24,34.86a2.84,2.84,0,1,1-1.62-3.68A2.84,2.84,0,0,1,582.24,34.86Z"/><rect class="cls-32" x="436.68" y="11.08" width="1.34" height="110.81"/><rect class="cls-32" x="696.76" y="11.08" width="1.34" height="110.81"/><rect class="cls-32" x="566.72" y="-118.96" width="1.34" height="261.42" transform="translate(579.14 -555.64) rotate(90)"/><rect class="cls-32" x="566.72" y="-8.82" width="1.34" height="261.42" transform="translate(689.28 -445.5) rotate(90)"/><path class="cls-32" d="M508.91,68.75c-3.7,1-5.26,5.55-9.1,6.18-1.2.2-2.52,0-3.74.11a23.17,23.17,0,0,0-6,1.63.31.31,0,0,0,.16.6,43.41,43.41,0,0,1,7.24-1.2c1.6-.07,3.22.21,4.73-.51a8.29,8.29,0,0,0,2.4-2.17,56.06,56.06,0,0,1,4.63-4.1A.33.33,0,0,0,508.91,68.75Z"/><path class="cls-32" d="M513.53,76.69c-1.62.89-2.75,2.35-4.3,3.29s-2.55.69-4.13.71c-4.45.07-5.13,5.48-10.45,4.83-.6-.07-.72.92-.14,1a6.63,6.63,0,0,0,5.28-.62,11.85,11.85,0,0,0,1.71-1.44c2.11-1.8,1.94-1.89,5.05-2s5.58-2.78,7.46-5.38C514.23,76.87,513.82,76.54,513.53,76.69Z"/><path class="cls-32" d="M590.28,46.8c-3-2.89-4.18-1.66-8.23-2.68a10.26,10.26,0,0,0-3.64-.52c-1,.07-7.75,1.07-8,1.54a.63.63,0,0,0-1.09-.63l-.15.21a.63.63,0,0,0,0,.66c1.43,2.25,5.54.74,7.57.32a8.14,8.14,0,0,1,5.54.65,6.06,6.06,0,0,0,1.57.53c.56,0,1.1-.24,1.63-.24a5.77,5.77,0,0,1,3.35,1.24.92.92,0,0,0,1.1-.14l.35-.29A.45.45,0,0,0,590.28,46.8Z"/><path class="cls-32" d="M590,54.15c-2.08.28-3.5-1-5.44-1.23-2.72-.34-5.65,1.75-8.16-.28-.53-.44-1.3.31-.77.76,2.78,2.37,5.88.33,9,1,1.59.34,4.49,2.53,5.65.3C590.4,54.49,590.26,54.11,590,54.15Z"/><path class="cls-32" d="M649.53,86.61c-1.36-1.2-2.17-1.11-3.94-1.13-2.85,0-3.39-.34-5.8-2.11-3.16-2.32-6.68-1.93-10.37-2.12a.51.51,0,0,0-.61-.26l-.7.21c-.6.18-.7,1.19,0,1.31a52,52,0,0,0,5.45.39c3.08.22,4.62,1.54,7,3.21,2.75,2,5.53,1,8.78,1.07A.34.34,0,0,0,649.53,86.61Z"/><path class="cls-32" d="M652.43,99c-1.64.2-5.22-2.47-6.93-3.21a39.05,39.05,0,0,0-5.06-1.59,56.39,56.39,0,0,0-12.21-2.19.45.45,0,0,0-.12.89c5.51,1.34,11.45,2,16.66,4.35,2.6,1.17,5.06,4.54,7.86,2.46C652.89,99.55,652.86,99,652.43,99Z"/></g></svg>