<svg xmlns="http://www.w3.org/2000/svg" xmlns:xlink="http://www.w3.org/1999/xlink" preserveAspectRatio="xMidYMid meet" width="1080" height="1080" viewBox="0 0 1080 1080" style="width:100%;height:100%"><defs><animate attributeType="XML" attributeName="opacity" dur="0s" from="0" to="1" xlink:href="#time_group"/></defs><g id="_R_G"><g id="_R_G_L_8_G" transform=" translate(596, 544) translate(-56, -4)"><path id="_R_G_L_8_G_D_0_P_0" fill="#3e3e3e" fill-opacity="1" fill-rule="nonzero" d=" M164 -266 C82.29,-295.39 -14.96,-279.67 -74,-216 C-123.5,-162.62 -72.46,-129.07 -128,-82 C-162.21,-53 -260.83,-76.4 -284,-38 C-328.45,35.67 -304.2,140.52 -244,202 C-176.01,271.44 -88.16,205.05 -2,250 C29.97,266.68 41.95,303.48 74,320 C149.32,358.82 164.93,330.9 238,288 C295.49,254.25 202.6,206.82 248,158 C284.34,118.92 340.75,87.35 342,34 C344.08,-54.73 296.1,-19.86 254,-98 C212.31,-175.38 246.71,-236.24 164,-266z "/><path id="_R_G_L_8_G_D_1_P_0" stroke="#6668ff" stroke-linecap="round" stroke-linejoin="round" fill="none" stroke-width="0" stroke-opacity="1" d=" M164 -266 C82.29,-295.39 -14.96,-279.67 -74,-216 C-123.5,-162.62 -72.46,-129.07 -128,-82 C-162.21,-53 -260.83,-76.4 -284,-38 C-328.45,35.67 -304.2,140.52 -244,202 C-176.01,271.44 -88.16,205.05 -2,250 C29.97,266.68 41.95,303.48 74,320 C149.32,358.82 164.93,330.9 238,288 C295.49,254.25 202.6,206.82 248,158 C284.34,118.92 340.75,87.35 342,34 C344.08,-54.73 296.1,-19.86 254,-98 C212.31,-175.38 246.71,-236.24 164,-266z "/></g><g id="_R_G_L_7_G" transform=" translate(540, 540) translate(-249.115, -230.166)"><g id="_R_G_L_7_G_L_38_G" transform=" translate(181.81, 324.084) translate(-40.451, -38.857)"><path id="_R_G_L_7_G_L_38_G_D_0_P_0" fill="#2e2e2e" fill-opacity="1" fill-rule="nonzero" d=" M19.02 67.03 C19.02,67.03 61.95,34.71 68.56,27.71 C75.17,20.71 78.63,14.14 78.39,12.38 C78.15,10.61 76.27,5.87 70.79,4.18 C65.32,2.5 58.34,7.26 58.34,7.26 C58.34,7.26 46.54,15.13 38.28,26.14 C30.03,37.15 12.73,57.59 11.55,58.38 C11.55,58.38 19.02,67.03 19.02,67.03z "/><path id="_R_G_L_7_G_L_38_G_D_1_P_0" stroke="#2e2e2e" stroke-linecap="round" stroke-linejoin="round" fill="none" stroke-width="1" stroke-opacity="1" d=" M19.02 67.03 C19.02,67.03 61.95,34.71 68.56,27.71 C75.17,20.71 78.63,14.14 78.39,12.38 C78.15,10.61 76.27,5.87 70.79,4.18 C65.32,2.5 58.34,7.26 58.34,7.26 C58.34,7.26 46.54,15.13 38.28,26.14 C30.03,37.15 12.73,57.59 11.55,58.38 C11.55,58.38 19.02,67.03 19.02,67.03z "/><path id="_R_G_L_7_G_L_38_G_D_2_P_0" fill="#eabca0" fill-opacity="1" fill-rule="nonzero" d=" M19.02 67.03 C19.02,67.03 24.76,62.65 32.34,56.79 C27.37,52.84 24.83,48.27 23.53,44.57 C17.48,51.84 12.18,57.96 11.55,58.38 C11.55,58.38 2.5,66.27 2.5,66.27 C2.5,66.27 8.43,73.89 8.43,73.89 C8.43,73.89 19.02,67.03 19.02,67.03z "/><path id="_R_G_L_7_G_L_38_G_D_3_P_0" stroke="#2e2e2e" stroke-linecap="round" stroke-linejoin="round" fill="none" stroke-width="1" stroke-opacity="1" d=" M19.02 67.03 C19.02,67.03 24.76,62.65 32.34,56.79 C27.37,52.84 24.83,48.27 23.53,44.57 C17.48,51.84 12.18,57.96 11.55,58.38 C11.55,58.38 2.5,66.27 2.5,66.27 C2.5,66.27 8.43,73.89 8.43,73.89 C8.43,73.89 19.02,67.03 19.02,67.03z "/></g><g id="_R_G_L_7_G_L_37_G" transform=" translate(149.48, 364.644) translate(-13.621, -21.891)"><path id="_R_G_L_7_G_L_37_G_D_0_P_0" fill="#ba63a9" fill-opacity="1" fill-rule="nonzero" d=" M19.41 12.65 C19.41,12.65 14.17,2.5 14.17,2.5 C9.89,4.91 2.5,9.12 2.5,10.29 C2.5,11.86 16.78,37.55 17.89,38.53 C19.58,40.36 21.16,41.72 22.51,41.15 C22.77,41.04 23.72,40.21 23.75,38.97 C23.86,35.04 22.16,33.1 22.16,31.13 C22.16,29.16 24.52,9.5 24.52,9.5 C24.52,9.5 24.6,9.44 24.74,9.33 C22.08,9.53 19.41,12.65 19.41,12.65z "/><path id="_R_G_L_7_G_L_37_G_D_1_P_0" stroke="#2e2e2e" stroke-linecap="round" stroke-linejoin="round" fill="none" stroke-width="1" stroke-opacity="1" d=" M19.41 12.65 C19.41,12.65 14.17,2.5 14.17,2.5 C9.89,4.91 2.5,9.12 2.5,10.29 C2.5,11.86 16.78,37.55 17.89,38.53 C19.58,40.36 21.16,41.72 22.51,41.15 C22.77,41.04 23.72,40.21 23.75,38.97 C23.86,35.04 22.16,33.1 22.16,31.13 C22.16,29.16 24.52,9.5 24.52,9.5 C24.52,9.5 24.6,9.44 24.74,9.33 C22.08,9.53 19.41,12.65 19.41,12.65z "/></g><g id="_R_G_L_7_G_L_36_G" transform=" translate(220.707, 268.029) translate(-30.195, -57.461)"><path id="_R_G_L_7_G_L_36_G_D_0_P_0" fill="#2e2e2e" fill-opacity="1" fill-rule="nonzero" d=" M15.87 28.06 C15.87,28.06 2.5,87.82 5.25,92.93 C8,98.05 16.26,103.16 22.94,96.08 C29.63,89 51.26,55.97 55.19,38.28 C59.12,20.59 26.09,2.5 15.87,28.06z "/><path id="_R_G_L_7_G_L_36_G_D_1_P_0" stroke="#2e2e2e" stroke-linecap="round" stroke-linejoin="round" fill="none" stroke-width="1" stroke-opacity="1" d=" M15.87 28.06 C15.87,28.06 2.5,87.82 5.25,92.93 C8,98.05 16.26,103.16 22.94,96.08 C29.63,89 51.26,55.97 55.19,38.28 C59.12,20.59 26.09,2.5 15.87,28.06z "/></g><g id="_R_G_L_7_G_L_35_G" transform=" translate(280.311, 285.846) translate(-41.081, -43.824)"><path id="_R_G_L_7_G_L_35_G_D_0_P_0" fill="#2e2e2e" fill-opacity="1" fill-rule="nonzero" d=" M17.48 77.21 C17.48,77.21 73.7,21.77 77.24,17.05 C80.78,12.33 80.41,8.46 76.32,5.02 C73.99,3.06 70.02,2.5 64.78,2.53 C57.12,2.58 49.58,5.49 42.64,13.51 C35.7,21.52 6.08,72.88 6.08,72.88 C6.08,72.88 17.48,77.21 17.48,77.21z "/><path id="_R_G_L_7_G_L_35_G_D_1_P_0" stroke="#2e2e2e" stroke-linecap="round" stroke-linejoin="round" fill="none" stroke-width="1" stroke-opacity="1" d=" M17.48 77.21 C17.48,77.21 73.7,21.77 77.24,17.05 C80.78,12.33 80.41,8.46 76.32,5.02 C73.99,3.06 70.02,2.5 64.78,2.53 C57.12,2.58 49.58,5.49 42.64,13.51 C35.7,21.52 6.08,72.88 6.08,72.88 C6.08,72.88 17.48,77.21 17.48,77.21z "/><path id="_R_G_L_7_G_L_35_G_D_2_P_0" fill="#eabca0" fill-opacity="1" fill-rule="nonzero" d=" M6.08 72.88 C6.08,72.88 17.7,54.01 17.7,54.01 C18.77,57.58 21.74,63.14 29.84,64.98 C22.6,72.16 17.48,77.21 17.48,77.21 C17.48,77.21 9.84,85.12 9.84,85.12 C9.84,85.12 2.5,78.63 2.5,78.63 C2.5,78.63 6.08,72.88 6.08,72.88z "/><path id="_R_G_L_7_G_L_35_G_D_3_P_0" stroke="#2e2e2e" stroke-linecap="round" stroke-linejoin="round" fill="none" stroke-width="1" stroke-opacity="1" d=" M6.08 72.88 C6.08,72.88 17.7,54.01 17.7,54.01 C18.77,57.58 21.74,63.14 29.84,64.98 C22.6,72.16 17.48,77.21 17.48,77.21 C17.48,77.21 9.84,85.12 9.84,85.12 C9.84,85.12 2.5,78.63 2.5,78.63 C2.5,78.63 6.08,72.88 6.08,72.88z "/></g><g id="_R_G_L_7_G_L_34_G" transform=" translate(189.75, 296.75) translate(60.25, -46.75)"><path id="_R_G_L_7_G_L_34_G_D_0_P_0" stroke="#6768fe" stroke-linecap="round" stroke-linejoin="round" fill="none" stroke-width="2" stroke-opacity="1" d=" M-100.62 105.88 C-100.62,105.88 -42.5,51.25 -42.5,51.25 C-42.5,51.25 -21.5,-13.25 -21.5,-13.25 "/></g><g id="_R_G_L_7_G_L_33_G" transform=" translate(261.871, 240.734) translate(-61.005, -23.483)"><path id="_R_G_L_7_G_L_33_G_D_0_P_0" fill="#2e2e2e" fill-opacity="1" fill-rule="nonzero" d=" M6.69 26.49 C20.11,43.54 30.68,45.36 68.42,44.18 C106.17,43 116.79,39.85 117.97,35.14 C119.15,30.42 119.54,27.66 88.08,15.48 C56.63,3.29 16.52,2.5 16.52,2.5 C16.52,2.5 6.27,3.79 4.86,9.69 C3.45,15.58 2.5,21.16 6.69,26.49z "/><path id="_R_G_L_7_G_L_33_G_D_1_P_0" stroke="#2e2e2e" stroke-linecap="round" stroke-linejoin="round" fill="none" stroke-width="1" stroke-opacity="1" d=" M6.69 26.49 C20.11,43.54 30.68,45.36 68.42,44.18 C106.17,43 116.79,39.85 117.97,35.14 C119.15,30.42 119.54,27.66 88.08,15.48 C56.63,3.29 16.52,2.5 16.52,2.5 C16.52,2.5 6.27,3.79 4.86,9.69 C3.45,15.58 2.5,21.16 6.69,26.49z "/></g><g id="_R_G_L_7_G_L_32_G" transform=" translate(244.515, 336.31) translate(-15.078, -23.907)"><path id="_R_G_L_7_G_L_32_G_D_0_P_0" fill="#ba63a9" fill-opacity="1" fill-rule="nonzero" d=" M2.89 8.79 C3.29,11.15 10.76,33.96 12.33,37.89 C13.9,41.82 17.83,47.32 19.8,44.57 C21.77,41.82 20.19,37.49 21.37,31.99 C22.55,26.48 27.27,6.82 27.27,6.82 C23.73,5.65 17.83,10.76 17.83,10.76 C17.83,10.76 15.87,2.5 15.87,2.5 C15.87,2.5 2.5,6.43 2.89,8.79z "/><path id="_R_G_L_7_G_L_32_G_D_1_P_0" stroke="#2e2e2e" stroke-linecap="round" stroke-linejoin="round" fill="none" stroke-width="1" stroke-opacity="1" d=" M2.89 8.79 C3.29,11.15 10.76,33.96 12.33,37.89 C13.9,41.82 17.83,47.32 19.8,44.57 C21.77,41.82 20.19,37.49 21.37,31.99 C22.55,26.48 27.27,6.82 27.27,6.82 C23.73,5.65 17.83,10.76 17.83,10.76 C17.83,10.76 15.87,2.5 15.87,2.5 C15.87,2.5 2.5,6.43 2.89,8.79z "/></g><g id="_R_G_L_7_G_L_31_G" transform=" translate(314.707, 169.102) translate(-51.336, -33.059)"><path id="_R_G_L_7_G_L_31_G_D_0_P_0" fill="#eabca0" fill-opacity="1" fill-rule="nonzero" d=" M9.55 13.93 C9.55,13.93 36.05,46.48 36.05,46.48 C36.05,46.48 73.3,19.64 73.3,19.64 C73.3,19.64 84.03,2.52 85.38,2.52 C86.72,2.52 96.45,9.91 95.78,13.6 C95.11,17.29 87.39,22.32 85.04,23.33 C82.69,24.33 78.66,25.34 78.66,25.34 C78.66,25.34 41.09,63.26 36.05,63.59 C31.02,63.93 11.56,46.48 11.56,46.48 C11.56,46.48 2.5,22.66 9.55,13.93z "/><path id="_R_G_L_7_G_L_31_G_D_1_P_0" stroke="#2e2e2e" stroke-linecap="round" stroke-linejoin="round" fill="none" stroke-width="1" stroke-opacity="1" d=" M9.55 13.93 C9.55,13.93 36.05,46.48 36.05,46.48 C36.05,46.48 73.3,19.64 73.3,19.64 C73.3,19.64 84.03,2.52 85.38,2.52 C86.72,2.52 96.45,9.91 95.78,13.6 C95.11,17.29 87.39,22.32 85.04,23.33 C82.69,24.33 78.66,25.34 78.66,25.34 C78.66,25.34 41.09,63.26 36.05,63.59 C31.02,63.93 11.56,46.48 11.56,46.48 C11.56,46.48 2.5,22.66 9.55,13.93z "/><path id="_R_G_L_7_G_L_31_G_D_2_P_0" fill="#eabca0" fill-opacity="1" fill-rule="nonzero" d=" M71.95 21.04 C71.95,19.68 77.4,7.95 77.4,7.95 C77.4,7.95 80.95,2.5 82.04,3.05 C83.13,3.59 89.4,8.23 88.58,9.59 C87.76,10.95 82.31,8.77 82.31,8.77 C82.31,8.77 85.58,14.5 81.22,18.59 "/><path id="_R_G_L_7_G_L_31_G_D_3_P_0" stroke="#2e2e2e" stroke-linecap="round" stroke-linejoin="round" fill="none" stroke-width="1" stroke-opacity="1" d=" M71.95 21.04 C71.95,19.68 77.4,7.95 77.4,7.95 C77.4,7.95 80.95,2.5 82.04,3.05 C83.13,3.59 89.4,8.23 88.58,9.59 C87.76,10.95 82.31,8.77 82.31,8.77 C82.31,8.77 85.58,14.5 81.22,18.59 "/><path id="_R_G_L_7_G_L_31_G_D_4_P_0" stroke="#2e2e2e" stroke-linecap="round" stroke-linejoin="round" fill="none" stroke-width="1" stroke-opacity="1" d=" M83.67 10.41 C83.67,10.41 89.67,15.59 89.67,15.59 "/></g><g id="_R_G_L_7_G_L_30_G" transform=" translate(231.417, 229.1) translate(-33.139, -31.927)"><path id="_R_G_L_7_G_L_30_G_D_0_P_0" fill="#2e2e2e" fill-opacity="1" fill-rule="nonzero" d=" M19.61 7.49 C10.55,13.53 2.5,26.62 5.86,41.05 C9.21,55.47 27.33,64.2 39.41,60.51 C51.49,56.82 53.17,46.41 57.19,34 C57.19,34 61.2,24.28 61.2,24.28 C61.2,24.28 26.59,2.5 26.59,2.5 C26.59,2.5 19.61,7.49 19.61,7.49z "/><path id="_R_G_L_7_G_L_30_G_D_1_P_0" stroke="#2e2e2e" stroke-linecap="round" stroke-linejoin="round" fill="none" stroke-width="1" stroke-opacity="1" d=" M19.61 7.49 C10.55,13.53 2.5,26.62 5.86,41.05 C9.21,55.47 27.33,64.2 39.41,60.51 C51.49,56.82 53.17,46.41 57.19,34 C57.19,34 61.2,24.28 61.2,24.28 C61.2,24.28 26.59,2.5 26.59,2.5 C26.59,2.5 19.61,7.49 19.61,7.49z "/></g><g id="_R_G_L_7_G_L_29_G" transform=" translate(252.824, 180.788) translate(-36.584, -50.425)"><path id="_R_G_L_7_G_L_29_G_D_0_P_0" fill="#ba63a9" fill-opacity="1" fill-rule="nonzero" d=" M64.06 64.24 C68.76,59.2 72.45,51.82 69.76,45.11 C67.08,38.4 51.31,4.51 51.31,4.51 C45.94,2.5 34.2,13.57 30.17,24.31 C26.14,35.05 21.78,54.51 19.43,58.53 C17.16,62.43 11.1,67.9 2.5,73.73 C7.55,79.45 20.23,91.52 40.79,96.58 C45.51,84.95 54.1,71.88 55,71.28 C56.01,70.61 59.36,69.27 64.06,64.24z "/><path id="_R_G_L_7_G_L_29_G_D_1_P_0" stroke="#2e2e2e" stroke-linecap="round" stroke-linejoin="round" fill="none" stroke-width="1" stroke-opacity="1" d=" M64.06 64.24 C68.76,59.2 72.45,51.82 69.76,45.11 C67.08,38.4 51.31,4.51 51.31,4.51 C45.94,2.5 34.2,13.57 30.17,24.31 C26.14,35.05 21.78,54.51 19.43,58.53 C17.16,62.43 11.1,67.9 2.5,73.73 C7.55,79.45 20.23,91.52 40.79,96.58 C45.51,84.95 54.1,71.88 55,71.28 C56.01,70.61 59.36,69.27 64.06,64.24z "/><path id="_R_G_L_7_G_L_29_G_D_2_P_0" stroke="#2e2e2e" stroke-linecap="round" stroke-linejoin="round" fill="none" stroke-width="1" stroke-opacity="1" d=" M40.58 35.33 C40.58,35.33 45.45,54.8 48.55,59.66 "/><path id="_R_G_L_7_G_L_29_G_D_3_P_0" stroke="#2e2e2e" stroke-linecap="round" stroke-linejoin="round" fill="none" stroke-width="1" stroke-opacity="1" d=" M36.16 36.66 C36.16,36.66 40.58,48.16 42.35,53.47 "/><path id="_R_G_L_7_G_L_29_G_D_4_P_0" stroke="#2e2e2e" stroke-linecap="round" stroke-linejoin="round" fill="none" stroke-width="1" stroke-opacity="1" d=" M10.95 76.03 C10.95,76.03 26.87,78.68 43.24,74.7 "/><path id="_R_G_L_7_G_L_29_G_D_5_P_0" stroke="#2e2e2e" stroke-linecap="round" stroke-linejoin="round" fill="none" stroke-width="1" stroke-opacity="1" d=" M19.35 72.94 C19.35,72.94 39.23,71.9 51.64,68.07 "/></g><g id="_R_G_L_7_G_L_28_G" transform=" translate(220.375, 183.699) translate(-52.295, -45.284)"><path id="_R_G_L_7_G_L_28_G_D_0_P_0" fill="#eabca0" fill-opacity="1" fill-rule="nonzero" d=" M92.42 3.17 C92.42,3.17 38.74,19.95 35.38,22.63 C32.64,24.82 17.18,54.7 11.58,65.63 C11.58,65.63 2.5,76.99 2.5,80.34 C2.5,83.7 9.55,85.38 9.55,85.38 C9.55,85.38 11.22,87.73 13.91,87.39 C16.59,87.05 20.95,77.32 20.28,75.65 C19.82,74.49 20.16,70.78 20.41,68.59 C26.47,60.27 45.78,35.72 45.78,35.72 C45.78,35.72 96.45,25.99 100.14,20.62 C103.83,15.25 102.82,2.5 92.42,3.17z "/><path id="_R_G_L_7_G_L_28_G_D_1_P_0" stroke="#2e2e2e" stroke-linecap="round" stroke-linejoin="round" fill="none" stroke-width="1" stroke-opacity="1" d=" M92.42 3.17 C92.42,3.17 38.74,19.95 35.38,22.63 C32.64,24.82 17.18,54.7 11.58,65.63 C11.58,65.63 2.5,76.99 2.5,80.34 C2.5,83.7 9.55,85.38 9.55,85.38 C9.55,85.38 11.22,87.73 13.91,87.39 C16.59,87.05 20.95,77.32 20.28,75.65 C19.82,74.49 20.16,70.78 20.41,68.59 C26.47,60.27 45.78,35.72 45.78,35.72 C45.78,35.72 96.45,25.99 100.14,20.62 C103.83,15.25 102.82,2.5 92.42,3.17z "/></g><g id="_R_G_L_7_G_L_27_G" transform=" translate(286.555, 118.486) translate(-33.063, -45.744)"><path id="_R_G_L_7_G_L_27_G_D_0_P_0" fill="#eabca0" fill-opacity="1" fill-rule="nonzero" d=" M56.45 27.15 C56.45,27.15 55.73,20.36 49.66,13.22 C43.59,6.07 28.58,2.5 18.22,6.07 C7.86,9.65 3.93,17.86 3.22,28.22 C2.5,38.59 12.15,52.16 14.65,54.66 C17.15,57.16 16.43,61.45 15,63.24 C13.58,65.02 12.86,66.09 12.86,66.09 C12.86,66.09 23.94,86.82 23.94,86.82 C23.94,86.82 27.51,70.38 30.37,65.74 C33.23,61.09 34.66,59.66 34.66,59.66 C34.66,59.66 49.3,63.95 51.8,61.81 C54.3,59.66 58.59,46.45 58.59,46.45 C58.59,46.45 63.59,44.3 62.88,41.8 C62.16,39.3 56.81,38.23 56.45,33.94 C56.09,29.65 56.45,27.15 56.45,27.15z "/><path id="_R_G_L_7_G_L_27_G_D_1_P_0" stroke="#2e2e2e" stroke-linecap="round" stroke-linejoin="round" fill="none" stroke-width="1" stroke-opacity="1" d=" M56.45 27.15 C56.45,27.15 55.73,20.36 49.66,13.22 C43.59,6.07 28.58,2.5 18.22,6.07 C7.86,9.65 3.93,17.86 3.22,28.22 C2.5,38.59 12.15,52.16 14.65,54.66 C17.15,57.16 16.43,61.45 15,63.24 C13.58,65.02 12.86,66.09 12.86,66.09 C12.86,66.09 23.94,86.82 23.94,86.82 C23.94,86.82 27.51,70.38 30.37,65.74 C33.23,61.09 34.66,59.66 34.66,59.66 C34.66,59.66 49.3,63.95 51.8,61.81 C54.3,59.66 58.59,46.45 58.59,46.45 C58.59,46.45 63.59,44.3 62.88,41.8 C62.16,39.3 56.81,38.23 56.45,33.94 C56.09,29.65 56.45,27.15 56.45,27.15z "/><path id="_R_G_L_7_G_L_27_G_D_2_P_0" fill="#2e2e2e" fill-opacity="1" fill-rule="nonzero" d=" M52.42 36.52 C52.42,37.29 51.9,37.91 51.25,37.91 C50.61,37.91 50.09,37.29 50.09,36.52 C50.09,35.75 50.61,35.13 51.25,35.13 C51.9,35.13 52.42,35.75 52.42,36.52z "/><path id="_R_G_L_7_G_L_27_G_D_3_P_0" stroke="#2e2e2e" stroke-linecap="round" stroke-linejoin="round" fill="none" stroke-width="1" stroke-opacity="1" d=" M48.55 32.53 C48.55,32.53 51.39,30.22 54.42,32.59 "/><path id="_R_G_L_7_G_L_27_G_D_4_P_0" stroke="#2e2e2e" stroke-linecap="round" stroke-linejoin="round" fill="none" stroke-width="1" stroke-opacity="1" d=" M53.8 49.98 C53.8,49.98 49.31,50.43 48.41,47.29 "/></g><g id="_R_G_L_7_G_L_26_G" transform=" translate(248.565, 101.955) translate(-79.43, -29.375)"><path id="_R_G_L_7_G_L_26_G_D_0_P_0" fill="#2e2e2e" fill-opacity="1" fill-rule="nonzero" d=" M134.02 13.38 C127.94,6.24 112.94,2.66 102.58,6.24 C92.22,9.81 88.29,18.03 87.57,28.39 C86.87,38.54 96.12,51.78 98.84,54.66 C101.45,54.77 107.57,53.57 112.22,41.25 C112.22,41.25 116.15,41.96 119.01,37.32 C121.87,32.67 118.65,28.03 122.58,22.67 C125.85,18.22 135.02,18.94 138.04,19.32 C137.06,17.47 135.77,15.44 134.02,13.38z "/><path id="_R_G_L_7_G_L_26_G_D_1_P_0" stroke="#2e2e2e" stroke-linecap="round" stroke-linejoin="round" fill="none" stroke-width="1" stroke-opacity="1" d=" M134.02 13.38 C127.94,6.24 112.94,2.66 102.58,6.24 C92.22,9.81 88.29,18.03 87.57,28.39 C86.87,38.54 96.12,51.78 98.84,54.66 C101.45,54.77 107.57,53.57 112.22,41.25 C112.22,41.25 116.15,41.96 119.01,37.32 C121.87,32.67 118.65,28.03 122.58,22.67 C125.85,18.22 135.02,18.94 138.04,19.32 C137.06,17.47 135.77,15.44 134.02,13.38z "/><path id="_R_G_L_7_G_L_26_G_D_2_P_0" fill="#2e2e2e" fill-opacity="1" fill-rule="nonzero" d=" M122.1 8.88 C122.1,8.88 125.61,4.59 136.98,7.06 C143.86,8.55 145.93,14.8 145.79,17 C145.53,21.43 142.82,23.06 143.92,24.88 C145.01,26.7 144.42,28.28 140.78,28.64 C137.15,29.01 135.82,27.08 135.46,23.81 C135.1,20.54 126.83,9.25 122.1,8.88z "/><path id="_R_G_L_7_G_L_26_G_D_3_P_0" stroke="#2e2e2e" stroke-linecap="round" stroke-linejoin="round" fill="none" stroke-width="1" stroke-opacity="1" d=" M122.1 8.88 C122.1,8.88 125.61,4.59 136.98,7.06 C143.86,8.55 145.93,14.8 145.79,17 C145.53,21.43 142.82,23.06 143.92,24.88 C145.01,26.7 144.42,28.28 140.78,28.64 C137.15,29.01 135.82,27.08 135.46,23.81 C135.1,20.54 126.83,9.25 122.1,8.88z "/><path id="_R_G_L_7_G_L_26_G_D_4_P_0" fill="#2e2e2e" fill-opacity="1" fill-rule="nonzero" d=" M94.05 19.77 C94.05,19.77 79.79,6.11 64.53,4.31 C49.28,2.5 45.06,16.15 39.44,22.98 C33.82,29.8 25.39,25.79 17.56,24.38 C9.73,22.98 2.5,36.43 15.15,48.88 C27.8,61.32 49.48,53.49 56.5,44.46 C63.53,35.42 64.74,24.18 73.57,21.57 C82.4,18.96 92.64,23.18 92.64,23.18 C92.64,23.18 94.05,19.77 94.05,19.77z "/><path id="_R_G_L_7_G_L_26_G_D_5_P_0" stroke="#2e2e2e" stroke-linecap="round" stroke-linejoin="round" fill="none" stroke-width="1" stroke-opacity="1" d=" M94.05 19.77 C94.05,19.77 79.79,6.11 64.53,4.31 C49.28,2.5 45.06,16.15 39.44,22.98 C33.82,29.8 25.39,25.79 17.56,24.38 C9.73,22.98 2.5,36.43 15.15,48.88 C27.8,61.32 49.48,53.49 56.5,44.46 C63.53,35.42 64.74,24.18 73.57,21.57 C82.4,18.96 92.64,23.18 92.64,23.18 C92.64,23.18 94.05,19.77 94.05,19.77z "/></g><g id="_R_G_L_7_G_L_25_G" transform=" translate(279.889, 115.291) translate(-10.32, -12.18)"><path id="_R_G_L_7_G_L_25_G_D_0_P_0" fill="#eabca0" fill-opacity="1" fill-rule="nonzero" d=" M16.08 12.15 C16.08,12.15 11.07,2.5 6.79,5 C2.5,7.5 5.36,15.36 7.5,18.58 C9.65,21.79 15,17.51 15,17.51 "/><path id="_R_G_L_7_G_L_25_G_D_1_P_0" stroke="#2e2e2e" stroke-linecap="round" stroke-linejoin="round" fill="none" stroke-width="1" stroke-opacity="1" d=" M16.08 12.15 C16.08,12.15 11.07,2.5 6.79,5 C2.5,7.5 5.36,15.36 7.5,18.58 C9.65,21.79 15,17.51 15,17.51 "/></g><g id="_R_G_L_7_G_L_24_G" transform=" translate(266.125, 279.25) translate(-16.125, -29.25)"><path id="_R_G_L_7_G_L_24_G_D_0_P_0" stroke="#6668ff" stroke-linecap="round" stroke-linejoin="round" fill="none" stroke-width="2" stroke-opacity="1" d=" M-4.25 73 C-4.25,73 54,3.5 54,3.5 C54,3.5 -21.75,-14.5 -21.75,-14.5 "/></g><g id="_R_G_L_7_G_L_23_G" transform=" translate(248.875, 200.75) translate(1.125, 49.25)"><path id="_R_G_L_7_G_L_23_G_D_0_P_0" stroke="#6668ff" stroke-linecap="round" stroke-linejoin="round" fill="none" stroke-width="2" stroke-opacity="1" d=" M-20.75 -13.25 C-20.75,-13.25 0,-43.5 0,-43.5 C0,-43.5 18.5,-85.25 18.5,-85.25 "/></g><g id="_R_G_L_7_G_L_22_G" transform=" translate(278.5, 124.75) translate(-28.5, 125.25)"><path id="_R_G_L_7_G_L_22_G_D_0_P_0" stroke="#6668ff" stroke-linecap="round" stroke-linejoin="round" fill="none" stroke-width="2" stroke-opacity="1" d=" M22.5 -102.25 C22.5,-102.25 30.5,-123.25 30.5,-123.25 C30.5,-123.25 34.5,-148.25 34.5,-148.25 "/></g><g id="_R_G_L_7_G_L_21_G" transform=" translate(224.75, 98.75) translate(25.25, 151.25)"><path id="_R_G_L_7_G_L_21_G_D_0_P_0" stroke="#6668ff" stroke-linecap="round" stroke-linejoin="round" fill="none" stroke-width="2" stroke-opacity="1" d=" M8.25 -158.5 C8.25,-158.5 -17.25,-164.75 -17.25,-164.75 C-17.25,-164.75 -34.75,-139.75 -34.75,-139.75 C-34.75,-139.75 -58.75,-137.75 -58.75,-137.75 "/></g><g id="_R_G_L_7_G_L_20_G" transform=" translate(219.5, 184.25) translate(30.5, 65.75)"><path id="_R_G_L_7_G_L_20_G_D_0_P_0" stroke="#6668ff" stroke-linecap="round" stroke-linejoin="round" fill="none" stroke-width="2" stroke-opacity="1" d=" M11.25 -98 C11.25,-98 -41,-83 -41,-83 C-41,-83 -72.25,-33.5 -72.25,-33.5 "/></g><g id="_R_G_L_7_G_L_19_G" transform=" translate(309.25, 171.875) translate(-59.25, 78.125)"><path id="_R_G_L_7_G_L_19_G_D_0_P_0" stroke="#6668ff" stroke-linecap="round" stroke-linejoin="round" fill="none" stroke-width="2" stroke-opacity="1" d=" M21.75 -86.75 C21.75,-86.75 49,-57.5 49,-57.5 C49,-57.5 96.75,-98.75 96.75,-98.75 "/></g><g id="_R_G_L_7_G_L_18_G" transform=" translate(150.031, 355.281) translate(98.969, -106.781)"><path id="_R_G_L_7_G_L_18_G_D_0_P_0" fill="#fd5e64" fill-opacity="1" fill-rule="nonzero" d=" M-98.97 103.28 C-97.04,103.28 -95.47,104.85 -95.47,106.78 C-95.47,108.71 -97.04,110.28 -98.97,110.28 C-100.9,110.28 -102.47,108.71 -102.47,106.78 C-102.47,104.85 -100.9,103.28 -98.97,103.28z "/><path id="_R_G_L_7_G_L_18_G_D_1_P_0" stroke="#6668ff" stroke-linecap="round" stroke-linejoin="round" fill="none" stroke-width="2" stroke-opacity="1" d=" M-98.97 103.28 C-97.04,103.28 -95.47,104.85 -95.47,106.78 C-95.47,108.71 -97.04,110.28 -98.97,110.28 C-100.9,110.28 -102.47,108.71 -102.47,106.78 C-102.47,104.85 -100.9,103.28 -98.97,103.28z "/></g><g id="_R_G_L_7_G_L_17_G" transform=" translate(207.156, 301.531) translate(98.969, -106.781)"><path id="_R_G_L_7_G_L_17_G_D_0_P_0" fill="#fd5e64" fill-opacity="1" fill-rule="nonzero" d=" M-98.97 103.28 C-97.04,103.28 -95.47,104.85 -95.47,106.78 C-95.47,108.71 -97.04,110.28 -98.97,110.28 C-100.9,110.28 -102.47,108.71 -102.47,106.78 C-102.47,104.85 -100.9,103.28 -98.97,103.28z "/><path id="_R_G_L_7_G_L_17_G_D_1_P_0" stroke="#6668ff" stroke-linecap="round" stroke-linejoin="round" fill="none" stroke-width="2" stroke-opacity="1" d=" M-98.97 103.28 C-97.04,103.28 -95.47,104.85 -95.47,106.78 C-95.47,108.71 -97.04,110.28 -98.97,110.28 C-100.9,110.28 -102.47,108.71 -102.47,106.78 C-102.47,104.85 -100.9,103.28 -98.97,103.28z "/></g><g id="_R_G_L_7_G_L_16_G" transform=" translate(229.406, 234.781) translate(98.969, -106.781)"><path id="_R_G_L_7_G_L_16_G_D_0_P_0" fill="#fd5e64" fill-opacity="1" fill-rule="nonzero" d=" M-98.97 103.28 C-97.04,103.28 -95.47,104.85 -95.47,106.78 C-95.47,108.71 -97.04,110.28 -98.97,110.28 C-100.9,110.28 -102.47,108.71 -102.47,106.78 C-102.47,104.85 -100.9,103.28 -98.97,103.28z "/><path id="_R_G_L_7_G_L_16_G_D_1_P_0" stroke="#6668ff" stroke-linecap="round" stroke-linejoin="round" fill="none" stroke-width="2" stroke-opacity="1" d=" M-98.97 103.28 C-97.04,103.28 -95.47,104.85 -95.47,106.78 C-95.47,108.71 -97.04,110.28 -98.97,110.28 C-100.9,110.28 -102.47,108.71 -102.47,106.78 C-102.47,104.85 -100.9,103.28 -98.97,103.28z "/></g><g id="_R_G_L_7_G_L_15_G" transform=" translate(303.531, 253.906) translate(98.969, -106.781)"><path id="_R_G_L_7_G_L_15_G_D_0_P_0" fill="#fd5e64" fill-opacity="1" fill-rule="nonzero" d=" M-98.97 103.28 C-97.04,103.28 -95.47,104.85 -95.47,106.78 C-95.47,108.71 -97.04,110.28 -98.97,110.28 C-100.9,110.28 -102.47,108.71 -102.47,106.78 C-102.47,104.85 -100.9,103.28 -98.97,103.28z "/><path id="_R_G_L_7_G_L_15_G_D_1_P_0" stroke="#6668ff" stroke-linecap="round" stroke-linejoin="round" fill="none" stroke-width="2" stroke-opacity="1" d=" M-98.97 103.28 C-97.04,103.28 -95.47,104.85 -95.47,106.78 C-95.47,108.71 -97.04,110.28 -98.97,110.28 C-100.9,110.28 -102.47,108.71 -102.47,106.78 C-102.47,104.85 -100.9,103.28 -98.97,103.28z "/></g><g id="_R_G_L_7_G_L_14_G" transform=" translate(245.531, 322.906) translate(98.969, -106.781)"><path id="_R_G_L_7_G_L_14_G_D_0_P_0" fill="#fd5e64" fill-opacity="1" fill-rule="nonzero" d=" M-98.97 103.28 C-97.04,103.28 -95.47,104.85 -95.47,106.78 C-95.47,108.71 -97.04,110.28 -98.97,110.28 C-100.9,110.28 -102.47,108.71 -102.47,106.78 C-102.47,104.85 -100.9,103.28 -98.97,103.28z "/><path id="_R_G_L_7_G_L_14_G_D_1_P_0" stroke="#6668ff" stroke-linecap="round" stroke-linejoin="round" fill="none" stroke-width="2" stroke-opacity="1" d=" M-98.97 103.28 C-97.04,103.28 -95.47,104.85 -95.47,106.78 C-95.47,108.71 -97.04,110.28 -98.97,110.28 C-100.9,110.28 -102.47,108.71 -102.47,106.78 C-102.47,104.85 -100.9,103.28 -98.97,103.28z "/></g><g id="_R_G_L_7_G_L_13_G" transform=" translate(249.906, 205.906) translate(98.969, -106.781)"><path id="_R_G_L_7_G_L_13_G_D_0_P_0" fill="#fd5e64" fill-opacity="1" fill-rule="nonzero" d=" M-98.97 103.28 C-97.04,103.28 -95.47,104.85 -95.47,106.78 C-95.47,108.71 -97.04,110.28 -98.97,110.28 C-100.9,110.28 -102.47,108.71 -102.47,106.78 C-102.47,104.85 -100.9,103.28 -98.97,103.28z "/><path id="_R_G_L_7_G_L_13_G_D_1_P_0" stroke="#6668ff" stroke-linecap="round" stroke-linejoin="round" fill="none" stroke-width="2" stroke-opacity="1" d=" M-98.97 103.28 C-97.04,103.28 -95.47,104.85 -95.47,106.78 C-95.47,108.71 -97.04,110.28 -98.97,110.28 C-100.9,110.28 -102.47,108.71 -102.47,106.78 C-102.47,104.85 -100.9,103.28 -98.97,103.28z "/></g><g id="_R_G_L_7_G_L_12_G" transform=" translate(270.031, 163.906) translate(98.969, -106.781)"><path id="_R_G_L_7_G_L_12_G_D_0_P_0" fill="#fd5e64" fill-opacity="1" fill-rule="nonzero" d=" M-98.97 103.28 C-97.04,103.28 -95.47,104.85 -95.47,106.78 C-95.47,108.71 -97.04,110.28 -98.97,110.28 C-100.9,110.28 -102.47,108.71 -102.47,106.78 C-102.47,104.85 -100.9,103.28 -98.97,103.28z "/><path id="_R_G_L_7_G_L_12_G_D_1_P_0" stroke="#6668ff" stroke-linecap="round" stroke-linejoin="round" fill="none" stroke-width="2" stroke-opacity="1" d=" M-98.97 103.28 C-97.04,103.28 -95.47,104.85 -95.47,106.78 C-95.47,108.71 -97.04,110.28 -98.97,110.28 C-100.9,110.28 -102.47,108.71 -102.47,106.78 C-102.47,104.85 -100.9,103.28 -98.97,103.28z "/></g><g id="_R_G_L_7_G_L_11_G" transform=" translate(299.531, 190.656) translate(98.969, -106.781)"><path id="_R_G_L_7_G_L_11_G_D_0_P_0" fill="#fd5e64" fill-opacity="1" fill-rule="nonzero" d=" M-98.97 103.28 C-97.04,103.28 -95.47,104.85 -95.47,106.78 C-95.47,108.71 -97.04,110.28 -98.97,110.28 C-100.9,110.28 -102.47,108.71 -102.47,106.78 C-102.47,104.85 -100.9,103.28 -98.97,103.28z "/><path id="_R_G_L_7_G_L_11_G_D_1_P_0" stroke="#6668ff" stroke-linecap="round" stroke-linejoin="round" fill="none" stroke-width="2" stroke-opacity="1" d=" M-98.97 103.28 C-97.04,103.28 -95.47,104.85 -95.47,106.78 C-95.47,108.71 -97.04,110.28 -98.97,110.28 C-100.9,110.28 -102.47,108.71 -102.47,106.78 C-102.47,104.85 -100.9,103.28 -98.97,103.28z "/></g><g id="_R_G_L_7_G_L_10_G" transform=" translate(346.406, 151.531) translate(98.969, -106.781)"><path id="_R_G_L_7_G_L_10_G_D_0_P_0" fill="#fd5e64" fill-opacity="1" fill-rule="nonzero" d=" M-98.97 103.28 C-97.04,103.28 -95.47,104.85 -95.47,106.78 C-95.47,108.71 -97.04,110.28 -98.97,110.28 C-100.9,110.28 -102.47,108.71 -102.47,106.78 C-102.47,104.85 -100.9,103.28 -98.97,103.28z "/><path id="_R_G_L_7_G_L_10_G_D_1_P_0" stroke="#6668ff" stroke-linecap="round" stroke-linejoin="round" fill="none" stroke-width="2" stroke-opacity="1" d=" M-98.97 103.28 C-97.04,103.28 -95.47,104.85 -95.47,106.78 C-95.47,108.71 -97.04,110.28 -98.97,110.28 C-100.9,110.28 -102.47,108.71 -102.47,106.78 C-102.47,104.85 -100.9,103.28 -98.97,103.28z "/></g><g id="_R_G_L_7_G_L_9_G" transform=" translate(260.656, 151.781) translate(98.969, -106.781)"><path id="_R_G_L_7_G_L_9_G_D_0_P_0" fill="#fd5e64" fill-opacity="1" fill-rule="nonzero" d=" M-98.97 103.28 C-97.04,103.28 -95.47,104.85 -95.47,106.78 C-95.47,108.71 -97.04,110.28 -98.97,110.28 C-100.9,110.28 -102.47,108.71 -102.47,106.78 C-102.47,104.85 -100.9,103.28 -98.97,103.28z "/><path id="_R_G_L_7_G_L_9_G_D_1_P_0" stroke="#6668ff" stroke-linecap="round" stroke-linejoin="round" fill="none" stroke-width="2" stroke-opacity="1" d=" M-98.97 103.28 C-97.04,103.28 -95.47,104.85 -95.47,106.78 C-95.47,108.71 -97.04,110.28 -98.97,110.28 C-100.9,110.28 -102.47,108.71 -102.47,106.78 C-102.47,104.85 -100.9,103.28 -98.97,103.28z "/></g><g id="_R_G_L_7_G_L_8_G" transform=" translate(273.406, 147.656) translate(98.969, -106.781)"><path id="_R_G_L_7_G_L_8_G_D_0_P_0" fill="#fd5e64" fill-opacity="1" fill-rule="nonzero" d=" M-98.97 103.28 C-97.04,103.28 -95.47,104.85 -95.47,106.78 C-95.47,108.71 -97.04,110.28 -98.97,110.28 C-100.9,110.28 -102.47,108.71 -102.47,106.78 C-102.47,104.85 -100.9,103.28 -98.97,103.28z "/><path id="_R_G_L_7_G_L_8_G_D_1_P_0" stroke="#6668ff" stroke-linecap="round" stroke-linejoin="round" fill="none" stroke-width="2" stroke-opacity="1" d=" M-98.97 103.28 C-97.04,103.28 -95.47,104.85 -95.47,106.78 C-95.47,108.71 -97.04,110.28 -98.97,110.28 C-100.9,110.28 -102.47,108.71 -102.47,106.78 C-102.47,104.85 -100.9,103.28 -98.97,103.28z "/></g><g id="_R_G_L_7_G_L_7_G" transform=" translate(279.781, 126.281) translate(98.969, -106.781)"><path id="_R_G_L_7_G_L_7_G_D_0_P_0" fill="#fd5e64" fill-opacity="1" fill-rule="nonzero" d=" M-98.97 103.28 C-97.04,103.28 -95.47,104.85 -95.47,106.78 C-95.47,108.71 -97.04,110.28 -98.97,110.28 C-100.9,110.28 -102.47,108.71 -102.47,106.78 C-102.47,104.85 -100.9,103.28 -98.97,103.28z "/><path id="_R_G_L_7_G_L_7_G_D_1_P_0" stroke="#6668ff" stroke-linecap="round" stroke-linejoin="round" fill="none" stroke-width="2" stroke-opacity="1" d=" M-98.97 103.28 C-97.04,103.28 -95.47,104.85 -95.47,106.78 C-95.47,108.71 -97.04,110.28 -98.97,110.28 C-100.9,110.28 -102.47,108.71 -102.47,106.78 C-102.47,104.85 -100.9,103.28 -98.97,103.28z "/></g><g id="_R_G_L_7_G_L_6_G" transform=" translate(284.031, 101.656) translate(98.969, -106.781)"><path id="_R_G_L_7_G_L_6_G_D_0_P_0" fill="#fd5e64" fill-opacity="1" fill-rule="nonzero" d=" M-98.97 103.28 C-97.04,103.28 -95.47,104.85 -95.47,106.78 C-95.47,108.71 -97.04,110.28 -98.97,110.28 C-100.9,110.28 -102.47,108.71 -102.47,106.78 C-102.47,104.85 -100.9,103.28 -98.97,103.28z "/><path id="_R_G_L_7_G_L_6_G_D_1_P_0" stroke="#6668ff" stroke-linecap="round" stroke-linejoin="round" fill="none" stroke-width="2" stroke-opacity="1" d=" M-98.97 103.28 C-97.04,103.28 -95.47,104.85 -95.47,106.78 C-95.47,108.71 -97.04,110.28 -98.97,110.28 C-100.9,110.28 -102.47,108.71 -102.47,106.78 C-102.47,104.85 -100.9,103.28 -98.97,103.28z "/></g><g id="_R_G_L_7_G_L_5_G" transform=" translate(257.156, 91.281) translate(98.969, -106.781)"><path id="_R_G_L_7_G_L_5_G_D_0_P_0" fill="#fd5e64" fill-opacity="1" fill-rule="nonzero" d=" M-98.97 103.28 C-97.04,103.28 -95.47,104.85 -95.47,106.78 C-95.47,108.71 -97.04,110.28 -98.97,110.28 C-100.9,110.28 -102.47,108.71 -102.47,106.78 C-102.47,104.85 -100.9,103.28 -98.97,103.28z "/><path id="_R_G_L_7_G_L_5_G_D_1_P_0" stroke="#6668ff" stroke-linecap="round" stroke-linejoin="round" fill="none" stroke-width="2" stroke-opacity="1" d=" M-98.97 103.28 C-97.04,103.28 -95.47,104.85 -95.47,106.78 C-95.47,108.71 -97.04,110.28 -98.97,110.28 C-100.9,110.28 -102.47,108.71 -102.47,106.78 C-102.47,104.85 -100.9,103.28 -98.97,103.28z "/></g><g id="_R_G_L_7_G_L_4_G" transform=" translate(232.781, 86.906) translate(98.969, -106.781)"><path id="_R_G_L_7_G_L_4_G_D_0_P_0" fill="#fd5e64" fill-opacity="1" fill-rule="nonzero" d=" M-98.97 103.28 C-97.04,103.28 -95.47,104.85 -95.47,106.78 C-95.47,108.71 -97.04,110.28 -98.97,110.28 C-100.9,110.28 -102.47,108.71 -102.47,106.78 C-102.47,104.85 -100.9,103.28 -98.97,103.28z "/><path id="_R_G_L_7_G_L_4_G_D_1_P_0" stroke="#6668ff" stroke-linecap="round" stroke-linejoin="round" fill="none" stroke-width="2" stroke-opacity="1" d=" M-98.97 103.28 C-97.04,103.28 -95.47,104.85 -95.47,106.78 C-95.47,108.71 -97.04,110.28 -98.97,110.28 C-100.9,110.28 -102.47,108.71 -102.47,106.78 C-102.47,104.85 -100.9,103.28 -98.97,103.28z "/></g><g id="_R_G_L_7_G_L_3_G" transform=" translate(215.156, 109.406) translate(98.969, -106.781)"><path id="_R_G_L_7_G_L_3_G_D_0_P_0" fill="#fd5e64" fill-opacity="1" fill-rule="nonzero" d=" M-98.97 103.28 C-97.04,103.28 -95.47,104.85 -95.47,106.78 C-95.47,108.71 -97.04,110.28 -98.97,110.28 C-100.9,110.28 -102.47,108.71 -102.47,106.78 C-102.47,104.85 -100.9,103.28 -98.97,103.28z "/><path id="_R_G_L_7_G_L_3_G_D_1_P_0" stroke="#6668ff" stroke-linecap="round" stroke-linejoin="round" fill="none" stroke-width="2" stroke-opacity="1" d=" M-98.97 103.28 C-97.04,103.28 -95.47,104.85 -95.47,106.78 C-95.47,108.71 -97.04,110.28 -98.97,110.28 C-100.9,110.28 -102.47,108.71 -102.47,106.78 C-102.47,104.85 -100.9,103.28 -98.97,103.28z "/></g><g id="_R_G_L_7_G_L_2_G" transform=" translate(191.781, 112.281) translate(98.969, -106.781)"><path id="_R_G_L_7_G_L_2_G_D_0_P_0" fill="#fd5e64" fill-opacity="1" fill-rule="nonzero" d=" M-98.97 103.28 C-97.04,103.28 -95.47,104.85 -95.47,106.78 C-95.47,108.71 -97.04,110.28 -98.97,110.28 C-100.9,110.28 -102.47,108.71 -102.47,106.78 C-102.47,104.85 -100.9,103.28 -98.97,103.28z "/><path id="_R_G_L_7_G_L_2_G_D_1_P_0" stroke="#6668ff" stroke-linecap="round" stroke-linejoin="round" fill="none" stroke-width="2" stroke-opacity="1" d=" M-98.97 103.28 C-97.04,103.28 -95.47,104.85 -95.47,106.78 C-95.47,108.71 -97.04,110.28 -98.97,110.28 C-100.9,110.28 -102.47,108.71 -102.47,106.78 C-102.47,104.85 -100.9,103.28 -98.97,103.28z "/></g><g id="_R_G_L_7_G_L_1_G" transform=" translate(209.656, 167.906) translate(98.969, -106.781)"><path id="_R_G_L_7_G_L_1_G_D_0_P_0" fill="#fd5e64" fill-opacity="1" fill-rule="nonzero" d=" M-98.97 103.28 C-97.04,103.28 -95.47,104.85 -95.47,106.78 C-95.47,108.71 -97.04,110.28 -98.97,110.28 C-100.9,110.28 -102.47,108.71 -102.47,106.78 C-102.47,104.85 -100.9,103.28 -98.97,103.28z "/><path id="_R_G_L_7_G_L_1_G_D_1_P_0" stroke="#6668ff" stroke-linecap="round" stroke-linejoin="round" fill="none" stroke-width="2" stroke-opacity="1" d=" M-98.97 103.28 C-97.04,103.28 -95.47,104.85 -95.47,106.78 C-95.47,108.71 -97.04,110.28 -98.97,110.28 C-100.9,110.28 -102.47,108.71 -102.47,106.78 C-102.47,104.85 -100.9,103.28 -98.97,103.28z "/></g><g id="_R_G_L_7_G_L_0_G" transform=" translate(179.156, 216.156) translate(98.969, -106.781)"><path id="_R_G_L_7_G_L_0_G_D_0_P_0" fill="#fd5e64" fill-opacity="1" fill-rule="nonzero" d=" M-98.97 103.28 C-97.04,103.28 -95.47,104.85 -95.47,106.78 C-95.47,108.71 -97.04,110.28 -98.97,110.28 C-100.9,110.28 -102.47,108.71 -102.47,106.78 C-102.47,104.85 -100.9,103.28 -98.97,103.28z "/><path id="_R_G_L_7_G_L_0_G_D_1_P_0" stroke="#6668ff" stroke-linecap="round" stroke-linejoin="round" fill="none" stroke-width="2" stroke-opacity="1" d=" M-98.97 103.28 C-97.04,103.28 -95.47,104.85 -95.47,106.78 C-95.47,108.71 -97.04,110.28 -98.97,110.28 C-100.9,110.28 -102.47,108.71 -102.47,106.78 C-102.47,104.85 -100.9,103.28 -98.97,103.28z "/></g></g><g id="_R_G_L_6_G"><g id="_R_G_L_6_G_L_10_G" transform=" translate(540, 280) translate(0, 260)"><path id="_R_G_L_6_G_L_10_G_D_0_P_0" fill="#2e2e2e" fill-opacity="1" fill-rule="nonzero" d=" M350 -280 C350,-280 -350,-280 -350,-280 C-350,-280 -350,-240 -350,-240 C-350,-240 350,-240 350,-240 C350,-240 350,-280 350,-280z "/><path id="_R_G_L_6_G_L_10_G_D_1_P_0" stroke="#6668ff" stroke-linecap="round" stroke-linejoin="round" fill="none" stroke-width="0" stroke-opacity="1" d=" M350 -280 C350,-280 -350,-280 -350,-280 C-350,-280 -350,-240 -350,-240 C-350,-240 350,-240 350,-240 C350,-240 350,-280 350,-280z "/></g><g id="_R_G_L_6_G_L_9_G" transform=" translate(540, 540) translate(-10, 0)"><path id="_R_G_L_6_G_L_9_G_D_0_P_0" stroke="#6668ff" stroke-linecap="round" stroke-linejoin="round" fill="none" stroke-width="10" stroke-opacity="1" d=" M360 -280 C360,-280 -340,-280 -340,-280 C-340,-280 -340,280 -340,280 C-340,280 360,280 360,280 C360,280 360,-280 360,-280z "/><path id="_R_G_L_6_G_L_9_G_D_1_P_0" stroke="#6668ff" stroke-linecap="round" stroke-linejoin="round" fill="none" stroke-width="10" stroke-opacity="1" d=" M-340 -280 C-340,-280 -340,-240 -340,-240 C-340,-240 360,-240 360,-240 C360,-240 360,-280 360,-280 C360,-280 -340,-280 -340,-280z "/></g><g id="_R_G_L_6_G_L_8_G" transform=" translate(890, 280) translate(-340, 260)"><path id="_R_G_L_6_G_L_8_G_D_0_P_0" stroke="#6668ff" stroke-linecap="round" stroke-linejoin="round" fill="none" stroke-width="10" stroke-opacity="1" d=" M340 -280 C340,-280 340,-240 340,-240 "/></g><g id="_R_G_L_6_G_L_7_G" transform=" translate(850, 280) translate(-300, 260)"><path id="_R_G_L_6_G_L_7_G_D_0_P_0" stroke="#6668ff" stroke-linecap="round" stroke-linejoin="round" fill="none" stroke-width="10" stroke-opacity="1" d=" M300 -280 C300,-280 300,-240 300,-240 "/></g><g id="_R_G_L_6_G_L_6_G" transform=" translate(810, 280) translate(-260, 260)"><path id="_R_G_L_6_G_L_6_G_D_0_P_0" stroke="#6668ff" stroke-linecap="round" stroke-linejoin="round" fill="none" stroke-width="10" stroke-opacity="1" d=" M260 -280 C260,-280 260,-240 260,-240 "/></g><g id="_R_G_L_6_G_L_5_G" transform=" translate(770, 280) translate(-220, 260)"><path id="_R_G_L_6_G_L_5_G_D_0_P_0" stroke="#6668ff" stroke-linecap="round" stroke-linejoin="round" fill="none" stroke-width="10" stroke-opacity="1" d=" M220 -280 C220,-280 220,-240 220,-240 "/></g><g id="_R_G_L_6_G_L_4_G" transform=" translate(870.562, 279.625) translate(-330.562, 260.375)"><path id="_R_G_L_6_G_L_4_G_D_0_P_0" stroke="#6668ff" stroke-linecap="round" stroke-linejoin="round" fill="none" stroke-width="2" stroke-opacity="1" d=" M320 -270 C320,-270 340,-250 340,-250 "/></g><g id="_R_G_L_6_G_L_3_G" transform=" translate(870.562, 279.625) translate(-330.562, 260.375)"><path id="_R_G_L_6_G_L_3_G_D_0_P_0" stroke="#6668ff" stroke-linecap="round" stroke-linejoin="round" fill="none" stroke-width="2" stroke-opacity="1" d=" M320 -250 C320,-250 340,-270 340,-270 "/></g><g id="_R_G_L_6_G_L_2_G" transform=" translate(833, 277.5) translate(-293, 262.5)"><path id="_R_G_L_6_G_L_2_G_D_0_P_0" stroke="#6668ff" stroke-linecap="round" stroke-linejoin="round" fill="none" stroke-width="2" stroke-opacity="1" d=" M285 -270 C285,-270 299,-270 299,-270 C299,-270 299,-255 299,-255 "/></g><g id="_R_G_L_6_G_L_1_G" transform=" translate(828.5, 281) translate(-288.5, 259)"><path id="_R_G_L_6_G_L_1_G_D_0_P_0" stroke="#6668ff" stroke-linecap="round" stroke-linejoin="round" fill="none" stroke-width="2" stroke-opacity="1" d=" M296 -267 C296,-267 296,-251 296,-251 C296,-251 281,-251 281,-251 C281,-251 281,-267 281,-267 C281,-267 296,-267 296,-267z "/></g><g id="_R_G_L_6_G_L_0_G" transform=" translate(790.219, 287.531) translate(-250.219, 252.469)"><path id="_R_G_L_6_G_L_0_G_D_0_P_0" stroke="#6668ff" stroke-linecap="round" stroke-linejoin="round" fill="none" stroke-width="2" stroke-opacity="1" d=" M240 -252 C240,-252 260,-252 260,-252 "/></g></g><g id="_R_G_L_5_G" transform=" translate(857, 598) scale(2, 2) translate(-788, -426)" class="0"><g id="_R_G_L_5_G_L_27_G" transform=" translate(788, 426) translate(-248, 114)"><path id="_R_G_L_5_G_L_27_G_D_0_P_0" fill="#2e2e2e" fill-opacity="1" fill-rule="nonzero" d=" M280 -182 C280,-182 280,-46 280,-46 C280,-46 216,-46 216,-46 C216,-46 216,-182 216,-182 C216,-182 280,-182 280,-182z "/></g><g id="_R_G_L_5_G_L_26_G" transform=" translate(788, 396) translate(-248.625, 144.25)"><path id="_R_G_L_5_G_L_26_G_D_0_P_0" stroke="#ff5e62" stroke-linecap="round" stroke-linejoin="round" fill="none" stroke-width="2" stroke-opacity="1" d=" M272.18 -162.57 C272.18,-162.57 272.18,-125.93 272.18,-125.93 C272.18,-123.04 269.84,-120.69 266.95,-120.69 C266.95,-120.69 230.3,-120.69 230.3,-120.69 C227.41,-120.69 225.07,-123.04 225.07,-125.93 C225.07,-125.93 225.07,-162.57 225.07,-162.57 C225.07,-165.46 227.41,-167.81 230.3,-167.81 C230.3,-167.81 266.95,-167.81 266.95,-167.81 C269.84,-167.81 272.18,-165.46 272.18,-162.57z "/></g><g id="_R_G_L_5_G_L_25_G" transform=" translate(802, 383) translate(-248, 144)"><path id="_R_G_L_5_G_L_25_G_D_0_P_0" fill="#ff5e62" fill-opacity="1" fill-rule="nonzero" d=" M248 -148.94 C250.73,-148.94 252.94,-146.73 252.94,-144 C252.94,-141.27 250.73,-139.06 248,-139.06 C245.27,-139.06 243.06,-141.27 243.06,-144 C243.06,-146.73 245.27,-148.94 248,-148.94z "/></g><g id="_R_G_L_5_G_L_24_G" transform=" translate(802, 396) translate(-248, 144)"><path id="_R_G_L_5_G_L_24_G_D_0_P_0" fill="#ff5e62" fill-opacity="1" fill-rule="nonzero" d=" M248 -148.94 C250.73,-148.94 252.94,-146.73 252.94,-144 C252.94,-141.27 250.73,-139.06 248,-139.06 C245.27,-139.06 243.06,-141.27 243.06,-144 C243.06,-146.73 245.27,-148.94 248,-148.94z "/></g><g id="_R_G_L_5_G_L_23_G" transform=" translate(774, 396) translate(-248, 144)"><path id="_R_G_L_5_G_L_23_G_D_0_P_0" fill="#ff5e62" fill-opacity="1" fill-rule="nonzero" d=" M248 -148.94 C250.73,-148.94 252.94,-146.73 252.94,-144 C252.94,-141.27 250.73,-139.06 248,-139.06 C245.27,-139.06 243.06,-141.27 243.06,-144 C243.06,-146.73 245.27,-148.94 248,-148.94z "/></g><g id="_R_G_L_5_G_L_22_G" transform=" translate(774, 383) translate(-248, 144)"><path id="_R_G_L_5_G_L_22_G_D_0_P_0" fill="#ff5e62" fill-opacity="1" fill-rule="nonzero" d=" M248 -148.94 C250.73,-148.94 252.94,-146.73 252.94,-144 C252.94,-141.27 250.73,-139.06 248,-139.06 C245.27,-139.06 243.06,-141.27 243.06,-144 C243.06,-146.73 245.27,-148.94 248,-148.94z "/></g><g id="_R_G_L_5_G_L_21_G" transform=" translate(788, 383) translate(-248, 144)"><path id="_R_G_L_5_G_L_21_G_D_0_P_0" fill="#ff5e62" fill-opacity="1" fill-rule="nonzero" d=" M248 -148.94 C250.73,-148.94 252.94,-146.73 252.94,-144 C252.94,-141.27 250.73,-139.06 248,-139.06 C245.27,-139.06 243.06,-141.27 243.06,-144 C243.06,-146.73 245.27,-148.94 248,-148.94z "/></g><g id="_R_G_L_5_G_L_20_G" transform=" translate(802, 409) translate(-248, 144)"><path id="_R_G_L_5_G_L_20_G_D_0_P_0" fill="#ff5e62" fill-opacity="1" fill-rule="nonzero" d=" M248 -148.94 C250.73,-148.94 252.94,-146.73 252.94,-144 C252.94,-141.27 250.73,-139.06 248,-139.06 C245.27,-139.06 243.06,-141.27 243.06,-144 C243.06,-146.73 245.27,-148.94 248,-148.94z "/></g><g id="_R_G_L_5_G_L_19_G" transform=" translate(788, 409) translate(-248, 144)"><path id="_R_G_L_5_G_L_19_G_D_0_P_0" fill="#ff5e62" fill-opacity="1" fill-rule="nonzero" d=" M248 -148.94 C250.73,-148.94 252.94,-146.73 252.94,-144 C252.94,-141.27 250.73,-139.06 248,-139.06 C245.27,-139.06 243.06,-141.27 243.06,-144 C243.06,-146.73 245.27,-148.94 248,-148.94z "/></g><g id="_R_G_L_5_G_L_18_G" transform=" translate(774, 409) translate(-248, 144)"><path id="_R_G_L_5_G_L_18_G_D_0_P_0" fill="#ff5e62" fill-opacity="1" fill-rule="nonzero" d=" M248 -148.94 C250.73,-148.94 252.94,-146.73 252.94,-144 C252.94,-141.27 250.73,-139.06 248,-139.06 C245.27,-139.06 243.06,-141.27 243.06,-144 C243.06,-146.73 245.27,-148.94 248,-148.94z "/></g><g id="_R_G_L_5_G_L_17_G" transform=" translate(802, 383) translate(-248, 144)"><path id="_R_G_L_5_G_L_17_G_D_0_P_0" stroke="#6668ff" stroke-linecap="round" stroke-linejoin="round" fill="none" stroke-width="2" stroke-opacity="1" d=" M248 -148.94 C250.73,-148.94 252.94,-146.73 252.94,-144 C252.94,-141.27 250.73,-139.06 248,-139.06 C245.27,-139.06 243.06,-141.27 243.06,-144 C243.06,-146.73 245.27,-148.94 248,-148.94z "/></g><g id="_R_G_L_5_G_L_16_G" transform=" translate(802, 396) translate(-248, 144)"><path id="_R_G_L_5_G_L_16_G_D_0_P_0" stroke="#6668ff" stroke-linecap="round" stroke-linejoin="round" fill="none" stroke-width="2" stroke-opacity="1" d=" M248 -148.94 C250.73,-148.94 252.94,-146.73 252.94,-144 C252.94,-141.27 250.73,-139.06 248,-139.06 C245.27,-139.06 243.06,-141.27 243.06,-144 C243.06,-146.73 245.27,-148.94 248,-148.94z "/></g><g id="_R_G_L_5_G_L_15_G" transform=" translate(774, 396) translate(-248, 144)"><path id="_R_G_L_5_G_L_15_G_D_0_P_0" stroke="#6668ff" stroke-linecap="round" stroke-linejoin="round" fill="none" stroke-width="2" stroke-opacity="1" d=" M248 -148.94 C250.73,-148.94 252.94,-146.73 252.94,-144 C252.94,-141.27 250.73,-139.06 248,-139.06 C245.27,-139.06 243.06,-141.27 243.06,-144 C243.06,-146.73 245.27,-148.94 248,-148.94z "/></g><g id="_R_G_L_5_G_L_14_G" transform=" translate(774, 383) translate(-248, 144)"><path id="_R_G_L_5_G_L_14_G_D_0_P_0" stroke="#6668ff" stroke-linecap="round" stroke-linejoin="round" fill="none" stroke-width="2" stroke-opacity="1" d=" M248 -148.94 C250.73,-148.94 252.94,-146.73 252.94,-144 C252.94,-141.27 250.73,-139.06 248,-139.06 C245.27,-139.06 243.06,-141.27 243.06,-144 C243.06,-146.73 245.27,-148.94 248,-148.94z "/></g><g id="_R_G_L_5_G_L_13_G" transform=" translate(788, 383) translate(-248, 144)"><path id="_R_G_L_5_G_L_13_G_D_0_P_0" stroke="#6668ff" stroke-linecap="round" stroke-linejoin="round" fill="none" stroke-width="2" stroke-opacity="1" d=" M248 -148.94 C250.73,-148.94 252.94,-146.73 252.94,-144 C252.94,-141.27 250.73,-139.06 248,-139.06 C245.27,-139.06 243.06,-141.27 243.06,-144 C243.06,-146.73 245.27,-148.94 248,-148.94z "/></g><g id="_R_G_L_5_G_L_12_G" transform=" translate(802, 409) translate(-248, 144)"><path id="_R_G_L_5_G_L_12_G_D_0_P_0" stroke="#6668ff" stroke-linecap="round" stroke-linejoin="round" fill="none" stroke-width="2" stroke-opacity="1" d=" M248 -148.94 C250.73,-148.94 252.94,-146.73 252.94,-144 C252.94,-141.27 250.73,-139.06 248,-139.06 C245.27,-139.06 243.06,-141.27 243.06,-144 C243.06,-146.73 245.27,-148.94 248,-148.94z "/></g><g id="_R_G_L_5_G_L_11_G" transform=" translate(788, 409) translate(-248, 144)"><path id="_R_G_L_5_G_L_11_G_D_0_P_0" stroke="#6668ff" stroke-linecap="round" stroke-linejoin="round" fill="none" stroke-width="2" stroke-opacity="1" d=" M248 -148.94 C250.73,-148.94 252.94,-146.73 252.94,-144 C252.94,-141.27 250.73,-139.06 248,-139.06 C245.27,-139.06 243.06,-141.27 243.06,-144 C243.06,-146.73 245.27,-148.94 248,-148.94z "/></g><g id="_R_G_L_5_G_L_10_G" transform=" translate(774, 409) translate(-248, 144)"><path id="_R_G_L_5_G_L_10_G_D_0_P_0" stroke="#6668ff" stroke-linecap="round" stroke-linejoin="round" fill="none" stroke-width="2" stroke-opacity="1" d=" M248 -148.94 C250.73,-148.94 252.94,-146.73 252.94,-144 C252.94,-141.27 250.73,-139.06 248,-139.06 C245.27,-139.06 243.06,-141.27 243.06,-144 C243.06,-146.73 245.27,-148.94 248,-148.94z "/></g><g id="_R_G_L_5_G_L_9_G" transform=" translate(788, 396) translate(-248, 144)"><path id="_R_G_L_5_G_L_9_G_D_0_P_0" fill="#ff5e62" fill-opacity="1" fill-rule="nonzero" d=" M248 -148.94 C250.73,-148.94 252.94,-146.73 252.94,-144 C252.94,-141.27 250.73,-139.06 248,-139.06 C245.27,-139.06 243.06,-141.27 243.06,-144 C243.06,-146.73 245.27,-148.94 248,-148.94z "/><path id="_R_G_L_5_G_L_9_G_D_1_P_0" stroke="#6668ff" stroke-linecap="round" stroke-linejoin="round" fill="none" stroke-width="2" stroke-opacity="1" d=" M248 -148.94 C250.73,-148.94 252.94,-146.73 252.94,-144 C252.94,-141.27 250.73,-139.06 248,-139.06 C245.27,-139.06 243.06,-141.27 243.06,-144 C243.06,-146.73 245.27,-148.94 248,-148.94z "/></g><g id="_R_G_L_5_G_L_8_G" transform=" translate(788, 434) translate(-248, 106)"><path id="_R_G_L_5_G_L_8_G_D_0_P_0" stroke="#fb5e66" stroke-linecap="round" stroke-linejoin="round" fill="none" stroke-width="2" stroke-opacity="1" d=" M225 -106 C225,-106 271,-106 271,-106 "/></g><g id="_R_G_L_5_G_L_7_G" transform=" translate(788, 449) translate(-248, 106)"><path id="_R_G_L_5_G_L_7_G_D_0_P_0" stroke="#fb5e66" stroke-linecap="round" stroke-linejoin="round" fill="none" stroke-width="2" stroke-opacity="1" d=" M225 -106 C225,-106 271,-106 271,-106 "/></g><g id="_R_G_L_5_G_L_6_G" transform=" translate(788, 464) translate(-248, 106)"><path id="_R_G_L_5_G_L_6_G_D_0_P_0" stroke="#fb5e66" stroke-linecap="round" stroke-linejoin="round" fill="none" stroke-width="2" stroke-opacity="1" d=" M225 -106 C225,-106 271,-106 271,-106 "/></g><g id="_R_G_L_5_G_L_5_G" transform=" translate(788, 479) translate(-248, 106)"><path id="_R_G_L_5_G_L_5_G_D_0_P_0" stroke="#fb5e66" stroke-linecap="round" stroke-linejoin="round" fill="none" stroke-width="2" stroke-opacity="1" d=" M225 -106 C225,-106 271,-106 271,-106 "/></g><g id="_R_G_L_5_G_L_4_G" transform=" translate(798.75, 434) translate(-248, 144)"><path id="_R_G_L_5_G_L_4_G_D_0_P_0" fill="#ff5e62" fill-opacity="1" fill-rule="nonzero" d=" M248 -148.94 C250.73,-148.94 252.94,-146.73 252.94,-144 C252.94,-141.27 250.73,-139.06 248,-139.06 C245.27,-139.06 243.06,-141.27 243.06,-144 C243.06,-146.73 245.27,-148.94 248,-148.94z "/><path id="_R_G_L_5_G_L_4_G_D_1_P_0" stroke="#6668ff" stroke-linecap="round" stroke-linejoin="round" fill="none" stroke-width="2" stroke-opacity="1" d=" M248 -148.94 C250.73,-148.94 252.94,-146.73 252.94,-144 C252.94,-141.27 250.73,-139.06 248,-139.06 C245.27,-139.06 243.06,-141.27 243.06,-144 C243.06,-146.73 245.27,-148.94 248,-148.94z "/></g><g id="_R_G_L_5_G_L_3_G" transform=" translate(787.375, 449) translate(-248, 144)"><path id="_R_G_L_5_G_L_3_G_D_0_P_0" fill="#ff5e62" fill-opacity="1" fill-rule="nonzero" d=" M248 -148.94 C250.73,-148.94 252.94,-146.73 252.94,-144 C252.94,-141.27 250.73,-139.06 248,-139.06 C245.27,-139.06 243.06,-141.27 243.06,-144 C243.06,-146.73 245.27,-148.94 248,-148.94z "/><path id="_R_G_L_5_G_L_3_G_D_1_P_0" stroke="#6668ff" stroke-linecap="round" stroke-linejoin="round" fill="none" stroke-width="2" stroke-opacity="1" d=" M248 -148.94 C250.73,-148.94 252.94,-146.73 252.94,-144 C252.94,-141.27 250.73,-139.06 248,-139.06 C245.27,-139.06 243.06,-141.27 243.06,-144 C243.06,-146.73 245.27,-148.94 248,-148.94z "/></g><g id="_R_G_L_5_G_L_2_G" transform=" translate(774, 479) translate(-248, 144)"><path id="_R_G_L_5_G_L_2_G_D_0_P_0" fill="#ff5e62" fill-opacity="1" fill-rule="nonzero" d=" M248 -148.94 C250.73,-148.94 252.94,-146.73 252.94,-144 C252.94,-141.27 250.73,-139.06 248,-139.06 C245.27,-139.06 243.06,-141.27 243.06,-144 C243.06,-146.73 245.27,-148.94 248,-148.94z "/><path id="_R_G_L_5_G_L_2_G_D_1_P_0" stroke="#6668ff" stroke-linecap="round" stroke-linejoin="round" fill="none" stroke-width="2" stroke-opacity="1" d=" M248 -148.94 C250.73,-148.94 252.94,-146.73 252.94,-144 C252.94,-141.27 250.73,-139.06 248,-139.06 C245.27,-139.06 243.06,-141.27 243.06,-144 C243.06,-146.73 245.27,-148.94 248,-148.94z "/></g><g id="_R_G_L_5_G_L_1_G" transform=" translate(799.75, 464) translate(-248, 144)"><path id="_R_G_L_5_G_L_1_G_D_0_P_0" fill="#ff5e62" fill-opacity="1" fill-rule="nonzero" d=" M248 -148.94 C250.73,-148.94 252.94,-146.73 252.94,-144 C252.94,-141.27 250.73,-139.06 248,-139.06 C245.27,-139.06 243.06,-141.27 243.06,-144 C243.06,-146.73 245.27,-148.94 248,-148.94z "/><path id="_R_G_L_5_G_L_1_G_D_1_P_0" stroke="#6668ff" stroke-linecap="round" stroke-linejoin="round" fill="none" stroke-width="2" stroke-opacity="1" d=" M248 -148.94 C250.73,-148.94 252.94,-146.73 252.94,-144 C252.94,-141.27 250.73,-139.06 248,-139.06 C245.27,-139.06 243.06,-141.27 243.06,-144 C243.06,-146.73 245.27,-148.94 248,-148.94z "/></g><g id="_R_G_L_5_G_L_0_G" transform=" translate(788.625, 427.75) translate(-248.625, 112.25)"><path id="_R_G_L_5_G_L_0_G_D_0_P_0" stroke="#6668ff" stroke-linecap="round" stroke-linejoin="round" fill="none" stroke-width="2" stroke-opacity="1" d=" M280 -172 C280,-172 216,-172 216,-172 C216,-172 216,-46 216,-46 C216,-46 280,-46 280,-46 C280,-46 280,-172 280,-172z "/><path id="_R_G_L_5_G_L_0_G_D_1_P_0" stroke="#6668ff" stroke-linecap="round" stroke-linejoin="round" fill="none" stroke-width="2" stroke-opacity="1" d=" M280 -182 C280,-182 216,-182 216,-182 C216,-182 216,-172 216,-172 C216,-172 280,-172 280,-172 C280,-172 280,-182 280,-182z "/></g></g><g id="_R_G_L_4_G" transform=" translate(237, 301) scale(0.505, 0.505) translate(-960, -540)"><g id="_R_G_L_4_G_L_12_G" transform=" translate(960, 513.5) translate(0, 26.5)"><path id="_R_G_L_4_G_L_12_G_D_0_P_0" fill="#232323" fill-opacity="1" fill-rule="nonzero" d=" M400 -156 C400,-156 400,103 400,103 C400,103 -400,103 -400,103 C-400,103 -400,-156 -400,-156 C-400,-156 400,-156 400,-156z "/></g><g id="_R_G_L_4_G_L_11_G" transform=" translate(1280.503, 547.432) scale(0.67, 0.67) translate(-90.773, -89.168)" class="ai"><path id="_R_G_L_4_G_L_11_G_D_0_P_0" fill="#6968fc" fill-opacity="1" fill-rule="nonzero" d=" M0.25 43.82 C0.25,43.82 0.25,0.25 0.25,0.25 C0.25,0.25 152.4,0.25 152.4,0.25 C152.4,0.25 152.4,43.82 152.4,43.82 C152.4,43.82 130.47,43.82 130.47,43.82 C130.47,43.82 130.47,22.03 130.47,22.03 C130.47,22.03 87.19,22.03 87.19,22.03 C87.19,22.03 87.19,129.97 87.19,129.97 C87.19,129.97 108.93,129.97 108.93,129.97 C108.93,129.97 108.93,152.09 108.93,152.09 C108.93,152.09 43.61,152.09 43.61,152.09 C43.61,152.09 43.67,129.92 43.67,129.92 C43.67,129.92 65.32,129.97 65.32,129.97 C65.32,129.97 65.32,22.03 65.32,22.03 C65.32,22.03 22.13,22.03 22.13,22.03 C22.13,22.03 22.13,43.82 22.13,43.82 C22.13,43.82 0.25,43.82 0.25,43.82z "/><path id="_R_G_L_4_G_L_11_G_D_1_P_0" fill="#6968fc" fill-opacity="1" fill-rule="nonzero" d=" M181.3 149.04 C181.3,149.04 152.4,178.09 152.4,178.09 C152.4,178.09 180.85,178.09 180.85,178.09 C180.85,178.09 181.3,149.04 181.3,149.04z "/></g><g id="_R_G_L_4_G_L_10_G" transform=" translate(1121.925, 549.858) scale(0.67, 0.67) translate(-99.888, -98.789)" class="ai"><path id="_R_G_L_4_G_L_10_G_D_0_P_0" fill="#9665ce" fill-opacity="1" fill-rule="nonzero" d=" M94.44 43.21 C94.44,43.21 48.6,62.18 48.6,62.18 C48.6,62.18 7.5,150.71 7.5,150.71 C7.5,150.71 16.68,157.64 16.68,157.64 C16.68,157.64 54.13,117.12 54.13,117.12 C54.13,117.12 55.41,109.36 61.57,104.79 C64.73,102.44 69.54,100.96 74.68,105.31 C79.82,109.66 77.1,115.58 74.16,119.24 C70.1,124.29 62.83,125.42 62.83,125.42 C62.83,125.42 24.95,164.97 24.95,164.97 C24.95,164.97 32.79,172.44 32.79,172.44 C32.79,172.44 118.55,132.13 118.55,132.13 C118.55,132.13 141.86,91.82 141.86,91.82 C141.86,91.82 94.44,43.21 94.44,43.21z "/><path id="_R_G_L_4_G_L_10_G_D_1_P_0" fill="#9665ce" fill-opacity="1" fill-rule="nonzero" d=" M106.1 29.43 C106.1,29.43 155.6,78.93 155.6,78.93 C155.6,78.93 177.83,57.89 177.83,57.89 C177.83,57.89 127.44,7.5 127.44,7.5 C127.44,7.5 106.1,29.43 106.1,29.43z "/><path id="_R_G_L_4_G_L_10_G_D_2_P_0" fill="#9665ce" fill-opacity="1" fill-rule="nonzero" d=" M192.28 161.03 C192.28,161.03 163.38,190.08 163.38,190.08 C163.38,190.08 191.83,190.08 191.83,190.08 C191.83,190.08 192.28,161.03 192.28,161.03z "/></g><g id="_R_G_L_4_G_L_9_G" transform=" translate(936, 537) translate(34, 13)"><path id="_R_G_L_4_G_L_9_G_D_0_P_0" fill="#414141" fill-opacity="1" fill-rule="nonzero" d=" M20 -62 C20,-62 20,36 20,36 C20,36 -88,36 -88,36 C-88,36 -88,-62 -88,-62 C-88,-62 20,-62 20,-62z "/></g><g id="_R_G_L_4_G_L_8_G" transform=" translate(944.166, 548.099) scale(0.67, 0.67) translate(-95.263, -91.162)" class="ai"><path id="_R_G_L_4_G_L_8_G_D_0_P_0" stroke="#b263b1" stroke-linecap="round" stroke-linejoin="round" fill="none" stroke-width="9" stroke-opacity="1" d=" M164.94 146.76 C164.94,146.76 2.12,146.76 2.12,146.76 C2.12,146.76 2.12,2.12 2.12,2.12 C2.12,2.12 164.94,2.12 164.94,2.12 C164.94,2.12 164.94,146.76 164.94,146.76z "/><path id="_R_G_L_4_G_L_8_G_D_1_P_0" fill="#b263b1" fill-opacity="1" fill-rule="nonzero" d=" M188.4 151.16 C188.4,151.16 159.51,180.2 159.51,180.2 C159.51,180.2 187.96,180.2 187.96,180.2 C187.96,180.2 188.4,151.16 188.4,151.16z "/><path id="_R_G_L_4_G_L_8_G_D_2_P_0" stroke="#b263b1" stroke-linecap="round" stroke-linejoin="round" fill="none" stroke-width="3" stroke-opacity="1" d=" M188.4 151.16 C188.4,151.16 159.51,180.2 159.51,180.2 C159.51,180.2 187.96,180.2 187.96,180.2 C187.96,180.2 188.4,151.16 188.4,151.16z "/></g><g id="_R_G_L_4_G_L_7_G" transform=" translate(766.499, 552.463) scale(0.67, 0.67) translate(-97.729, -97.676)" class="ai"><path id="_R_G_L_4_G_L_7_G_D_0_P_0" stroke="#cc6196" stroke-linecap="round" stroke-linejoin="round" fill="none" stroke-width="15" stroke-opacity="1" d=" M185.46 185.35 C185.46,185.35 120.84,120.74 120.84,120.74 "/><path id="_R_G_L_4_G_L_7_G_D_1_P_0" stroke="#cc6196" stroke-linecap="round" stroke-linejoin="round" fill="none" stroke-width="5" stroke-opacity="1" d=" M136.99 74.74 C136.99,109.12 109.12,136.98 74.74,136.98 C40.37,136.98 12.5,109.12 12.5,74.74 C12.5,40.37 40.37,12.5 74.74,12.5 C109.12,12.5 136.99,40.37 136.99,74.74z "/></g><g id="_R_G_L_4_G_L_6_G" transform=" translate(632.971, 549.84) scale(0.67, 0.67) translate(-65.456, -89.761)" class="ai"><path id="_R_G_L_4_G_L_6_G_D_0_P_0" fill="#fc5e65" fill-opacity="1" fill-rule="nonzero" d=" M0.25 0.25 C0.25,0.25 0.25,179.27 0.25,179.27 C0.25,179.27 54.79,124.74 54.79,124.74 C54.79,124.74 130.66,127.11 130.66,127.11 C130.66,127.11 0.25,0.25 0.25,0.25z "/></g><g id="_R_G_L_4_G_L_5_G" transform=" translate(960, 415) translate(0, 110)"><path id="_R_G_L_4_G_L_5_G_D_0_P_0" stroke="#6668ff" stroke-linecap="round" stroke-linejoin="round" fill="none" stroke-width="7" stroke-opacity="1" d=" M-400 -80 C-400,-80 400,-80 400,-80 C400,-80 400,-140 400,-140 C400,-140 -400,-140 -400,-140 "/></g><g id="_R_G_L_4_G_L_4_G" transform=" translate(1332, 414.5) translate(-372, 110.5)"><path id="_R_G_L_4_G_L_4_G_D_0_P_0" stroke="#6668ff" stroke-linecap="round" stroke-linejoin="round" fill="none" stroke-width="5" stroke-opacity="1" d=" M382 -128 C382,-128 362,-111 362,-111 C362,-111 382,-93 382,-93 "/></g><g id="_R_G_L_4_G_L_3_G" transform=" translate(1312, 414.5) translate(-352, 110.5)"><path id="_R_G_L_4_G_L_3_G_D_0_P_0" stroke="#6668ff" stroke-linecap="round" stroke-linejoin="round" fill="none" stroke-width="5" stroke-opacity="1" d=" M362 -128 C362,-128 342,-111 342,-111 C342,-111 362,-93 362,-93 "/></g><g id="_R_G_L_4_G_L_2_G" transform=" translate(589.5, 414.5) translate(370.5, 110.5)"><path id="_R_G_L_4_G_L_2_G_D_0_P_0" stroke="#6668ff" stroke-linecap="round" stroke-linejoin="round" fill="none" stroke-width="5" stroke-opacity="1" d=" M-387 -127 C-387,-127 -354,-94 -354,-94 "/></g><g id="_R_G_L_4_G_L_1_G" transform=" translate(589.5, 414.5) translate(370.5, 110.5)"><path id="_R_G_L_4_G_L_1_G_D_0_P_0" stroke="#6668ff" stroke-linecap="round" stroke-linejoin="round" fill="none" stroke-width="5" stroke-opacity="1" d=" M-354 -127 C-354,-127 -387,-94 -387,-94 "/></g><g id="_R_G_L_4_G_L_0_G" transform=" translate(960, 514) translate(0, 11)"><path id="_R_G_L_4_G_L_0_G_D_0_P_0" stroke="#6668ff" stroke-linecap="round" stroke-linejoin="round" fill="none" stroke-width="5" stroke-opacity="1" d=" M-400 -140 C-400,-140 -400,118 -400,118 C-400,118 400,118 400,118 C400,118 400,-140 400,-140 C400,-140 -400,-140 -400,-140z "/></g></g><g id="_R_G_L_3_G" transform=" translate(844, 396) scale(0.44, 0.44) translate(-960, -540)"><g id="_R_G_L_3_G_L_10_G" transform=" translate(967.5, 512.5) translate(-7.5, 27.5)"><path id="_R_G_L_3_G_L_10_G_D_0_P_0" fill="#232323" fill-opacity="1" fill-rule="nonzero" d=" M400 -140 C400,-140 -400,-140 -400,-140 C-400,-140 -400,85 -400,85 C-400,85 400,85 400,85 C400,85 400,-140 400,-140z "/><path id="_R_G_L_3_G_L_10_G_D_1_P_0" stroke="#6668ff" stroke-linecap="round" stroke-linejoin="round" fill="none" stroke-width="10" stroke-opacity="1" d=" M400 -140 C400,-140 -400,-140 -400,-140 C-400,-140 -400,85 -400,85 C-400,85 400,85 400,85 C400,85 400,-140 400,-140z "/></g><g id="_R_G_L_3_G_L_9_G" transform=" translate(960, 427) translate(0, 113)"><path id="_R_G_L_3_G_L_9_G_D_0_P_0" stroke="#6668ff" stroke-linecap="round" stroke-linejoin="round" fill="none" stroke-width="10" stroke-opacity="1" d=" M400 -140 C400,-140 -400,-140 -400,-140 C-400,-140 -400,-90 -400,-90 C-400,-90 400,-90 400,-90 C400,-90 400,-140 400,-140z "/></g><g id="_R_G_L_3_G_L_8_G" transform=" translate(1332, 424.5) scale(0.8, 0.8) translate(-372, 110.5)"><path id="_R_G_L_3_G_L_8_G_D_0_P_0" stroke="#6668ff" stroke-linecap="round" stroke-linejoin="round" fill="none" stroke-width="5" stroke-opacity="1" d=" M382 -128 C382,-128 362,-111 362,-111 C362,-111 382,-93 382,-93 "/></g><g id="_R_G_L_3_G_L_7_G" transform=" translate(1312, 424.5) scale(0.8, 0.8) translate(-352, 110.5)"><path id="_R_G_L_3_G_L_7_G_D_0_P_0" stroke="#6668ff" stroke-linecap="round" stroke-linejoin="round" fill="none" stroke-width="5" stroke-opacity="1" d=" M362 -128 C362,-128 342,-111 342,-111 C342,-111 362,-93 362,-93 "/></g><g id="_R_G_L_3_G_L_6_G" transform=" translate(589.5, 424.5) scale(0.8, 0.8) translate(370.5, 110.5)"><path id="_R_G_L_3_G_L_6_G_D_0_P_0" stroke="#6668ff" stroke-linecap="round" stroke-linejoin="round" fill="none" stroke-width="5" stroke-opacity="1" d=" M-387 -127 C-387,-127 -354,-94 -354,-94 "/></g><g id="_R_G_L_3_G_L_5_G" transform=" translate(589.5, 424.5) scale(0.8, 0.8) translate(370.5, 110.5)"><path id="_R_G_L_3_G_L_5_G_D_0_P_0" stroke="#6668ff" stroke-linecap="round" stroke-linejoin="round" fill="none" stroke-width="5" stroke-opacity="1" d=" M-354 -127 C-354,-127 -387,-94 -387,-94 "/></g><g id="_R_G_L_3_G_L_4_G" transform=" translate(655.093, 539.797) scale(0.66, 0.66) translate(-78.156, -69.193)" class="ai"><path id="_R_G_L_3_G_L_4_G_D_0_P_0" fill="#6668ff" fill-opacity="1" fill-rule="nonzero" d=" M152.31 3.88 C152.31,3.88 152.31,134.39 152.31,134.39 C152.31,134.39 21.81,69.14 21.81,69.14 C21.81,69.14 152.31,3.88 152.31,3.88z "/><path id="_R_G_L_3_G_L_4_G_D_1_P_0" stroke="#6668ff" stroke-linecap="round" stroke-linejoin="round" fill="none" stroke-width="8" stroke-opacity="1" d=" M4 4 C4,4 4,134.5 4,134.5 "/></g><g id="_R_G_L_3_G_L_3_G" transform=" translate(801.578, 539.836) scale(0.66, 0.66) translate(-80.345, -69.251)" class="ai"><path id="_R_G_L_3_G_L_3_G_D_0_P_0" fill="#8f65d5" fill-opacity="1" fill-rule="nonzero" d=" M130.76 4 C130.76,4 130.76,134.5 130.76,134.5 C130.76,134.5 0.25,69.25 0.25,69.25 C0.25,69.25 130.76,4 130.76,4z "/><path id="_R_G_L_3_G_L_3_G_D_1_P_0" stroke="#8566e0" stroke-linecap="round" stroke-linejoin="round" fill="none" stroke-width="8" stroke-opacity="1" d=" M160.44 4 C160.44,4 160.44,134.5 160.44,134.5 "/></g><g id="_R_G_L_3_G_L_2_G" transform=" translate(965.672, 539.67) scale(0.66, 0.66) translate(-65.503, -65.501)" class="ai"><path id="_R_G_L_3_G_L_2_G_D_0_P_0" fill="#b463af" fill-opacity="1" fill-rule="nonzero" d=" M0.25 0.25 C0.25,0.25 0.25,130.75 0.25,130.75 C0.25,130.75 130.76,65.5 130.76,65.5 C130.76,65.5 0.25,0.25 0.25,0.25z "/></g><g id="_R_G_L_3_G_L_1_G" transform=" translate(1120.072, 539.797) scale(0.66, 0.66) translate(-84.124, -69.193)" class="ai"><path id="_R_G_L_3_G_L_1_G_D_0_P_0" fill="#db6087" fill-opacity="1" fill-rule="nonzero" d=" M33.74 3.88 C33.74,3.88 33.74,134.39 33.74,134.39 C33.74,134.39 164.25,69.14 164.25,69.14 C164.25,69.14 33.74,3.88 33.74,3.88z "/><path id="_R_G_L_3_G_L_1_G_D_1_P_0" stroke="#dc6086" stroke-linecap="round" stroke-linejoin="round" fill="none" stroke-width="8" stroke-opacity="1" d=" M4 4 C4,4 4,134.5 4,134.5 "/></g><g id="_R_G_L_3_G_L_0_G" transform=" translate(1274.669, 539.836) scale(0.66, 0.66) translate(-74.483, -69.251)" class="ai"><path id="_R_G_L_3_G_L_0_G_D_0_P_0" fill="#fd5e64" fill-opacity="1" fill-rule="nonzero" d=" M0.25 4 C0.25,4 0.25,134.5 0.25,134.5 C0.25,134.5 130.76,69.25 130.76,69.25 C130.76,69.25 0.25,4 0.25,4z "/><path id="_R_G_L_3_G_L_0_G_D_1_P_0" stroke="#fd5e64" stroke-linecap="round" stroke-linejoin="round" fill="none" stroke-width="8" stroke-opacity="1" d=" M148.72 4 C148.72,4 148.72,134.5 148.72,134.5 "/></g></g><g id="_R_G_L_2_G" transform=" translate(602, 859) scale(0.31833, 0.31833) translate(-960, -540)"><g id="_R_G_L_2_G_L_26_G" transform=" translate(960, 540) translate(0, 0)"><path id="_R_G_L_2_G_L_26_G_D_0_P_0" fill="#232323" fill-opacity="1" fill-rule="nonzero" d=" M600 -300 C600,-300 -600,-300 -600,-300 C-600,-300 -600,300 -600,300 C-600,300 600,300 600,300 C600,300 600,-300 600,-300z "/></g><g id="_R_G_L_2_G_L_25_G" transform=" translate(1316.062, 794.5) scale(0.6240100000000001, 1) translate(411, 85.5)"><path id="_R_G_L_2_G_L_25_G_D_0_P_0" fill="#6868fd" fill-opacity="1" fill-rule="nonzero" d=" M-222 -128 C-222,-128 -222,-43 -222,-43 C-222,-43 -600,-43 -600,-43 C-600,-43 -600,-128 -600,-128 C-600,-128 -222,-128 -222,-128z "/></g><g id="_R_G_L_2_G_L_24_G" transform=" translate(1241.875, 709.5) scale(1.31845, 1) translate(222, 85.5)"><path id="_R_G_L_2_G_L_24_G_D_0_P_0" fill="#9065d3" fill-opacity="1" fill-rule="nonzero" d=" M-222 -128 C-222,-128 -222,-43 -222,-43 C-222,-43 -600,-43 -600,-43 C-600,-43 -600,-128 -600,-128 C-600,-128 -222,-128 -222,-128z "/></g><g id="_R_G_L_2_G_L_23_G" transform=" translate(968.062, 624.5) scale(1.54309, 1) translate(411, 85.5)"><path id="_R_G_L_2_G_L_23_G_D_0_P_0" fill="#a864bb" fill-opacity="1" fill-rule="nonzero" d=" M-75.35 -128 C-75.35,-128 -75.35,-43 -75.35,-43 C-75.35,-43 -453.35,-43 -453.35,-43 C-453.35,-43 -453.35,-128 -453.35,-128 C-453.35,-128 -75.35,-128 -75.35,-128z "/></g><g id="_R_G_L_2_G_L_22_G" transform=" translate(1276.938, 539.5) scale(0.66634, 1) translate(411, 85.5)"><path id="_R_G_L_2_G_L_22_G_D_0_P_0" fill="#c6629d" fill-opacity="1" fill-rule="nonzero" d=" M-222 -128 C-222,-128 -222,-43 -222,-43 C-222,-43 -600,-43 -600,-43 C-600,-43 -600,-128 -600,-128 C-600,-128 -222,-128 -222,-128z "/></g><g id="_R_G_L_2_G_L_21_G" transform=" translate(771, 454.5) scale(1.90179, 1) translate(600, 85.5)"><path id="_R_G_L_2_G_L_21_G_D_0_P_0" fill="#e5607d" fill-opacity="1" fill-rule="nonzero" d=" M-222 -128 C-222,-128 -222,-43 -222,-43 C-222,-43 -600,-43 -600,-43 C-600,-43 -600,-128 -600,-128 C-600,-128 -222,-128 -222,-128z "/></g><g id="_R_G_L_2_G_L_20_G" transform=" translate(960, 280) translate(0, 260)"><path id="_R_G_L_2_G_L_20_G_D_0_P_0" fill="#232323" fill-opacity="1" fill-rule="nonzero" d=" M600 -300 C600,-300 -600,-300 -600,-300 C-600,-300 -600,-220 -600,-220 C-600,-220 600,-220 600,-220 C600,-220 600,-300 600,-300z "/><path id="_R_G_L_2_G_L_20_G_D_1_P_0" stroke="#6668ff" stroke-linecap="round" stroke-linejoin="round" fill="none" stroke-width="10" stroke-opacity="1" d=" M600 -300 C600,-300 -600,-300 -600,-300 C-600,-300 -600,-220 -600,-220 C-600,-220 600,-220 600,-220 C600,-220 600,-300 600,-300z "/></g><g id="_R_G_L_2_G_L_19_G" transform=" translate(405.25, 277) scale(1.24, 1.24) translate(370.5, 110.5)"><path id="_R_G_L_2_G_L_19_G_D_0_P_0" stroke="#6668ff" stroke-linecap="round" stroke-linejoin="round" fill="none" stroke-width="5" stroke-opacity="1" d=" M-354 -127 C-354,-127 -387,-94 -387,-94 "/></g><g id="_R_G_L_2_G_L_18_G" transform=" translate(405.25, 277) scale(1.24, 1.24) translate(370.5, 110.5)"><path id="_R_G_L_2_G_L_18_G_D_0_P_0" stroke="#6668ff" stroke-linecap="round" stroke-linejoin="round" fill="none" stroke-width="5" stroke-opacity="1" d=" M-387 -127 C-387,-127 -354,-94 -354,-94 "/></g><g id="_R_G_L_2_G_L_17_G" transform=" translate(1501.25, 277) scale(1.24, 1.24) translate(-352, 110.5)"><path id="_R_G_L_2_G_L_17_G_D_0_P_0" stroke="#6668ff" stroke-linecap="round" stroke-linejoin="round" fill="none" stroke-width="5" stroke-opacity="1" d=" M362 -128 C362,-128 342,-111 342,-111 C342,-111 362,-93 362,-93 "/></g><g id="_R_G_L_2_G_L_16_G" transform=" translate(1521.25, 277) scale(1.24, 1.24) translate(-372, 110.5)"><path id="_R_G_L_2_G_L_16_G_D_0_P_0" stroke="#6668ff" stroke-linecap="round" stroke-linejoin="round" fill="none" stroke-width="5" stroke-opacity="1" d=" M382 -128 C382,-128 362,-111 362,-111 C362,-111 382,-93 382,-93 "/></g><g id="_R_G_L_2_G_L_15_G" transform=" translate(960, 411) translate(0, 149)"><path id="_R_G_L_2_G_L_15_G_D_0_P_0" fill="#232323" fill-opacity="1" fill-rule="nonzero" d=" M-600 -149 C-600,-149 600,-149 600,-149 "/><path id="_R_G_L_2_G_L_15_G_D_1_P_0" stroke="#6668ff" stroke-linecap="round" stroke-linejoin="round" fill="none" stroke-width="10" stroke-opacity="1" d=" M-600 -149 C-600,-149 600,-149 600,-149 "/></g><g id="_R_G_L_2_G_L_14_G" transform=" translate(741.5, 630.5) translate(218.5, -90.5)"><path id="_R_G_L_2_G_L_14_G_D_0_P_0" fill="#232323" fill-opacity="1" fill-rule="nonzero" d=" M-222 -129 C-222,-129 -222,300 -222,300 "/><path id="_R_G_L_2_G_L_14_G_D_1_P_0" stroke="#6668ff" stroke-linecap="round" stroke-linejoin="round" fill="none" stroke-width="10" stroke-opacity="1" d=" M-222 -129 C-222,-129 -222,300 -222,300 "/></g><g id="_R_G_L_2_G_L_13_G" transform=" translate(1149, 388) translate(-189, 148)"><path id="_R_G_L_2_G_L_13_G_D_0_P_0" fill="#232323" fill-opacity="1" fill-rule="nonzero" d=" M-222 -148 C-222,-148 600,-148 600,-148 "/><path id="_R_G_L_2_G_L_13_G_D_1_P_0" stroke="#b2b2b2" stroke-linecap="round" stroke-linejoin="round" fill="none" stroke-width="34" stroke-opacity="1" d=" M-222 -148 C-222,-148 600,-148 600,-148 "/></g><g id="_R_G_L_2_G_L_12_G" transform=" translate(549, 794.5) translate(411, 85.5)"><path id="_R_G_L_2_G_L_12_G_D_0_P_0" fill="#404040" fill-opacity="1" fill-rule="nonzero" d=" M-222 -128 C-222,-128 -222,-43 -222,-43 C-222,-43 -600,-43 -600,-43 C-600,-43 -600,-128 -600,-128 C-600,-128 -222,-128 -222,-128z "/></g><g id="_R_G_L_2_G_L_11_G" transform=" translate(549, 709.5) translate(411, 85.5)"><path id="_R_G_L_2_G_L_11_G_D_0_P_0" fill="#737373" fill-opacity="1" fill-rule="nonzero" d=" M-222 -128 C-222,-128 -222,-43 -222,-43 C-222,-43 -600,-43 -600,-43 C-600,-43 -600,-128 -600,-128 C-600,-128 -222,-128 -222,-128z "/></g><g id="_R_G_L_2_G_L_10_G" transform=" translate(549, 624.5) translate(411, 85.5)"><path id="_R_G_L_2_G_L_10_G_D_0_P_0" fill="#404040" fill-opacity="1" fill-rule="nonzero" d=" M-222 -128 C-222,-128 -222,-43 -222,-43 C-222,-43 -600,-43 -600,-43 C-600,-43 -600,-128 -600,-128 C-600,-128 -222,-128 -222,-128z "/></g><g id="_R_G_L_2_G_L_9_G" transform=" translate(549, 539.5) translate(411, 85.5)"><path id="_R_G_L_2_G_L_9_G_D_0_P_0" fill="#737373" fill-opacity="1" fill-rule="nonzero" d=" M-222 -128 C-222,-128 -222,-43 -222,-43 C-222,-43 -600,-43 -600,-43 C-600,-43 -600,-128 -600,-128 C-600,-128 -222,-128 -222,-128z "/></g><g id="_R_G_L_2_G_L_8_G" transform=" translate(549, 454.5) translate(411, 85.5)"><path id="_R_G_L_2_G_L_8_G_D_0_P_0" fill="#404040" fill-opacity="1" fill-rule="nonzero" d=" M-222 -128 C-222,-128 -222,-43 -222,-43 C-222,-43 -600,-43 -600,-43 C-600,-43 -600,-128 -600,-128 C-600,-128 -222,-128 -222,-128z "/></g><g id="_R_G_L_2_G_L_7_G" transform=" translate(401.5, 795.5) translate(558.5, 86.5)"><path id="_R_G_L_2_G_L_7_G_D_0_P_0" fill="#6868fd" fill-opacity="1" fill-rule="nonzero" d=" M-531 -114 C-531,-114 -531,-59 -531,-59 C-531,-59 -586,-59 -586,-59 C-586,-59 -586,-114 -586,-114 C-586,-114 -531,-114 -531,-114z "/></g><g id="_R_G_L_2_G_L_6_G" transform=" translate(401.5, 710.5) translate(558.5, 86.5)"><path id="_R_G_L_2_G_L_6_G_D_0_P_0" fill="#9065d3" fill-opacity="1" fill-rule="nonzero" d=" M-531 -114 C-531,-114 -531,-59 -531,-59 C-531,-59 -586,-59 -586,-59 C-586,-59 -586,-114 -586,-114 C-586,-114 -531,-114 -531,-114z "/></g><g id="_R_G_L_2_G_L_5_G" transform=" translate(401.5, 625.5) translate(558.5, 86.5)"><path id="_R_G_L_2_G_L_5_G_D_0_P_0" fill="#a864bb" fill-opacity="1" fill-rule="nonzero" d=" M-531 -114 C-531,-114 -531,-59 -531,-59 C-531,-59 -586,-59 -586,-59 C-586,-59 -586,-114 -586,-114 C-586,-114 -531,-114 -531,-114z "/></g><g id="_R_G_L_2_G_L_4_G" transform=" translate(401.5, 540.5) translate(558.5, 86.5)"><path id="_R_G_L_2_G_L_4_G_D_0_P_0" fill="#c6629d" fill-opacity="1" fill-rule="nonzero" d=" M-531 -114 C-531,-114 -531,-59 -531,-59 C-531,-59 -586,-59 -586,-59 C-586,-59 -586,-114 -586,-114 C-586,-114 -531,-114 -531,-114z "/></g><g id="_R_G_L_2_G_L_3_G" transform=" translate(401.5, 453.5) translate(558.5, 86.5)"><path id="_R_G_L_2_G_L_3_G_D_0_P_0" fill="#e5607d" fill-opacity="1" fill-rule="nonzero" d=" M-531 -114 C-531,-114 -531,-59 -531,-59 C-531,-59 -586,-59 -586,-59 C-586,-59 -586,-114 -586,-114 C-586,-114 -531,-114 -531,-114z "/></g><g id="_R_G_L_2_G_L_2_G" transform=" translate(922.625, 599.188) translate(37.375, -59.188)"><path id="_R_G_L_2_G_L_2_G_D_0_P_0" stroke="#bfbfbf" stroke-linecap="round" stroke-linejoin="round" fill="none" stroke-width="4" stroke-opacity="1" d=" M-38 -181.69 C-38,-181.69 -38,300 -38,300 "/></g><g id="_R_G_L_2_G_L_1_G" transform=" translate(922, 355.5) translate(38, 184.5)"><path id="_R_G_L_2_G_L_1_G_D_0_P_0" fill="#bfbfbf" fill-opacity="1" fill-rule="nonzero" d=" M-30 -201 C-30,-201 -46,-201 -46,-201 C-46,-201 -46,-181 -46,-181 C-46,-181 -38,-168 -38,-168 C-38,-168 -30,-181 -30,-181 C-30,-181 -30,-201 -30,-201z "/></g><g id="_R_G_L_2_G_L_0_G" transform=" translate(960, 540) translate(0, 0)"><path id="_R_G_L_2_G_L_0_G_D_0_P_0" stroke="#6668ff" stroke-linecap="round" stroke-linejoin="round" fill="none" stroke-width="10" stroke-opacity="1" d=" M600 -300 C600,-300 -600,-300 -600,-300 C-600,-300 -600,300 -600,300 C-600,300 600,300 600,300 C600,300 600,-300 600,-300z "/></g></g><g id="_R_G_L_1_G" transform=" translate(214, 574) scale(0.36, 0.36) translate(-960, -540)"><g id="_R_G_L_1_G_L_24_G" transform=" translate(960, 540) translate(0, 0)"><path id="_R_G_L_1_G_L_24_G_D_0_P_0" fill="#232323" fill-opacity="1" fill-rule="nonzero" d=" M400 -400 C400,-400 400,400 400,400 C400,400 -400,400 -400,400 C-400,400 -400,-400 -400,-400 C-400,-400 400,-400 400,-400z "/></g><g id="_R_G_L_1_G_L_23_G" transform=" translate(960, 540) translate(0, 0)"><path id="_R_G_L_1_G_L_23_G_D_0_P_0" stroke="#6668ff" stroke-linecap="round" stroke-linejoin="round" fill="none" stroke-width="10" stroke-opacity="1" d=" M400 -400 C400,-400 -400,-400 -400,-400 C-400,-400 -400,400 -400,400 C-400,400 400,400 400,400 C400,400 400,-400 400,-400z "/></g><g id="_R_G_L_1_G_L_22_G" transform=" translate(966, 344) translate(-6, 314)"><path id="_R_G_L_1_G_L_22_G_D_0_P_0" stroke="#6668ff" stroke-linecap="round" stroke-linejoin="round" fill="none" stroke-width="10" stroke-opacity="1" d=" M379 -180 C379,-180 379,-160 379,-160 C379,-148.96 370.04,-140 359,-140 C359,-140 -359,-140 -359,-140 C-370.04,-140 -379,-148.96 -379,-160 C-379,-160 -379,-180 -379,-180 C-379,-191.04 -370.04,-200 -359,-200 C-359,-200 359,-200 359,-200 C370.04,-200 379,-191.04 379,-180z "/></g><g id="_R_G_L_1_G_L_21_G" transform=" translate(964, 543.5) translate(-4, 96.5)"><path id="_R_G_L_1_G_L_21_G_D_0_P_0" stroke="#6668ff" stroke-linecap="round" stroke-linejoin="round" fill="none" stroke-width="10" stroke-opacity="1" d=" M-400 -100 C-400,-100 400,-100 400,-100 "/></g><g id="_R_G_L_1_G_L_20_G" transform=" translate(963, 224.5) translate(-3, 315.5)"><path id="_R_G_L_1_G_L_20_G_D_0_P_0" stroke="#6668ff" stroke-linecap="round" stroke-linejoin="round" fill="none" stroke-width="10" stroke-opacity="1" d=" M-400 -320 C-400,-320 400,-320 400,-320 "/></g><g id="_R_G_L_1_G_L_19_G" transform=" translate(611, 595) translate(349, -55)"><path id="_R_G_L_1_G_L_19_G_D_0_P_0" fill="#e4d84c" fill-opacity="1" fill-rule="nonzero" d=" M-318 24 C-318,24 -318,86 -318,86 C-318,86 -380,86 -380,86 C-380,86 -380,24 -380,24 C-380,24 -318,24 -318,24z "/></g><g id="_R_G_L_1_G_L_18_G" transform=" translate(611, 687.25) translate(349, -55)"><path id="_R_G_L_1_G_L_18_G_D_0_P_0" fill="#a89677" fill-opacity="1" fill-rule="nonzero" d=" M-318 24 C-318,24 -318,86 -318,86 C-318,86 -380,86 -380,86 C-380,86 -380,24 -380,24 C-380,24 -318,24 -318,24z "/></g><g id="_R_G_L_1_G_L_17_G" transform=" translate(611, 786.25) translate(349, -55)"><path id="_R_G_L_1_G_L_17_G_D_0_P_0" fill="#e4d84c" fill-opacity="1" fill-rule="nonzero" d=" M-318 24 C-318,24 -318,86 -318,86 C-318,86 -380,86 -380,86 C-380,86 -380,24 -380,24 C-380,24 -318,24 -318,24z "/></g><g id="_R_G_L_1_G_L_16_G" transform=" translate(611, 888.25) translate(349, -55)"><path id="_R_G_L_1_G_L_16_G_D_0_P_0" fill="#e4d84c" fill-opacity="1" fill-rule="nonzero" d=" M-318 24 C-318,24 -318,86 -318,86 C-318,86 -380,86 -380,86 C-380,86 -380,24 -380,24 C-380,24 -318,24 -318,24z "/></g><g id="_R_G_L_1_G_L_15_G" transform=" translate(964, 644.5) translate(-4, -104.5)"><path id="_R_G_L_1_G_L_15_G_D_0_P_0" stroke="#6668ff" stroke-linecap="round" stroke-linejoin="round" fill="none" stroke-width="10" stroke-opacity="1" d=" M-400 101 C-400,101 400,101 400,101 "/></g><g id="_R_G_L_1_G_L_14_G" transform=" translate(964, 742.5) translate(-4, -104.5)"><path id="_R_G_L_1_G_L_14_G_D_0_P_0" stroke="#6668ff" stroke-linecap="round" stroke-linejoin="round" fill="none" stroke-width="10" stroke-opacity="1" d=" M-400 101 C-400,101 400,101 400,101 "/></g><g id="_R_G_L_1_G_L_13_G" transform=" translate(964, 846.5) translate(-4, -104.5)"><path id="_R_G_L_1_G_L_13_G_D_0_P_0" stroke="#6668ff" stroke-linecap="round" stroke-linejoin="round" fill="none" stroke-width="10" stroke-opacity="1" d=" M-400 101 C-400,101 400,101 400,101 "/></g><g id="_R_G_L_1_G_L_12_G" transform=" translate(1004.5, 598.5) translate(-44.5, -58.5)"><path id="_R_G_L_1_G_L_12_G_D_0_P_0" stroke="#808080" stroke-linecap="round" stroke-linejoin="round" fill="none" stroke-width="25" stroke-opacity="1" d=" M-250 55 C-250,55 332,55 332,55 "/></g><g id="_R_G_L_1_G_L_11_G" transform=" translate(1003, 692) translate(-43, -152)"><path id="_R_G_L_1_G_L_11_G_D_0_P_0" stroke="#808080" stroke-linecap="round" stroke-linejoin="round" fill="none" stroke-width="25" stroke-opacity="1" d=" M-250 147 C-250,147 332,147 332,147 "/></g><g id="_R_G_L_1_G_L_10_G" transform=" translate(1003.5, 789.5) translate(-43.5, -249.5)"><path id="_R_G_L_1_G_L_10_G_D_0_P_0" stroke="#808080" stroke-linecap="round" stroke-linejoin="round" fill="none" stroke-width="25" stroke-opacity="1" d=" M-250 246 C-250,246 332,246 332,246 "/></g><g id="_R_G_L_1_G_L_9_G" transform=" translate(1003.5, 892) translate(-43.5, -352)"><path id="_R_G_L_1_G_L_9_G_D_0_P_0" stroke="#808080" stroke-linecap="round" stroke-linejoin="round" fill="none" stroke-width="25" stroke-opacity="1" d=" M-250 348 C-250,348 332,348 332,348 "/></g><g id="_R_G_L_1_G_L_8_G" transform=" translate(620.396, 488) scale(0.19774999999999998, 0.19774999999999998) translate(-97.729, -97.676)" class="ai"><path id="_R_G_L_1_G_L_8_G_D_0_P_0" stroke="#6668ff" stroke-linecap="round" stroke-linejoin="round" fill="none" stroke-width="60" stroke-opacity="1" d=" M189.08 187.98 C189.08,187.98 124.47,123.36 124.47,123.36 "/><path id="_R_G_L_1_G_L_8_G_D_1_P_0" stroke="#6668ff" stroke-linecap="round" stroke-linejoin="round" fill="none" stroke-width="30" stroke-opacity="1" d=" M136.99 74.74 C136.99,109.12 109.12,136.98 74.74,136.98 C40.37,136.98 12.5,109.12 12.5,74.74 C12.5,40.37 40.37,12.5 74.74,12.5 C109.12,12.5 136.99,40.37 136.99,74.74z "/></g><g id="_R_G_L_1_G_L_7_G" transform=" translate(715, 331.5) scale(0.8848900000000001, 1) translate(245, 208.5)"><path id="_R_G_L_1_G_L_7_G_D_0_P_0" fill="#666666" fill-opacity="1" fill-rule="nonzero" d=" M-106 -299 C-106,-299 -106,-118 -106,-118 C-106,-118 -384,-118 -384,-118 C-384,-118 -384,-299 -384,-299 C-384,-299 -106,-299 -106,-299z "/></g><g id="_R_G_L_1_G_L_6_G" transform=" translate(1078.5, 278) translate(-118.5, 262)"><path id="_R_G_L_1_G_L_6_G_D_0_P_0" stroke="#808080" stroke-linecap="round" stroke-linejoin="round" fill="none" stroke-width="25" stroke-opacity="1" d=" M-65 -262 C-65,-262 302,-262 302,-262 "/></g><g id="_R_G_L_1_G_L_5_G" transform=" translate(1078.5, 319) translate(-118.5, 262)"><path id="_R_G_L_1_G_L_5_G_D_0_P_0" stroke="#808080" stroke-linecap="round" stroke-linejoin="round" fill="none" stroke-width="25" stroke-opacity="1" d=" M-65 -262 C-65,-262 248,-262 248,-262 "/></g><g id="_R_G_L_1_G_L_4_G" transform=" translate(1078.5, 358) translate(-118.5, 262)"><path id="_R_G_L_1_G_L_4_G_D_0_P_0" stroke="#808080" stroke-linecap="round" stroke-linejoin="round" fill="none" stroke-width="25" stroke-opacity="1" d=" M-65 -262 C-65,-262 196,-262 196,-262 "/></g><g id="_R_G_L_1_G_L_3_G" transform=" translate(1319, 179.5) scale(1.33333, 1.33333) translate(-372, 110.5)"><path id="_R_G_L_1_G_L_3_G_D_0_P_0" stroke="#6668ff" stroke-linecap="round" stroke-linejoin="round" fill="none" stroke-width="5" stroke-opacity="1" d=" M382 -128 C382,-128 362,-111 362,-111 C362,-111 382,-93 382,-93 "/></g><g id="_R_G_L_1_G_L_2_G" transform=" translate(1299, 179.5) scale(1.33333, 1.33333) translate(-352, 110.5)"><path id="_R_G_L_1_G_L_2_G_D_0_P_0" stroke="#6668ff" stroke-linecap="round" stroke-linejoin="round" fill="none" stroke-width="5" stroke-opacity="1" d=" M362 -128 C362,-128 342,-111 342,-111 C342,-111 362,-93 362,-93 "/></g><g id="_R_G_L_1_G_L_1_G" transform=" translate(601.5, 179.5) scale(1.33333, 1.33333) translate(370.5, 110.5)"><path id="_R_G_L_1_G_L_1_G_D_0_P_0" stroke="#6668ff" stroke-linecap="round" stroke-linejoin="round" fill="none" stroke-width="5" stroke-opacity="1" d=" M-387 -127 C-387,-127 -354,-94 -354,-94 "/></g><g id="_R_G_L_1_G_L_0_G" transform=" translate(601.5, 179.5) scale(1.33333, 1.33333) translate(370.5, 110.5)"><path id="_R_G_L_1_G_L_0_G_D_0_P_0" stroke="#6668ff" stroke-linecap="round" stroke-linejoin="round" fill="none" stroke-width="5" stroke-opacity="1" d=" M-354 -127 C-354,-127 -387,-94 -387,-94 "/></g></g><g id="_R_G_L_0_G" transform=" translate(819.692, 471.75) scale(1.9058000000000002, 1.9058000000000002) translate(-0.442, 0.8)" class="2"><text id="_R_G_L_0_G_X" font-size="8px" font-family="Bebas Neue" font-weight="Regular" fill="#ffffff" text-anchor="middle" letter-spacing="0.776"><tspan id="_R_G_L_0_G_X_A_0" x="0" dy="0">M T 2.0</tspan></text></g></g><g id="time_group"/></svg>